<?xml version="1.0" encoding="UTF-8" standalone="no"?>
<!DOCTYPE svg PUBLIC "-//W3C//DTD SVG 1.1//EN" "http://www.w3.org/Graphics/SVG/1.1/DTD/svg11.dtd">
<svg width="100%" height="100%" viewBox="0 0 163 293" version="1.1" xmlns="http://www.w3.org/2000/svg" xmlns:xlink="http://www.w3.org/1999/xlink" xml:space="preserve" xmlns:serif="http://www.serif.com/" style="fill-rule:evenodd;clip-rule:evenodd;stroke-linejoin:round;stroke-miterlimit:2;">
    <g>
        <g>
            <path d="M158.4,191.6C165.6,199 147.3,199.9 143.9,213.6C144.9,204.3 148.7,192.9 158.4,191.6Z" style="fill:url(#_Linear1);fill-rule:nonzero;"/>
            <path d="M147.6,191.5C149.8,189.6 153.3,187.5 156.6,190C157.3,190.6 157.9,191.1 158.4,191.6C148.7,192.9 144.9,204.2 143.9,213.6C142.4,202.5 143.5,195 147.6,191.5Z" style="fill:url(#_Radial2);fill-rule:nonzero;"/>
        </g>
        <path d="M141,139.5C139,150.9 138.9,162.6 139.8,174.2C140.8,185.8 142.7,197.4 144.5,209.1C146.2,220.8 147.8,232.7 147.9,244.8C148,256.9 146.6,269.2 143.1,281C142.4,283.3 140,284.6 137.7,283.9C135.4,283.2 134.1,280.8 134.8,278.5L134.8,278.4C138.4,267.6 140.1,256.3 140.3,244.8C140.6,233.3 139.5,221.7 138.1,210C136.7,198.3 135.1,186.5 134.5,174.6C133.9,162.7 134.4,150.5 136.9,138.7C137.1,137.6 138.3,136.8 139.4,137.1C140.4,137.3 141.2,138.4 141,139.5Z" style="fill:rgb(120,236,255);fill-rule:nonzero;"/>
        <path d="M135.8,150C132.8,137.9 111.3,144 121.3,133C123.4,130.6 129.4,131.8 131.3,133.4C134.6,136.2 137.2,140.8 135.8,150Z" style="fill:url(#_Linear3);fill-rule:nonzero;"/>
        <path d="M142.5,146.6C145.7,143.5 149.9,142.1 153.4,141.6C158.3,141 161.8,141.6 159.2,137C157.7,134.4 154.1,133.8 152.1,134.7C148.5,136.3 145.7,139.2 142.5,146.6Z" style="fill:url(#_Linear4);fill-rule:nonzero;"/>
        <circle cx="139" cy="129.7" r="15.4" style="fill:rgb(255,241,0);"/>
        <path d="M137.6,150.7C134.1,146.4 126.4,135 138.5,135.6C149.9,136 149.5,142.8 137.6,150.7Z" style="fill:url(#_Linear5);fill-rule:nonzero;"/>
        <g>
            <path d="M40.4,195.4C46.9,202.1 30.4,202.9 27.4,215.2C28.2,206.8 31.6,196.6 40.4,195.4Z" style="fill:url(#_Linear6);fill-rule:nonzero;"/>
            <path d="M30.6,195.3C32.6,193.6 35.7,191.7 38.7,194C39.4,194.5 39.9,195 40.4,195.5C31.6,196.7 28.2,206.9 27.4,215.3C25.9,205.2 26.9,198.5 30.6,195.3Z" style="fill:url(#_Radial7);fill-rule:nonzero;"/>
        </g>
        <path d="M24.2,148.7C22.4,159 22.3,169.5 23.2,179.9C24.1,190.4 25.9,200.8 27.5,211.4C29.1,222 30.5,232.7 30.6,243.7C30.7,254.6 29.4,265.8 26.3,276.4C25.6,278.7 23.2,280 20.9,279.3C18.6,278.6 17.3,276.2 18,273.9L18,273.8C21.2,264.1 22.8,253.9 23,243.6C23.3,233.2 22.3,222.8 21.1,212.2C19.9,201.7 18.4,191 17.9,180.2C17.4,169.4 17.8,158.5 20.1,147.8C20.3,146.7 21.5,145.9 22.6,146.2C23.7,146.5 24.4,147.6 24.2,148.7Z" style="fill:rgb(120,236,255);fill-rule:nonzero;"/>
        <path d="M18.7,157.9C16,147 -3.4,152.5 5.6,142.6C7.5,140.5 12.9,141.5 14.6,142.9C17.6,145.5 19.9,149.6 18.7,157.9Z" style="fill:url(#_Linear8);fill-rule:nonzero;"/>
        <path d="M25.3,155C28.2,152.2 32,150.9 35.2,150.5C39.6,149.9 42.8,150.5 40.4,146.4C39,144 35.8,143.5 34,144.3C30.8,145.7 28.3,148.4 25.3,155Z" style="fill:url(#_Linear9);fill-rule:nonzero;"/>
        <circle cx="22.2" cy="139.8" r="13.9" style="fill:rgb(241,197,197);"/>
        <path d="M21.9,158.7C18.7,154.8 11.8,144.6 22.7,145C33,145.5 32.7,151.6 21.9,158.7Z" style="fill:url(#_Linear10);fill-rule:nonzero;"/>
        <g>
            <path d="M119,169.3C124.9,175.4 109.9,176.1 107.1,187.4C107.9,179.7 111,170.4 119,169.3Z" style="fill:url(#_Linear11);fill-rule:nonzero;"/>
            <path d="M110.1,169.2C111.9,167.7 114.8,165.9 117.5,168C118.1,168.5 118.6,168.9 119,169.3C111,170.4 107.9,179.7 107.1,187.4C105.8,178.3 106.8,172.1 110.1,169.2Z" style="fill:url(#_Radial12);fill-rule:nonzero;"/>
        </g>
        <g>
            <path d="M88,194C82.1,200.1 97.1,200.8 99.9,212.1C99.1,204.3 96,195 88,194Z" style="fill:url(#_Linear13);fill-rule:nonzero;"/>
            <path d="M96.9,193.8C95.1,192.3 92.2,190.5 89.5,192.6C88.9,193.1 88.4,193.5 88,193.9C96,195 99.1,204.3 99.9,212C101.2,202.9 100.2,196.7 96.9,193.8Z" style="fill:url(#_Radial14);fill-rule:nonzero;"/>
        </g>
        <path d="M105.2,112.3C107,126 107.6,139.8 107.7,153.5C107.8,167.3 107.3,181 106.9,194.6C106.5,208.3 106.2,221.9 106.3,235.5C106.4,249.1 106.7,262.7 107.4,276.3C107.5,278.7 105.7,280.7 103.3,280.8C100.9,280.9 98.9,279.1 98.8,276.7L98.8,276.6C98.5,262.9 98.5,249.1 98.8,235.4C99.1,221.7 99.8,208 100.5,194.3C101.2,180.6 102.1,167 102.4,153.4C102.7,139.8 102.4,126.2 101,112.7C100.9,111.5 101.7,110.5 102.9,110.4C104.1,110.4 105.1,111.2 105.2,112.3Z" style="fill:rgb(120,236,255);fill-rule:nonzero;"/>
        <path d="M101.8,120.5C99.3,110.3 81.2,115.4 89.6,106.2C91.4,104.2 96.4,105.2 98,106.5C100.8,108.9 102.9,112.7 101.8,120.5Z" style="fill:url(#_Linear15);fill-rule:nonzero;"/>
        <path d="M107.2,117.8C109.9,115.2 113.4,114 116.4,113.6C120.5,113.1 123.5,113.6 121.3,109.7C120,107.5 117,107 115.3,107.8C112.2,109.1 109.9,111.6 107.2,117.8Z" style="fill:url(#_Linear16);fill-rule:nonzero;"/>
        <path d="M118,100.5C118,108 111.9,114.1 104.4,114.1C96.9,114.1 90.8,108 90.8,100.5C90.8,93 96.9,86.9 104.4,86.9C111.9,86.8 118,92.9 118,100.5Z" style="fill:rgb(162,254,248);fill-rule:nonzero;"/>
        <path d="M104,121.2C101,117.6 94.6,108 104.7,108.5C114.3,108.9 114,114.6 104,121.2Z" style="fill:url(#_Linear17);fill-rule:nonzero;"/>
        <g>
            <path d="M100.6,144.2C107.1,153.1 87.6,151.3 82,165.3C84.4,155.6 90.2,144.1 100.6,144.2Z" style="fill:url(#_Linear18);fill-rule:nonzero;"/>
            <path d="M89.2,142.4C91.8,140.7 95.8,139 99,142.2C99.7,142.9 100.3,143.6 100.7,144.2C90.2,144.1 84.5,155.6 82.1,165.3C82,153.3 84.3,145.5 89.2,142.4Z" style="fill:url(#_Radial19);fill-rule:nonzero;"/>
        </g>
        <g>
            <path d="M103.7,82.8C111.4,90.7 91.9,91.7 88.2,106.3C89.2,96.3 93.3,84.2 103.7,82.8Z" style="fill:url(#_Linear20);fill-rule:nonzero;"/>
            <path d="M92.1,82.6C94.4,80.6 98.2,78.3 101.7,81C102.5,81.6 103.1,82.2 103.7,82.7C93.3,84.1 89.3,96.2 88.2,106.2C86.5,94.4 87.7,86.3 92.1,82.6Z" style="fill:url(#_Radial21);fill-rule:nonzero;"/>
        </g>
        <g>
            <path d="M68.6,70.3C60.9,78.2 80.4,79.2 84.1,93.8C83,83.9 79,71.7 68.6,70.3Z" style="fill:url(#_Linear22);fill-rule:nonzero;"/>
            <path d="M80.2,70.2C77.9,68.2 74.1,65.9 70.6,68.6C69.8,69.2 69.2,69.8 68.6,70.3C79,71.7 83,83.9 84.1,93.8C85.8,81.9 84.5,73.9 80.2,70.2Z" style="fill:url(#_Radial23);fill-rule:nonzero;"/>
        </g>
        <g>
            <path d="M64.1,119.7C56.4,127.6 75.9,128.6 79.6,143.2C78.6,133.3 74.5,121.1 64.1,119.7Z" style="fill:url(#_Linear24);fill-rule:nonzero;"/>
            <path d="M75.7,119.6C73.4,117.6 69.6,115.3 66.1,118C65.3,118.6 64.7,119.2 64.1,119.7C74.5,121.1 78.5,133.2 79.6,143.2C81.3,131.3 80.1,123.3 75.7,119.6Z" style="fill:url(#_Radial25);fill-rule:nonzero;"/>
        </g>
        <path d="M89.5,43C90.6,63 90.1,83 89,102.9C87.8,122.8 86.1,142.6 84.9,162.4C83.6,182.2 82.8,202 82.8,221.8C82.8,241.6 83.5,261.3 84.8,281.1C85,283.9 82.9,286.2 80.1,286.4C77.3,286.6 75,284.5 74.8,281.7L74.8,281.6C73.9,261.6 73.6,241.6 74.1,221.6C74.6,201.6 75.8,181.7 77.5,161.8C79.2,141.9 81.3,122.2 82.9,102.4C84.5,82.6 85.4,62.9 84.7,43.1C84.7,41.8 85.7,40.6 87,40.6C88.3,40.6 89.4,41.7 89.5,43Z" style="fill:rgb(120,236,255);fill-rule:nonzero;"/>
        <path d="M85.4,62.4C80.1,48 59.2,50.3 70,40C73.1,37 76.9,38.8 79.3,40.5C83.7,43.5 85.8,51 85.4,62.4Z" style="fill:url(#_Linear26);fill-rule:nonzero;"/>
        <path d="M90.3,57C98.8,48.8 112.6,57.3 108.6,46.5C107.5,43.4 104.2,43.4 102,43.7C97.8,44.4 93.9,48.9 90.3,57Z" style="fill:url(#_Linear27);fill-rule:nonzero;"/>
        <path d="M103.4,37.6C103.4,46.4 96.2,53.6 87.4,53.6C78.6,53.6 71.4,46.4 71.4,37.6C71.4,28.8 78.6,21.6 87.4,21.6C96.2,21.6 103.4,28.8 103.4,37.6Z" style="fill:rgb(241,197,197);fill-rule:nonzero;"/>
        <path d="M87.3,62.6C83.4,57.9 75,45.5 88.3,46.1C100.7,46.6 100.4,54 87.3,62.6Z" style="fill:url(#_Linear28);fill-rule:nonzero;"/>
        <g>
            <path d="M74.9,171.6C80.9,177.8 65.7,178.5 62.8,190C63.6,182.1 66.8,172.7 74.9,171.6Z" style="fill:url(#_Linear29);fill-rule:nonzero;"/>
            <path d="M65.8,171.5C67.6,169.9 70.6,168.1 73.3,170.3C73.9,170.8 74.4,171.2 74.8,171.6C66.7,172.7 63.5,182.2 62.7,189.9C61.5,180.7 62.4,174.4 65.8,171.5Z" style="fill:url(#_Radial30);fill-rule:nonzero;"/>
        </g>
        <g>
            <path d="M72.6,145.2C77.8,150.6 64.6,151.2 62.1,161.2C62.8,154.4 65.5,146.2 72.6,145.2Z" style="fill:url(#_Linear31);fill-rule:nonzero;"/>
            <path d="M64.7,145.1C66.3,143.7 68.8,142.2 71.2,144C71.7,144.4 72.2,144.8 72.5,145.2C65.5,146.2 62.7,154.4 62,161.1C60.9,153.1 61.8,147.7 64.7,145.1Z" style="fill:url(#_Radial32);fill-rule:nonzero;"/>
        </g>
        <path d="M54.6,114.3C58.1,127.9 60.9,141.7 62.4,155.8L62.7,158.4C62.8,159.3 62.8,160.2 62.9,161L63.3,166.3C63.5,168.1 63.5,169.8 63.5,171.6L63.6,176.9C63.6,180.4 63.6,184 63.4,187.5C63.2,191 63.1,194.6 62.8,198.1C61.8,212.2 60.3,226 59.1,239.9C57.9,253.8 57.2,267.6 56.8,281.5C56.7,283.9 54.7,285.8 52.3,285.7C49.9,285.6 48,283.6 48.1,281.2L48.1,281.1C48.9,267.1 50,253 51.6,239.1C53.1,225.2 55,211.3 56.4,197.5C56.8,194 56.9,190.6 57.2,187.2C57.4,183.8 57.5,180.3 57.6,176.9L57.6,171.7C57.6,170 57.6,168.3 57.5,166.5L57.3,161.3C57.3,160.4 57.2,159.6 57.2,158.7L57,156.1C55.9,142.3 53.5,128.7 50.5,115.1C50.2,114 51,112.8 52.1,112.6C53.2,112.5 54.3,113.2 54.6,114.3Z" style="fill:rgb(120,236,255);fill-rule:nonzero;"/>
        <g>
            <path d="M42.9,158.4C37.4,165.9 53.9,164.4 58.7,176.3C56.6,168 51.7,158.3 42.9,158.4Z" style="fill:url(#_Linear33);fill-rule:nonzero;"/>
            <path d="M52.6,156.9C50.4,155.5 47,154 44.3,156.7C43.7,157.3 43.2,157.9 42.9,158.4C51.8,158.3 56.6,168 58.7,176.2C58.7,166.1 56.7,159.5 52.6,156.9Z" style="fill:url(#_Radial34);fill-rule:nonzero;"/>
        </g>
        <path d="M56.9,126.3C59.5,116 74,115.9 65.8,109.6C63.5,107.8 61,109.3 59.4,110.6C56.6,113.1 55.8,118.4 56.9,126.3Z" style="fill:url(#_Linear35);fill-rule:nonzero;"/>
        <path d="M51.8,123C45.2,116.6 34.4,123.3 37.5,114.8C38.4,112.4 40.9,112.4 42.7,112.6C46,113.2 49,116.7 51.8,123Z" style="fill:url(#_Linear36);fill-rule:nonzero;"/>
        <path d="M66,104.8C66,112.6 59.7,118.9 51.9,118.9C44.1,118.9 37.8,112.6 37.8,104.8C37.8,97 44.1,90.7 51.9,90.7C59.7,90.7 66,97 66,104.8Z" style="fill:rgb(0,203,255);fill-rule:nonzero;"/>
        <g>
            <g>
                <path d="M55.1,126.5C58.1,122.8 64.7,113.1 54.4,113.6C44.6,114 44.9,119.8 55.1,126.5Z" style="fill:url(#_Linear37);fill-rule:nonzero;"/>
            </g>
        </g>
    </g>
    <defs>
        <linearGradient id="_Linear1" x1="0" y1="0" x2="1" y2="0" gradientUnits="userSpaceOnUse" gradientTransform="matrix(8.0713,8.6673,-8.6673,8.0713,147.34,198.488)"><stop offset="0" style="stop-color:rgb(83,222,233);stop-opacity:1"/><stop offset="0.54" style="stop-color:rgb(99,252,144);stop-opacity:1"/><stop offset="0.62" style="stop-color:rgb(97,249,153);stop-opacity:1"/><stop offset="0.74" style="stop-color:rgb(93,241,178);stop-opacity:1"/><stop offset="0.88" style="stop-color:rgb(86,227,217);stop-opacity:1"/><stop offset="1" style="stop-color:rgb(79,215,253);stop-opacity:1"/></linearGradient>
        <radialGradient id="_Radial2" cx="0" cy="0" r="1" gradientUnits="userSpaceOnUse" gradientTransform="matrix(-6.20665,-7.164,-9.57064,8.29102,154.506,199.958)"><stop offset="0" style="stop-color:rgb(83,222,233);stop-opacity:1"/><stop offset="0.54" style="stop-color:rgb(99,252,144);stop-opacity:1"/><stop offset="0.62" style="stop-color:rgb(97,249,153);stop-opacity:1"/><stop offset="0.74" style="stop-color:rgb(93,241,178);stop-opacity:1"/><stop offset="0.88" style="stop-color:rgb(86,227,217);stop-opacity:1"/><stop offset="1" style="stop-color:rgb(79,215,253);stop-opacity:1"/></radialGradient>
        <linearGradient id="_Linear3" x1="0" y1="0" x2="1" y2="0" gradientUnits="userSpaceOnUse" gradientTransform="matrix(17.2623,16.4099,-16.4099,17.2623,120.02,131.226)"><stop offset="0" style="stop-color:rgb(83,222,233);stop-opacity:1"/><stop offset="0.54" style="stop-color:rgb(99,252,144);stop-opacity:1"/><stop offset="0.62" style="stop-color:rgb(97,249,153);stop-opacity:1"/><stop offset="0.74" style="stop-color:rgb(93,241,178);stop-opacity:1"/><stop offset="0.88" style="stop-color:rgb(86,227,217);stop-opacity:1"/><stop offset="1" style="stop-color:rgb(79,215,253);stop-opacity:1"/></linearGradient>
        <linearGradient id="_Linear4" x1="0" y1="0" x2="1" y2="0" gradientUnits="userSpaceOnUse" gradientTransform="matrix(-19.6505,3.97942,-3.97942,-19.6505,161.67,138.074)"><stop offset="0" style="stop-color:rgb(83,222,233);stop-opacity:1"/><stop offset="0.54" style="stop-color:rgb(99,252,144);stop-opacity:1"/><stop offset="0.62" style="stop-color:rgb(97,249,153);stop-opacity:1"/><stop offset="0.74" style="stop-color:rgb(93,241,178);stop-opacity:1"/><stop offset="0.88" style="stop-color:rgb(86,227,217);stop-opacity:1"/><stop offset="1" style="stop-color:rgb(79,215,253);stop-opacity:1"/></linearGradient>
        <linearGradient id="_Linear5" x1="0" y1="0" x2="1" y2="0" gradientUnits="userSpaceOnUse" gradientTransform="matrix(-0.5769,16.2251,-16.2251,-0.5769,139.526,134.111)"><stop offset="0" style="stop-color:rgb(83,222,233);stop-opacity:1"/><stop offset="0.54" style="stop-color:rgb(99,252,188);stop-opacity:1"/><stop offset="0.65" style="stop-color:rgb(96,247,197);stop-opacity:1"/><stop offset="0.82" style="stop-color:rgb(89,233,222);stop-opacity:1"/><stop offset="1" style="stop-color:rgb(79,215,253);stop-opacity:1"/></linearGradient>
        <linearGradient id="_Linear6" x1="0" y1="0" x2="1" y2="0" gradientUnits="userSpaceOnUse" gradientTransform="matrix(7.2768,7.8141,-7.8141,7.2768,30.3848,201.625)"><stop offset="0" style="stop-color:rgb(83,222,233);stop-opacity:1"/><stop offset="0.54" style="stop-color:rgb(99,252,144);stop-opacity:1"/><stop offset="0.62" style="stop-color:rgb(97,249,153);stop-opacity:1"/><stop offset="0.74" style="stop-color:rgb(93,241,178);stop-opacity:1"/><stop offset="0.88" style="stop-color:rgb(86,227,217);stop-opacity:1"/><stop offset="1" style="stop-color:rgb(79,215,253);stop-opacity:1"/></linearGradient>
        <radialGradient id="_Radial7" cx="0" cy="0" r="1" gradientUnits="userSpaceOnUse" gradientTransform="matrix(-5.59579,-6.45892,-8.62869,7.47501,36.8149,202.98)"><stop offset="0" style="stop-color:rgb(83,222,233);stop-opacity:1"/><stop offset="0.54" style="stop-color:rgb(99,252,144);stop-opacity:1"/><stop offset="0.62" style="stop-color:rgb(97,249,153);stop-opacity:1"/><stop offset="0.74" style="stop-color:rgb(93,241,178);stop-opacity:1"/><stop offset="0.88" style="stop-color:rgb(86,227,217);stop-opacity:1"/><stop offset="1" style="stop-color:rgb(79,215,253);stop-opacity:1"/></radialGradient>
        <linearGradient id="_Linear8" x1="0" y1="0" x2="1" y2="0" gradientUnits="userSpaceOnUse" gradientTransform="matrix(15.5631,14.7948,-14.7948,15.5631,4.44764,140.978)"><stop offset="0" style="stop-color:rgb(83,222,233);stop-opacity:1"/><stop offset="0.54" style="stop-color:rgb(99,252,144);stop-opacity:1"/><stop offset="0.62" style="stop-color:rgb(97,249,153);stop-opacity:1"/><stop offset="0.74" style="stop-color:rgb(93,241,178);stop-opacity:1"/><stop offset="0.88" style="stop-color:rgb(86,227,217);stop-opacity:1"/><stop offset="1" style="stop-color:rgb(79,215,253);stop-opacity:1"/></linearGradient>
        <linearGradient id="_Linear9" x1="0" y1="0" x2="1" y2="0" gradientUnits="userSpaceOnUse" gradientTransform="matrix(-17.7165,3.58762,-3.58762,-17.7165,42.6732,147.365)"><stop offset="0" style="stop-color:rgb(83,222,233);stop-opacity:1"/><stop offset="0.54" style="stop-color:rgb(99,252,144);stop-opacity:1"/><stop offset="0.62" style="stop-color:rgb(97,249,153);stop-opacity:1"/><stop offset="0.74" style="stop-color:rgb(93,241,178);stop-opacity:1"/><stop offset="0.88" style="stop-color:rgb(86,227,217);stop-opacity:1"/><stop offset="1" style="stop-color:rgb(79,215,253);stop-opacity:1"/></linearGradient>
        <linearGradient id="_Linear10" x1="0" y1="0" x2="1" y2="0" gradientUnits="userSpaceOnUse" gradientTransform="matrix(-0.5201,14.6281,-14.6281,-0.5201,23.6926,143.756)"><stop offset="0" style="stop-color:rgb(83,222,233);stop-opacity:1"/><stop offset="0.54" style="stop-color:rgb(99,252,188);stop-opacity:1"/><stop offset="0.65" style="stop-color:rgb(96,247,197);stop-opacity:1"/><stop offset="0.82" style="stop-color:rgb(89,233,222);stop-opacity:1"/><stop offset="1" style="stop-color:rgb(79,215,253);stop-opacity:1"/></linearGradient>
        <linearGradient id="_Linear11" x1="0" y1="0" x2="1" y2="0" gradientUnits="userSpaceOnUse" gradientTransform="matrix(6.6338,7.1233,-7.1233,6.6338,109.909,174.971)"><stop offset="0" style="stop-color:rgb(83,222,233);stop-opacity:1"/><stop offset="0.54" style="stop-color:rgb(99,252,144);stop-opacity:1"/><stop offset="0.62" style="stop-color:rgb(97,249,153);stop-opacity:1"/><stop offset="0.74" style="stop-color:rgb(93,241,178);stop-opacity:1"/><stop offset="0.88" style="stop-color:rgb(86,227,217);stop-opacity:1"/><stop offset="1" style="stop-color:rgb(79,215,253);stop-opacity:1"/></linearGradient>
        <radialGradient id="_Radial12" cx="0" cy="0" r="1" gradientUnits="userSpaceOnUse" gradientTransform="matrix(-5.10102,-5.88783,-7.86576,6.81409,115.766,176.209)"><stop offset="0" style="stop-color:rgb(83,222,233);stop-opacity:1"/><stop offset="0.54" style="stop-color:rgb(99,252,144);stop-opacity:1"/><stop offset="0.62" style="stop-color:rgb(97,249,153);stop-opacity:1"/><stop offset="0.74" style="stop-color:rgb(93,241,178);stop-opacity:1"/><stop offset="0.88" style="stop-color:rgb(86,227,217);stop-opacity:1"/><stop offset="1" style="stop-color:rgb(79,215,253);stop-opacity:1"/></radialGradient>
        <linearGradient id="_Linear13" x1="0" y1="0" x2="1" y2="0" gradientUnits="userSpaceOnUse" gradientTransform="matrix(-6.6336,7.1233,-7.1233,-6.6336,97.113,199.582)"><stop offset="0" style="stop-color:rgb(83,222,233);stop-opacity:1"/><stop offset="0.54" style="stop-color:rgb(99,252,144);stop-opacity:1"/><stop offset="0.62" style="stop-color:rgb(97,249,153);stop-opacity:1"/><stop offset="0.74" style="stop-color:rgb(93,241,178);stop-opacity:1"/><stop offset="0.88" style="stop-color:rgb(86,227,217);stop-opacity:1"/><stop offset="1" style="stop-color:rgb(79,215,253);stop-opacity:1"/></linearGradient>
        <radialGradient id="_Radial14" cx="0" cy="0" r="1" gradientUnits="userSpaceOnUse" gradientTransform="matrix(5.10102,-5.88783,7.86576,6.81409,91.0157,200.598)"><stop offset="0" style="stop-color:rgb(83,222,233);stop-opacity:1"/><stop offset="0.54" style="stop-color:rgb(99,252,144);stop-opacity:1"/><stop offset="0.62" style="stop-color:rgb(97,249,153);stop-opacity:1"/><stop offset="0.74" style="stop-color:rgb(93,241,178);stop-opacity:1"/><stop offset="0.88" style="stop-color:rgb(86,227,217);stop-opacity:1"/><stop offset="1" style="stop-color:rgb(79,215,253);stop-opacity:1"/></radialGradient>
        <linearGradient id="_Linear15" x1="0" y1="0" x2="1" y2="0" gradientUnits="userSpaceOnUse" gradientTransform="matrix(14.492,13.7764,-13.7764,14.492,88.4929,104.708)"><stop offset="0" style="stop-color:rgb(83,222,233);stop-opacity:1"/><stop offset="0.54" style="stop-color:rgb(99,252,144);stop-opacity:1"/><stop offset="0.62" style="stop-color:rgb(97,249,153);stop-opacity:1"/><stop offset="0.74" style="stop-color:rgb(93,241,178);stop-opacity:1"/><stop offset="0.88" style="stop-color:rgb(86,227,217);stop-opacity:1"/><stop offset="1" style="stop-color:rgb(79,215,253);stop-opacity:1"/></linearGradient>
        <linearGradient id="_Linear16" x1="0" y1="0" x2="1" y2="0" gradientUnits="userSpaceOnUse" gradientTransform="matrix(-16.4974,3.34047,-3.34047,-16.4974,123.3,110.68)"><stop offset="0" style="stop-color:rgb(83,222,233);stop-opacity:1"/><stop offset="0.54" style="stop-color:rgb(99,252,144);stop-opacity:1"/><stop offset="0.62" style="stop-color:rgb(97,249,153);stop-opacity:1"/><stop offset="0.74" style="stop-color:rgb(93,241,178);stop-opacity:1"/><stop offset="0.88" style="stop-color:rgb(86,227,217);stop-opacity:1"/><stop offset="1" style="stop-color:rgb(79,215,253);stop-opacity:1"/></linearGradient>
        <linearGradient id="_Linear17" x1="0" y1="0" x2="1" y2="0" gradientUnits="userSpaceOnUse" gradientTransform="matrix(-0.4843,13.6213,-13.6213,-0.4843,105.625,107.297)"><stop offset="0" style="stop-color:rgb(83,222,233);stop-opacity:1"/><stop offset="0.54" style="stop-color:rgb(99,252,188);stop-opacity:1"/><stop offset="0.65" style="stop-color:rgb(96,247,197);stop-opacity:1"/><stop offset="0.82" style="stop-color:rgb(89,233,222);stop-opacity:1"/><stop offset="1" style="stop-color:rgb(79,215,253);stop-opacity:1"/></linearGradient>
        <linearGradient id="_Linear18" x1="0" y1="0" x2="1" y2="0" gradientUnits="userSpaceOnUse" gradientTransform="matrix(7.24388,10.3941,-10.3941,7.24388,87.5371,149.816)"><stop offset="0" style="stop-color:rgb(83,222,233);stop-opacity:1"/><stop offset="0.54" style="stop-color:rgb(99,252,144);stop-opacity:1"/><stop offset="0.62" style="stop-color:rgb(97,249,153);stop-opacity:1"/><stop offset="0.74" style="stop-color:rgb(93,241,178);stop-opacity:1"/><stop offset="0.88" style="stop-color:rgb(86,227,217);stop-opacity:1"/><stop offset="1" style="stop-color:rgb(79,215,253);stop-opacity:1"/></linearGradient>
        <radialGradient id="_Radial19" cx="0" cy="0" r="1" gradientUnits="userSpaceOnUse" gradientTransform="matrix(-5.49443,-8.52098,-11.3833,7.33977,95.5747,152.472)"><stop offset="0" style="stop-color:rgb(83,222,233);stop-opacity:1"/><stop offset="0.54" style="stop-color:rgb(99,252,144);stop-opacity:1"/><stop offset="0.62" style="stop-color:rgb(97,249,153);stop-opacity:1"/><stop offset="0.74" style="stop-color:rgb(93,241,178);stop-opacity:1"/><stop offset="0.88" style="stop-color:rgb(86,227,217);stop-opacity:1"/><stop offset="1" style="stop-color:rgb(79,215,253);stop-opacity:1"/></radialGradient>
        <linearGradient id="_Linear20" x1="0" y1="0" x2="1" y2="0" gradientUnits="userSpaceOnUse" gradientTransform="matrix(8.6338,9.2712,-9.2712,8.6338,91.8081,90.0866)"><stop offset="0" style="stop-color:rgb(83,222,233);stop-opacity:1"/><stop offset="0.54" style="stop-color:rgb(99,252,144);stop-opacity:1"/><stop offset="0.62" style="stop-color:rgb(97,249,153);stop-opacity:1"/><stop offset="0.74" style="stop-color:rgb(93,241,178);stop-opacity:1"/><stop offset="0.88" style="stop-color:rgb(86,227,217);stop-opacity:1"/><stop offset="1" style="stop-color:rgb(79,215,253);stop-opacity:1"/></linearGradient>
        <radialGradient id="_Radial21" cx="0" cy="0" r="1" gradientUnits="userSpaceOnUse" gradientTransform="matrix(-6.63915,-7.66321,-10.2376,8.86876,99.5075,91.6254)"><stop offset="0" style="stop-color:rgb(83,222,233);stop-opacity:1"/><stop offset="0.54" style="stop-color:rgb(99,252,144);stop-opacity:1"/><stop offset="0.62" style="stop-color:rgb(97,249,153);stop-opacity:1"/><stop offset="0.74" style="stop-color:rgb(93,241,178);stop-opacity:1"/><stop offset="0.88" style="stop-color:rgb(86,227,217);stop-opacity:1"/><stop offset="1" style="stop-color:rgb(79,215,253);stop-opacity:1"/></radialGradient>
        <linearGradient id="_Linear22" x1="0" y1="0" x2="1" y2="0" gradientUnits="userSpaceOnUse" gradientTransform="matrix(-8.6338,9.2711,-9.2711,-8.6338,80.4684,77.6666)"><stop offset="0" style="stop-color:rgb(83,222,233);stop-opacity:1"/><stop offset="0.54" style="stop-color:rgb(99,252,144);stop-opacity:1"/><stop offset="0.62" style="stop-color:rgb(97,249,153);stop-opacity:1"/><stop offset="0.74" style="stop-color:rgb(93,241,178);stop-opacity:1"/><stop offset="0.88" style="stop-color:rgb(86,227,217);stop-opacity:1"/><stop offset="1" style="stop-color:rgb(79,215,253);stop-opacity:1"/></linearGradient>
        <radialGradient id="_Radial23" cx="0" cy="0" r="1" gradientUnits="userSpaceOnUse" gradientTransform="matrix(6.63915,-7.66321,10.2376,8.86876,72.5264,78.9807)"><stop offset="0" style="stop-color:rgb(83,222,233);stop-opacity:1"/><stop offset="0.54" style="stop-color:rgb(99,252,144);stop-opacity:1"/><stop offset="0.62" style="stop-color:rgb(97,249,153);stop-opacity:1"/><stop offset="0.74" style="stop-color:rgb(93,241,178);stop-opacity:1"/><stop offset="0.88" style="stop-color:rgb(86,227,217);stop-opacity:1"/><stop offset="1" style="stop-color:rgb(79,215,253);stop-opacity:1"/></radialGradient>
        <linearGradient id="_Linear24" x1="0" y1="0" x2="1" y2="0" gradientUnits="userSpaceOnUse" gradientTransform="matrix(-8.6338,9.2712,-9.2712,-8.6338,75.9793,127.063)"><stop offset="0" style="stop-color:rgb(83,222,233);stop-opacity:1"/><stop offset="0.54" style="stop-color:rgb(99,252,144);stop-opacity:1"/><stop offset="0.62" style="stop-color:rgb(97,249,153);stop-opacity:1"/><stop offset="0.74" style="stop-color:rgb(93,241,178);stop-opacity:1"/><stop offset="0.88" style="stop-color:rgb(86,227,217);stop-opacity:1"/><stop offset="1" style="stop-color:rgb(79,215,253);stop-opacity:1"/></linearGradient>
        <radialGradient id="_Radial25" cx="0" cy="0" r="1" gradientUnits="userSpaceOnUse" gradientTransform="matrix(6.63915,-7.66321,10.2376,8.86876,68.0381,128.379)"><stop offset="0" style="stop-color:rgb(83,222,233);stop-opacity:1"/><stop offset="0.54" style="stop-color:rgb(99,252,144);stop-opacity:1"/><stop offset="0.62" style="stop-color:rgb(97,249,153);stop-opacity:1"/><stop offset="0.74" style="stop-color:rgb(93,241,178);stop-opacity:1"/><stop offset="0.88" style="stop-color:rgb(86,227,217);stop-opacity:1"/><stop offset="1" style="stop-color:rgb(79,215,253);stop-opacity:1"/></radialGradient>
        <linearGradient id="_Linear26" x1="0" y1="0" x2="1" y2="0" gradientUnits="userSpaceOnUse" gradientTransform="matrix(22.2427,16.9286,-16.9286,22.2427,66.7871,39.485)"><stop offset="0" style="stop-color:rgb(83,222,233);stop-opacity:1"/><stop offset="0.54" style="stop-color:rgb(99,252,144);stop-opacity:1"/><stop offset="0.62" style="stop-color:rgb(97,249,153);stop-opacity:1"/><stop offset="0.74" style="stop-color:rgb(93,241,178);stop-opacity:1"/><stop offset="0.88" style="stop-color:rgb(86,227,217);stop-opacity:1"/><stop offset="1" style="stop-color:rgb(79,215,253);stop-opacity:1"/></linearGradient>
        <linearGradient id="_Linear27" x1="0" y1="0" x2="1" y2="0" gradientUnits="userSpaceOnUse" gradientTransform="matrix(-21.1506,4.28247,-4.28247,-21.1506,110.953,47.7488)"><stop offset="0" style="stop-color:rgb(83,222,233);stop-opacity:1"/><stop offset="0.54" style="stop-color:rgb(99,252,144);stop-opacity:1"/><stop offset="0.62" style="stop-color:rgb(97,249,153);stop-opacity:1"/><stop offset="0.74" style="stop-color:rgb(93,241,178);stop-opacity:1"/><stop offset="0.88" style="stop-color:rgb(86,227,217);stop-opacity:1"/><stop offset="1" style="stop-color:rgb(79,215,253);stop-opacity:1"/></linearGradient>
        <linearGradient id="_Linear28" x1="0" y1="0" x2="1" y2="0" gradientUnits="userSpaceOnUse" gradientTransform="matrix(-0.6304,17.7285,-17.7285,-0.6304,89.4236,44.4831)"><stop offset="0" style="stop-color:rgb(83,222,233);stop-opacity:1"/><stop offset="0.54" style="stop-color:rgb(99,252,188);stop-opacity:1"/><stop offset="0.65" style="stop-color:rgb(96,247,197);stop-opacity:1"/><stop offset="0.82" style="stop-color:rgb(89,233,222);stop-opacity:1"/><stop offset="1" style="stop-color:rgb(79,215,253);stop-opacity:1"/></linearGradient>
        <linearGradient id="_Linear29" x1="0" y1="0" x2="1" y2="0" gradientUnits="userSpaceOnUse" gradientTransform="matrix(6.7387,7.2361,-7.2361,6.7387,65.624,177.315)"><stop offset="0" style="stop-color:rgb(83,222,233);stop-opacity:1"/><stop offset="0.54" style="stop-color:rgb(99,252,144);stop-opacity:1"/><stop offset="0.62" style="stop-color:rgb(97,249,153);stop-opacity:1"/><stop offset="0.74" style="stop-color:rgb(93,241,178);stop-opacity:1"/><stop offset="0.88" style="stop-color:rgb(86,227,217);stop-opacity:1"/><stop offset="1" style="stop-color:rgb(79,215,253);stop-opacity:1"/></linearGradient>
        <radialGradient id="_Radial30" cx="0" cy="0" r="1" gradientUnits="userSpaceOnUse" gradientTransform="matrix(-5.18183,-5.9811,-7.99036,6.92203,71.5795,178.568)"><stop offset="0" style="stop-color:rgb(83,222,233);stop-opacity:1"/><stop offset="0.54" style="stop-color:rgb(99,252,144);stop-opacity:1"/><stop offset="0.62" style="stop-color:rgb(97,249,153);stop-opacity:1"/><stop offset="0.74" style="stop-color:rgb(93,241,178);stop-opacity:1"/><stop offset="0.88" style="stop-color:rgb(86,227,217);stop-opacity:1"/><stop offset="1" style="stop-color:rgb(79,215,253);stop-opacity:1"/></radialGradient>
        <linearGradient id="_Linear31" x1="0" y1="0" x2="1" y2="0" gradientUnits="userSpaceOnUse" gradientTransform="matrix(5.853,6.2851,-6.2851,5.853,64.5268,150.218)"><stop offset="0" style="stop-color:rgb(83,222,233);stop-opacity:1"/><stop offset="0.54" style="stop-color:rgb(99,252,144);stop-opacity:1"/><stop offset="0.62" style="stop-color:rgb(97,249,153);stop-opacity:1"/><stop offset="0.74" style="stop-color:rgb(93,241,178);stop-opacity:1"/><stop offset="0.88" style="stop-color:rgb(86,227,217);stop-opacity:1"/><stop offset="1" style="stop-color:rgb(79,215,253);stop-opacity:1"/></linearGradient>
        <radialGradient id="_Radial32" cx="0" cy="0" r="1" gradientUnits="userSpaceOnUse" gradientTransform="matrix(-4.50077,-5.19499,-6.94017,6.01225,69.6674,151.336)"><stop offset="0" style="stop-color:rgb(83,222,233);stop-opacity:1"/><stop offset="0.54" style="stop-color:rgb(99,252,144);stop-opacity:1"/><stop offset="0.62" style="stop-color:rgb(97,249,153);stop-opacity:1"/><stop offset="0.74" style="stop-color:rgb(93,241,178);stop-opacity:1"/><stop offset="0.88" style="stop-color:rgb(86,227,217);stop-opacity:1"/><stop offset="1" style="stop-color:rgb(79,215,253);stop-opacity:1"/></radialGradient>
        <linearGradient id="_Linear33" x1="0" y1="0" x2="1" y2="0" gradientUnits="userSpaceOnUse" gradientTransform="matrix(-6.13084,8.79704,-8.79704,-6.13084,53.6991,163.111)"><stop offset="0" style="stop-color:rgb(83,222,233);stop-opacity:1"/><stop offset="0.54" style="stop-color:rgb(99,252,144);stop-opacity:1"/><stop offset="0.62" style="stop-color:rgb(97,249,153);stop-opacity:1"/><stop offset="0.74" style="stop-color:rgb(93,241,178);stop-opacity:1"/><stop offset="0.88" style="stop-color:rgb(86,227,217);stop-opacity:1"/><stop offset="1" style="stop-color:rgb(79,215,253);stop-opacity:1"/></linearGradient>
        <radialGradient id="_Radial34" cx="0" cy="0" r="1" gradientUnits="userSpaceOnUse" gradientTransform="matrix(4.65015,-7.21164,9.63411,6.21193,47.1822,165.175)"><stop offset="0" style="stop-color:rgb(83,222,233);stop-opacity:1"/><stop offset="0.54" style="stop-color:rgb(99,252,144);stop-opacity:1"/><stop offset="0.62" style="stop-color:rgb(97,249,153);stop-opacity:1"/><stop offset="0.74" style="stop-color:rgb(93,241,178);stop-opacity:1"/><stop offset="0.88" style="stop-color:rgb(86,227,217);stop-opacity:1"/><stop offset="1" style="stop-color:rgb(79,215,253);stop-opacity:1"/></radialGradient>
        <linearGradient id="_Linear35" x1="0" y1="0" x2="1" y2="0" gradientUnits="userSpaceOnUse" gradientTransform="matrix(-14.051,13.3573,-13.3573,-14.051,67.9945,109.035)"><stop offset="0" style="stop-color:rgb(83,222,233);stop-opacity:1"/><stop offset="0.54" style="stop-color:rgb(99,252,144);stop-opacity:1"/><stop offset="0.62" style="stop-color:rgb(97,249,153);stop-opacity:1"/><stop offset="0.74" style="stop-color:rgb(93,241,178);stop-opacity:1"/><stop offset="0.88" style="stop-color:rgb(86,227,217);stop-opacity:1"/><stop offset="1" style="stop-color:rgb(79,215,253);stop-opacity:1"/></linearGradient>
        <linearGradient id="_Linear36" x1="0" y1="0" x2="1" y2="0" gradientUnits="userSpaceOnUse" gradientTransform="matrix(16.5079,3.34252,-3.34252,16.5079,35.9827,115.625)"><stop offset="0" style="stop-color:rgb(83,222,233);stop-opacity:1"/><stop offset="0.54" style="stop-color:rgb(99,252,144);stop-opacity:1"/><stop offset="0.62" style="stop-color:rgb(97,249,153);stop-opacity:1"/><stop offset="0.74" style="stop-color:rgb(93,241,178);stop-opacity:1"/><stop offset="0.88" style="stop-color:rgb(86,227,217);stop-opacity:1"/><stop offset="1" style="stop-color:rgb(79,215,253);stop-opacity:1"/></linearGradient>
        <linearGradient id="_Linear37" x1="0" y1="0" x2="1" y2="0" gradientUnits="userSpaceOnUse" gradientTransform="matrix(0.4917,13.837,-13.837,0.4917,53.4033,112.348)"><stop offset="0" style="stop-color:rgb(83,222,233);stop-opacity:1"/><stop offset="0.54" style="stop-color:rgb(99,252,188);stop-opacity:1"/><stop offset="0.65" style="stop-color:rgb(96,247,197);stop-opacity:1"/><stop offset="0.82" style="stop-color:rgb(89,233,222);stop-opacity:1"/><stop offset="1" style="stop-color:rgb(79,215,253);stop-opacity:1"/></linearGradient>
    </defs>
</svg>
