<svg viewBox="0 0 500 500" xmlns="http://www.w3.org/2000/svg" id="图层_1"><defs><style>.cls-1{fill:#8e6547;}.cls-2{fill:#df2936;}.cls-3{fill:#809942;}.cls-4{fill:none;}</style></defs><title>未标题-1</title><path d="M247.77,332.93a2.71,2.71,0,0,1-1.3-.34,2.64,2.64,0,0,1-1.3-1.61,2.72,2.72,0,0,1,.23-2.07,1.51,1.51,0,0,1,.12-.2c1.32-2,2.76-4,4.51-6.38s3.3-4.35,4.79-6.15a81.48,81.48,0,0,1,10.91-11.24,1.4,1.4,0,0,1,1.86,2.1,77,77,0,0,0-9.5,11.62c-1.29,1.87-2.6,3.89-4.12,6.34s-2.74,4.55-3.81,6.51A2.74,2.74,0,0,1,247.77,332.93Z" class="cls-1"></path><path d="M269.2,305a2.74,2.74,0,0,0-.49-.79,2.78,2.78,0,0,0-1.73-.93l-.37,0h-.07a2.8,2.8,0,0,0-1.7.62l-.14.12c-.84.69-1.65,1.4-2.44,2.13,0,0,0,0,0,0a81.51,81.51,0,0,0-6.71,7c-.64.75-1.25,1.47-1.81,2.15l-.34.41c-.73.89-1.46,1.81-2.22,2.8s-1.48,1.92-2.28,3l-.67.91c-.89,1.22-1.69,2.35-2.45,3.43-.49.72-1,1.42-1.43,2.11a2.29,2.29,0,0,0-.18.29,4.07,4.07,0,0,0-.17,3.61,3.94,3.94,0,0,0,1,1.43,3.43,3.43,0,0,0,.76.55,3.14,3.14,0,0,0,.81.33,3.86,3.86,0,0,0,1.17.18,1.06,1.06,0,0,0,.25,0,3.66,3.66,0,0,0,1.59-.43,4,4,0,0,0,1.77-1.68c1.08-2,2.32-4.08,3.78-6.46s2.8-4.43,4.09-6.29c1.51-2.18,3.23-4.57,5.19-6.93.47-.56.95-1.13,1.44-1.69s1.07-1.17,1.64-1.74c.33-.35.68-.7,1-1A2.79,2.79,0,0,0,269.2,305Zm-17,20.33c-1,1.66-2,3.34-2.94,5l-.29.52h0a1.32,1.32,0,0,1-1.15.68,1.49,1.49,0,0,1-.36,0,1.53,1.53,0,0,1-.27-.11,1.32,1.32,0,0,1-.52-1.78l.06-.1c.76-1.13,1.52-2.24,2.3-3.33s1.44-2,2.17-3l.26-.34c.76-1,1.52-2,2.31-3s1.44-1.83,2.18-2.73c1.73-2.09,3.51-4.15,5.39-6.1.37-.39.75-.77,1.13-1.14.72-.72,1.45-1.42,2.21-2.09s1.31-1.16,2-1.71c-.77.74-1.51,1.5-2.22,2.29s-1.24,1.37-1.82,2.08h0l-.93,1.13c-1.65,2.05-3.2,4.18-4.69,6.33s-2.82,4.24-4.16,6.41C252.57,324.61,252.36,325,252.16,325.29Zm14.38-22.06a2.8,2.8,0,0,0-1.7.62l-.14.12c-.84.69-1.65,1.4-2.44,2.13,0,0,0,0,0,0a81.51,81.51,0,0,0-6.71,7c-.64.75-1.25,1.47-1.81,2.15l-.34.41c-.73.89-1.46,1.81-2.22,2.8-.35,1.22-.69,2.45-1.05,3.68s-.76,2.65-1.15,4c.71-1,1.44-2,2.17-3l.26-.34c.76-1,1.52-2,2.31-3s1.44-1.83,2.18-2.73c1.73-2.09,3.51-4.15,5.39-6.1.37-.39.75-.77,1.13-1.14.72-.72,1.45-1.42,2.21-2.09.31-.76.71-1.73,1.2-2.87l-.1.07-.11.1c.1-.14.21-.29.33-.44C266.13,304.17,266.33,303.71,266.54,303.23Z"></path><path d="M221,407.54a2.74,2.74,0,0,1-2.68-2.3,1,1,0,0,0,0-.17,42.46,42.46,0,0,0-1.69-8.62,72.71,72.71,0,0,0-3.22-8.39c-1.18-2.59-2.55-5.25-4.18-8.1s-3.28-5.46-4.88-7.74a1.4,1.4,0,0,1,.3-1.92,1.35,1.35,0,0,1,.85-.29,1.39,1.39,0,0,1,1.08.52c1.82,2.23,3.64,4.72,5.59,7.61s3.49,5.47,4.92,8.09a77.63,77.63,0,0,1,4,8.68,48.13,48.13,0,0,1,2.57,9.51,2.71,2.71,0,0,1-2.69,3.12Z" class="cls-1"></path><path d="M225.1,404.32a.41.41,0,0,0,0-.11c-.13-.83-.28-1.68-.47-2.53s-.36-1.59-.58-2.4c-.12-.43-.25-.86-.38-1.3s-.28-.9-.44-1.36a.29.29,0,0,0,0-.09c-.14-.43-.29-.86-.45-1.3l-.27-.74,0-.05c-.24-.62-.49-1.24-.76-1.87-.93-2.22-2-4.52-3.37-7-1.45-2.67-3.08-5.35-5-8.21-1.37-2-2.68-3.88-4-5.57-.51-.68-1-1.33-1.53-2l-.15-.19a2.66,2.66,0,0,0-1-.76,1.58,1.58,0,0,0-.34-.13,2.36,2.36,0,0,0-.78-.13h-.08l-.31,0a2.64,2.64,0,0,0-1.37.55,2.78,2.78,0,0,0-1,3,3.12,3.12,0,0,0,.39.8l.39.57a.61.61,0,0,1,.07.1c.32.46.64.93,1,1.41s.6.92.91,1.4c.81,1.29,1.64,2.67,2.5,4.16,1.6,2.81,2.95,5.43,4.12,8a71.53,71.53,0,0,1,3.16,8.23c.33,1.12.61,2.2.84,3.25.12.53.23,1.06.32,1.57s.18,1,.25,1.55.15,1.19.2,1.77c0,0,0,.07,0,.11v.05c0,.09,0,.18,0,.28a3.91,3.91,0,0,0,.64,1.65,4,4,0,0,0,1.07,1.09,4.1,4.1,0,0,0,2.35.74,4.21,4.21,0,0,0,.62-.05l.19,0a4,4,0,0,0,1.86-.89,3.94,3.94,0,0,0,.65-.7A4,4,0,0,0,225.1,404.32Zm-2.78.31a1.3,1.3,0,0,1-.9,1.44l-.2.05-.2,0a1.28,1.28,0,0,1-1.21-.85.92.92,0,0,1-.08-.27s0,0,0-.08v0q-.1-1.23-.3-2.46c0-.41-.12-.81-.2-1.22s-.18-1-.28-1.43c0,0,0,0,0-.05-.11-.5-.23-1-.35-1.51-.19-.73-.39-1.46-.6-2.18a75.59,75.59,0,0,0-3.29-8.57c-1.28-2.8-2.71-5.53-4.24-8.22-.66-1.15-1.34-2.3-2-3.43-.25-.4-.5-.8-.76-1.2h0c-.35-.53-.69-1.06-1.05-1.59s-.72-1.08-1.1-1.62c.37.46.74.92,1.09,1.39s.83,1.07,1.22,1.61h0c.29.38.57.77.85,1.17.8,1.1,1.57,2.21,2.33,3.34,1.73,2.58,3.37,5.23,4.86,8a75.08,75.08,0,0,1,4,8.52c.13.35.26.71.38,1.06a3.66,3.66,0,0,1,.15.43c.16.47.32.94.46,1.41,0,.09.06.18.09.27.11.37.22.74.32,1.11s.22.76.31,1.14c.27,1,.5,2.1.68,3.18C222.26,404.22,222.29,404.42,222.32,404.63Z"></path><path d="M265.22,148.57a2.35,2.35,0,0,1-2.24-1.68,2.33,2.33,0,0,1,.2-1.77l2.81-4.65,2.69-4.58c1.56-2.72,3.4-6,5.16-9.26s3.44-6.54,4.84-9.44,3-6.31,4.31-9.64a1.39,1.39,0,0,1,1.3-.89,1.36,1.36,0,0,1,.48.09,1.41,1.41,0,0,1,.85,1.77c-1.2,3.48-2.61,6.88-4,10-1.29,3-2.76,6.18-4.48,9.77s-3.37,6.79-4.82,9.59l-2.51,4.74-2.58,4.71A2.32,2.32,0,0,1,265.22,148.57Z" class="cls-1"></path><path d="M286.71,106.67a2.75,2.75,0,0,0-2.42-1.41,2.84,2.84,0,0,0-1.87.71,2.78,2.78,0,0,0-.74,1.07l-.14.36c-.21.52-.42,1-.64,1.55-1.1,2.63-2.31,5.21-3.48,7.64-1.39,2.86-3,5.93-4.81,9.38-1.72,3.22-3.51,6.37-5,9a2.12,2.12,0,0,0-.12.2l-1,1.76-1.17,2-.49.84-1,1.74-1.18,1.94-.51.85-.08.14a3.72,3.72,0,0,0-.43,2.22.45.45,0,0,0,0,.11,3.69,3.69,0,0,0,1.69,2.61,1.37,1.37,0,0,0,.2.13,3.59,3.59,0,0,0,1.27.42,3,3,0,0,0,.52,0,3.6,3.6,0,0,0,1.35-.26,3.51,3.51,0,0,0,1.32-.86,3.8,3.8,0,0,0,.61-.82l.59-1.07,2-3.62,2.52-4.76c1.48-2.85,3.2-6.2,4.85-9.66s3.21-6.81,4.51-9.81c1.18-2.75,2.41-5.68,3.49-8.69.18-.48.34-1,.51-1.45a2.27,2.27,0,0,0,.14-.76A2.58,2.58,0,0,0,286.71,106.67Zm-18.2,35.49-1.16,2.12-1.16,2.12h0l-.16.28a1,1,0,0,1-.82.48.88.88,0,0,1-.44-.12.92.92,0,0,1-.37-1.25s0,0,0,0h0l1.4-2.32,1.18-1.94.18-.3,1-1.67,1.72-2.92c1.77-3.08,3.52-6.17,5.19-9.31s3.31-6.29,4.86-9.49c1.13-2.35,2.25-4.71,3.28-7.12.18-.43.36-.87.53-1.31s.37-.87.54-1.31q-.23.66-.48,1.32c-.15.45-.31.89-.48,1.33-.92,2.46-1.93,4.88-3,7.29-1.41,3.27-2.91,6.5-4.46,9.71s-3.16,6.39-4.8,9.56L268.6,142Z"></path><path d="M305.88,177.84a2.32,2.32,0,0,1-1.14-4.35l.1-.06,3-1.47,1.09-.46,2-.85,2.15-.76,1-.36L316,169c.47-.14.93-.28,1.4-.4l.72-.17c1.18-.29,2.41-.59,3.65-.81a73.43,73.43,0,0,1,8.77-1.14c1.68-.11,3.31-.17,4.84-.17s2.73.05,4,.14a1.4,1.4,0,0,1-.1,2.8h-.88a62.52,62.52,0,0,0-7.57.49,68.08,68.08,0,0,0-8.3,1.54c-1.13.26-2.26.6-3.36.93l-.71.21-1.22.42-1.75.62-2.89,1.2-2.8,1.36-2.71,1.52A2.33,2.33,0,0,1,305.88,177.84Z" class="cls-1"></path><path d="M339.8,165.08a1.86,1.86,0,0,0-.34-.05c-.49,0-1-.07-1.48-.08s-1.08,0-1.63,0h-1c-1.56,0-3.22.05-4.92.17a73.28,73.28,0,0,0-9,1.17c-1.24.22-2.49.52-3.7.82l-.68.16-.05,0c-.49.12-1,.27-1.45.41l-.63.18-.09,0-1.06.31-.14,0-1,.36h0l-2,.73-.15.06-.34.14-1.35.56-.33.14-1,.44-.15.07-1,.48-.49.24-1.49.74-.17.09a3.73,3.73,0,0,0-1.9,3.3,3.52,3.52,0,0,0,.42,1.65.42.42,0,0,0,.06.14,3.75,3.75,0,0,0,1.56,1.49,3.53,3.53,0,0,0,1.5.4h.19a3.69,3.69,0,0,0,1.83-.49l.06,0,1.84-1,.86-.48.88-.43,1.84-.89,1.9-.79.91-.37.95-.34.73-.25,1.19-.41.67-.2c1.13-.34,2.19-.66,3.27-.91A67.39,67.39,0,0,1,331,171.1c1.63-.2,3.17-.33,4.65-.41l1.48-.05,1.27,0h.88a2.8,2.8,0,0,0,.54-5.55Zm-1.55,2.74-1.41,0c-.48,0-.95,0-1.42.06-1.6.08-3.2.23-4.78.42a69,69,0,0,0-8.47,1.57c-1.39.32-2.76.75-4.13,1.16-.68.22-1.35.47-2,.7l-1,.36-1,.4-2,.82-1.92.93-.51.24-.45.22-.92.53-1.85,1-.06,0h0a.77.77,0,0,1-.41.11.92.92,0,0,1-.81-.47.58.58,0,0,1-.09-.25.92.92,0,0,1,.44-1l.05,0,.61-.3,1.36-.68,1-.49.64-.27.37-.16,2-.85.3-.11,1.77-.62,1-.36,1.05-.31c.7-.2,1.39-.42,2.1-.6,1.41-.34,2.82-.7,4.25-1a70,70,0,0,1,8.63-1.12c1.57-.11,3.15-.17,4.73-.17h.11l1.41,0q.7,0,1.41.06l1,0Z"></path><path d="M293.42,189.44a2.34,2.34,0,0,1-2.23-1.69,2.32,2.32,0,0,1,.2-1.77,39.56,39.56,0,0,0,3.31-7.29,63.86,63.86,0,0,0,2.16-7.83,122.05,122.05,0,0,0,2.24-16.38c.38-5.3.53-10.9.47-16.65-.08-6-.34-11.5-.8-16.67a1.4,1.4,0,0,1,1.25-1.52h.15a1.4,1.4,0,0,1,1.39,1.24c.61,5.24,1,10.76,1.27,16.88.23,5.83.23,11.54,0,16.95a124.76,124.76,0,0,1-1.85,17,70.66,70.66,0,0,1-2.07,8.41,44.4,44.4,0,0,1-3.44,8.16A2.34,2.34,0,0,1,293.42,189.44Z" class="cls-1"></path><path d="M304.23,137.69c-.21-5.21-.54-10-1-14.52-.08-.72-.15-1.44-.24-2.15l0-.31a2.79,2.79,0,0,0-2.78-2.48h-.29a2.8,2.8,0,0,0-2.52,2.86,1.09,1.09,0,0,0,0,.18c.08.89.15,1.78.22,2.69.32,4.34.51,8.91.57,13.88.07,5.7-.09,11.26-.46,16.53a119.11,119.11,0,0,1-2.21,16.18,63.21,63.21,0,0,1-2.12,7.68,37.12,37.12,0,0,1-3.15,7,.33.33,0,0,1,0,.06,3.79,3.79,0,0,0-.5,1.86,3.53,3.53,0,0,0,.15,1,3.32,3.32,0,0,0,.24.62,3.59,3.59,0,0,0,.84,1.13,3.37,3.37,0,0,0,.68.49,1.76,1.76,0,0,0,.37.17,3.66,3.66,0,0,0,1.45.3h.2a3.72,3.72,0,0,0,3.06-1.9c.59-1.06,1.14-2.17,1.66-3.36s1-2.46,1.48-3.81c.14-.41.28-.83.41-1.25s.21-.68.3-1c.31-1,.59-2,.85-3.05s.45-1.9.64-2.85c.12-.56.23-1.11.33-1.67a126.71,126.71,0,0,0,1.87-17.15C304.46,149.31,304.46,143.56,304.23,137.69ZM298,178.1c-.15.53-.31,1.05-.47,1.57s-.36,1.09-.55,1.64c-.43,1.23-.92,2.45-1.47,3.65-.4.88-.83,1.75-1.31,2.6a.91.91,0,0,1-.81.48,1,1,0,0,1-.45-.12l-.11-.08a.92.92,0,0,1-.24-1.18v0h0c.29-.48.56-1,.82-1.45a39.07,39.07,0,0,0,1.84-4.06c.26-.65.5-1.31.73-2a66.16,66.16,0,0,0,2.21-8,121.12,121.12,0,0,0,2.26-16.57c.4-5.57.54-11.17.48-16.77-.05-4.31-.21-8.64-.51-13,0-.47-.06-.93-.1-1.4s-.06-.94-.11-1.42-.05-.67-.08-1c0,.33.08.67.11,1l.15,1.42c.05.47.1.93.14,1.4.41,4.31.68,8.63.86,13,.22,5.61.23,11.22,0,16.84a124.76,124.76,0,0,1-1.82,16.78C299.19,173.67,298.66,175.9,298,178.1Z"></path><path d="M266.86,164.18a2.29,2.29,0,0,1-1.85-.91,1.53,1.53,0,0,1-.11-.16,43.09,43.09,0,0,0-3.55-4.63,57.17,57.17,0,0,0-4.09-4.29,58,58,0,0,0-4.5-3.9c-1.65-1.32-3.4-2.51-4.89-3.49a1.41,1.41,0,0,1,.77-2.58,1.38,1.38,0,0,1,.68.18c1.63.9,3.53,2,5.36,3.25a66.75,66.75,0,0,1,9.74,8,47.42,47.42,0,0,1,4.28,4.82,2.26,2.26,0,0,1,.46,1.72,2.32,2.32,0,0,1-2.3,2Z" class="cls-1"></path><path d="M270.54,161.36a.2.2,0,0,0,0-.11,3.83,3.83,0,0,0-.71-1.66c-.31-.4-.62-.79-.95-1.19-.49-.59-1-1.19-1.58-1.81h0c-.57-.62-1.19-1.26-1.87-1.94l-.26-.25c-.53-.52-1-1-1.55-1.49s-1-.94-1.55-1.38-1-.83-1.45-1.22a64.09,64.09,0,0,0-5.15-3.82c-1.1-.75-2.22-1.45-3.29-2.07l-1.44-.83-.72-.4a2.65,2.65,0,0,0-.84-.3,2.31,2.31,0,0,0-.52-.06,2.8,2.8,0,0,0-2.4,1.35,2.77,2.77,0,0,0-.35,2,2.74,2.74,0,0,0,.72,1.4,2.47,2.47,0,0,0,.49.42l1.17.78c1.16.79,2.41,1.68,3.59,2.63l0,0a57.13,57.13,0,0,1,4.4,3.81c1.3,1.23,2.61,2.6,4,4.19,1.12,1.3,2.05,2.49,2.83,3.6.2.29.4.57.58.85,0,0,0,0,0,.05l.16.22a3.31,3.31,0,0,0,.79.75,3.41,3.41,0,0,0,1.46.63,2.81,2.81,0,0,0,.71.08,3.84,3.84,0,0,0,1.21-.2,3.63,3.63,0,0,0,1.06-.57,3.47,3.47,0,0,0,.29-.25,3.63,3.63,0,0,0,1.14-2.22,3.26,3.26,0,0,0,0-.62C270.57,161.6,270.56,161.48,270.54,161.36Zm-3.12,1.23a.92.92,0,0,1-1.3-.18.1.1,0,0,1,0,0l0,0-.2-.3c-.49-.74-1-1.48-1.6-2.2s-1-1.31-1.58-1.94l-.27-.32a59.78,59.78,0,0,0-4.19-4.39c-1.47-1.39-3-2.74-4.6-4-.84-.67-1.71-1.32-2.6-1.93-.38-.28-.76-.55-1.15-.81l-1.23-.82,1.3.74,1.23.72c.92.55,1.83,1.12,2.72,1.73a60.28,60.28,0,0,1,4.95,3.67q1.88,1.52,3.63,3.21l1,.93.59.59c.53.55,1.06,1.11,1.57,1.68.69.76,1.36,1.55,2,2.4a.89.89,0,0,1,.16.34.67.67,0,0,1,0,.28A.93.93,0,0,1,267.42,162.59Z"></path><path d="M212.53,194.09a1.44,1.44,0,0,1-.91-.33,1.4,1.4,0,0,1-.17-2,25,25,0,0,1,4.93-4.47,34.44,34.44,0,0,1,5.71-3.26,40.76,40.76,0,0,1,12.65-3.36,46.75,46.75,0,0,1,5.25-.28,60.87,60.87,0,0,1,7.75.52,73.21,73.21,0,0,1,12.63,2.85,2.32,2.32,0,0,1-.69,4.54,2.37,2.37,0,0,1-.7-.1l-.13-.05a68.48,68.48,0,0,0-11.73-3.09,54,54,0,0,0-8.91-.79c-1.06,0-2.12,0-3.14.11a37.47,37.47,0,0,0-11.69,2.65,31,31,0,0,0-5.29,2.76,22.39,22.39,0,0,0-4.51,3.79A1.39,1.39,0,0,1,212.53,194.09Z" class="cls-1"></path><path d="M260.79,182.46l-1-.29c-.84-.26-1.67-.5-2.5-.72l-2.14-.54c-.76-.18-1.51-.35-2.26-.5s-1.57-.32-2.35-.45-1.78-.29-2.65-.4A62,62,0,0,0,240,179a47.58,47.58,0,0,0-5.41.3,42.25,42.25,0,0,0-7.65,1.49c-.57.16-1.14.34-1.7.53s-1,.34-1.48.53c-.75.28-1.49.59-2.22.92a35.22,35.22,0,0,0-6,3.4l-.61.45c-.79.58-1.51,1.17-2.18,1.77l-.47.43c-.46.44-.9.88-1.3,1.33-.22.24-.44.49-.64.74a2.62,2.62,0,0,0-.51.94,2.79,2.79,0,0,0,2.68,3.64l.34,0a2.76,2.76,0,0,0,1.54-.7l.22-.22a14.19,14.19,0,0,1,1.16-1.17s0,0,.05,0h0a20.58,20.58,0,0,1,2.14-1.72l.88-.6c.52-.35,1.07-.68,1.63-1,.38-.22.77-.43,1.18-.63.72-.37,1.47-.71,2.25-1a35.08,35.08,0,0,1,5.41-1.7c.52-.12,1-.22,1.58-.32s1.18-.2,1.79-.27c.81-.12,1.62-.2,2.45-.25,1-.07,2-.11,3.06-.11a52.48,52.48,0,0,1,8.69.77,68.56,68.56,0,0,1,11.45,3l.08,0,.13,0a3.59,3.59,0,0,0,1.12.18,3.19,3.19,0,0,0,.54,0,3.62,3.62,0,0,0,1.38-.49,3.69,3.69,0,0,0,1.13-1.06,3.81,3.81,0,0,0,.51-1,4.52,4.52,0,0,0,.11-.47A3.73,3.73,0,0,0,260.79,182.46Zm-3,3.9c-.79-.26-1.59-.52-2.39-.75a67.54,67.54,0,0,0-8.07-1.9,56.06,56.06,0,0,0-9.15-.8c-1.08,0-2.16,0-3.25.12a38.46,38.46,0,0,0-4.79.6c-.59.11-1.18.24-1.76.37s-1,.26-1.55.41a35.69,35.69,0,0,0-4,1.36l-1.14.49-.16.07a31.07,31.07,0,0,0-4.23,2.33c-.27.18-.53.35-.79.54-.55.38-1.09.79-1.61,1.22l-.6.51a6.14,6.14,0,0,0-.47.42,14.15,14.15,0,0,0-1,1c-.1.1-.19.21-.29.32l.28-.33c.32-.37.65-.73,1-1.07.15-.15.3-.3.46-.44s.37-.36.57-.53c.51-.45,1-.88,1.59-1.29.25-.19.5-.38.76-.56a32,32,0,0,1,4.48-2.65h0l1-.47a36.43,36.43,0,0,1,3.64-1.4c.49-.18,1-.33,1.5-.47s1.13-.32,1.7-.44a39.16,39.16,0,0,1,5.37-.93,45.86,45.86,0,0,1,5.1-.27,59.94,59.94,0,0,1,7.58.51q3.06.41,6.06,1.09c.76.17,1.53.35,2.28.55s1.58.41,2.36.64c.57.17,1.13.33,1.69.51a.93.93,0,0,1,.61,1.16.9.9,0,0,1-.63.61.73.73,0,0,1-.25,0,.9.9,0,0,1-.28,0h0Zm-1.76,0-.63-.76a67.54,67.54,0,0,0-8.07-1.9,56.06,56.06,0,0,0-9.15-.8c-1.08,0-2.16,0-3.25.12a38.46,38.46,0,0,0-4.79.6c-.59.11-1.18.24-1.76.37s-1,.26-1.55.41a35.69,35.69,0,0,0-4,1.36l-1.14.49-.16.07a31.07,31.07,0,0,0-4.23,2.33c-.27.18-.53.35-.79.54l.73,1.2.83-.57a27,27,0,0,1,3-1.71,5.38,5.38,0,0,1,.64-.31c.53-.27,1.09-.51,1.65-.74a34.88,34.88,0,0,1,4.73-1.55c.41.37.82.75,1.22,1.14.52-.12,1-.22,1.58-.32s1.18-.2,1.79-.27c-.42-.42-.83-.84-1.25-1.24,1.19-.19,2.39-.33,3.62-.41,1-.07,2.08-.11,3.14-.11a54.07,54.07,0,0,1,8.91.79,66.7,66.7,0,0,1,9.82,2.44C256.65,187.14,256.36,186.74,256.06,186.37Z"></path><path d="M268.09,215.82a2.32,2.32,0,0,1-2.33-2.4,2.28,2.28,0,0,1,.74-1.62l0,0c5.41-4.87,11.06-10.29,17.27-16.55,5.57-5.62,11.09-11.5,16.41-17.45,5.07-5.7,10.22-11.89,15.31-18.4s9.56-13.08,13.64-19.61a1.38,1.38,0,0,1,1.19-.66,1.51,1.51,0,0,1,.73.2,1.42,1.42,0,0,1,.47,1.92c-4,6.7-8.52,13.47-13.43,20.12s-10.08,13-15.11,18.88c-5.24,6.11-10.7,12.14-16.2,17.92-6.16,6.46-11.77,12-17.14,17.07A2.35,2.35,0,0,1,268.09,215.82Z" class="cls-1"></path><path d="M331.81,138.1a2.75,2.75,0,0,0-1.45-.41h-.25a2.64,2.64,0,0,0-.95.26,1.53,1.53,0,0,0-.37.21,2.69,2.69,0,0,0-.8.81l0,0-.25.4c-.25.4-.5.8-.76,1.2-3.79,6-8,12-12.55,17.9-4.11,5.26-8.26,10.32-12.39,15.08l-1.92,2.19-.93,1.05L298,178.1c-.91,1-1.82,2-2.74,3s-2,2.15-3,3.22c0,0,0,0,0,0-.86.93-1.73,1.85-2.6,2.76q-3.42,3.6-6.88,7.1c-3.74,3.77-7.27,7.24-10.67,10.45-.48.46-1,.91-1.43,1.34s-1,.91-1.44,1.35l-2.06,1.89c-.48.44-1,.88-1.44,1.3l-.17.16-.07.08a3.73,3.73,0,0,0-.17,5.26l.18.17a3.79,3.79,0,0,0,2.55,1,3.48,3.48,0,0,0,.79-.09,3.56,3.56,0,0,0,1.45-.67l.3-.25,1.16-1.09c5-4.76,10.3-10,16-16,5.52-5.8,11-11.85,16.25-18,.54-.62,1.07-1.25,1.61-1.89l1.51-1.8c.8-1,1.61-1.95,2.41-2.94s1.45-1.77,2.15-2.67c.56-.68,1.1-1.37,1.64-2.06s1-1.29,1.53-2c1.45-1.85,2.88-3.73,4.31-5.64,4.08-5.53,7.88-11.12,11.34-16.68l.84-1.35.3-.51h0l.52-.87.38-.62.13-.22a2.73,2.73,0,0,0,.39-1.33A2.79,2.79,0,0,0,331.81,138.1ZM310,169.5c-.61.77-1.22,1.53-1.84,2.29s-1.41,1.74-2.12,2.6l-1.1,1.33c-.33.4-.65.79-1,1.17l-.92,1.09L302,179.3l-2.14,2.46c-.88,1-1.78,2-2.68,3.06-1.36,1.54-2.73,3.06-4.12,4.58-.34.38-.68.76-1,1.14-2,2.23-4.09,4.43-6.17,6.62-4.52,4.74-9.11,9.39-13.84,13.93-.49.47-1,.94-1.46,1.39s-1,.93-1.46,1.38l-.32.31a.92.92,0,0,1-.63.25.93.93,0,0,1-.64-1.6h0l1.66-1.5L270.6,210l1.44-1.34c4.33-4.05,8.59-8.21,12.77-12.42q3.09-3.13,6.11-6.32c.34-.34.66-.68,1-1s.66-.68,1-1c.91-1,1.8-1.92,2.68-2.88s1.81-2,2.7-2.93,1.54-1.69,2.29-2.54c.25-.26.49-.53.73-.8.44-.49.88-1,1.31-1.48s.7-.79,1-1.19q1.5-1.72,3-3.46c.7-.83,1.41-1.66,2.1-2.5,2.7-3.23,5.35-6.52,7.94-9.84,4.31-5.61,8.41-11.4,12.22-17.37.06-.08.11-.16.16-.24.2-.31.4-.62.59-.93.1-.16.21-.32.31-.49l.44-.7-.43.71c-.1.17-.19.33-.3.49-.19.33-.39.65-.59,1a2.53,2.53,0,0,1-.13.22q-5.56,9.06-11.9,17.62C314.72,163.53,312.41,166.54,310,169.5ZM332,142.22h-.24a4.35,4.35,0,0,1-.74-.06,2.67,2.67,0,0,1-.7-.18c-.12-.26-.25-.52-.36-.79-.1.17-.19.33-.3.49-.19.33-.39.65-.59,1a2.53,2.53,0,0,1-.13.22q-5.56,9.06-11.9,17.62c-2.28,3-4.59,6-7,9-.61.77-1.22,1.53-1.84,2.29s-1.41,1.74-2.12,2.6l-1.1,1.33c-.33.4-.65.79-1,1.17l-.92,1.09L302,179.3l-2.14,2.46c-.88,1-1.78,2-2.68,3.06-1.36,1.54-2.73,3.06-4.12,4.58-.34.38-.68.76-1,1.14-2,2.23-4.09,4.43-6.17,6.62-4.52,4.74-9.11,9.39-13.84,13.93-.49.47-1,.94-1.46,1.39s-1,.93-1.46,1.38c0,.6-.05,1.19-.09,1.79s0,1-.07,1.49a3.56,3.56,0,0,0,1.45-.67l.3-.25,1.16-1.09c5-4.76,10.3-10,16-16,5.52-5.8,11-11.85,16.25-18,.54-.62,1.07-1.25,1.61-1.89l1.51-1.8c.8-1,1.61-1.95,2.41-2.94s1.45-1.77,2.15-2.67c.56-.68,1.1-1.37,1.64-2.06s1-1.29,1.53-2c1.45-1.85,2.88-3.73,4.31-5.64,4.08-5.53,7.88-11.12,11.34-16.68l.84-1.35.3-.51h0l.52-.87Z"></path><path d="M268.45,200.49a2.33,2.33,0,0,1-1.94-1L262,192.18c-.47-.67-1-1.39-1.51-2.11l-.89-1.24c-.29-.4-.59-.81-.88-1.23-.53-.74-1-1.44-1.57-2.13l-4-4.84c-.26-.32-.55-.61-.84-.91s-.37-.38-.54-.57l-2.91-3c-.59-.59-1.23-1.16-1.91-1.76l-1.14-1a61.67,61.67,0,0,0-13.58-9.25L229.8,163a13.21,13.21,0,0,0-1.3-.53l-.78-.29c-1.07-.39-2.09-.76-3.14-1a29.25,29.25,0,0,0-7.94-1.26,1.43,1.43,0,0,1-1.43-1.38,1.37,1.37,0,0,1,1.33-1.42l.71,0a32.92,32.92,0,0,1,8.08,1.14,32.54,32.54,0,0,1,3.44,1l.72.24a14.28,14.28,0,0,1,1.58.6l2.48,1a65.32,65.32,0,0,1,14.67,9.4c.4.35.78.66,1.16,1,.71.6,1.44,1.21,2.14,1.87l3.06,3,.53.52c.36.35.71.7,1,1.07l4.23,4.82c.63.76,1.2,1.52,1.76,2.25l.9,1.2.93,1.22c.56.74,1.12,1.47,1.67,2.21l4.75,7.19a2.33,2.33,0,0,1-.65,3.22A2.3,2.3,0,0,1,268.45,200.49Z" class="cls-1"></path><path d="M271.56,196.11l-.78-1.18-1.43-2.16-2-3.07-.47-.72-.08-.12-.9-1.19-.79-1.06c-.23-.28-.45-.57-.66-.86l-.25-.32-.91-1.2c-.56-.75-1.15-1.53-1.78-2.29l-.05-.05-2.81-3.22-1.41-1.6c-.38-.43-.77-.81-1.12-1.15l-.49-.49-3.07-3-.05,0-.07-.07c-.46-.43-.92-.83-1.39-1.22q-.37-.33-.75-.63l-.93-.79-.18-.16,0,0a66.06,66.06,0,0,0-15-9.58l-.07,0-.46-.19-1.49-.62h0l-.5-.21-.94-.38-.78-.27-.68-.22a35.19,35.19,0,0,0-3.59-1.07,36.22,36.22,0,0,0-7.2-1.14l-1.19,0h-1a2.81,2.81,0,0,0,.3,5.6h.06c.53,0,1.08,0,1.65.07a30.68,30.68,0,0,1,5.87,1.13l.08,0c1,.25,2,.61,3,1l.74.27.08,0a11.11,11.11,0,0,1,1.16.48l.53.24,1.87.84.87.43c.65.33,1.3.69,1.95,1.05.83.48,1.66,1,2.49,1.52a65.22,65.22,0,0,1,7.35,5.54q.28.22.57.48l1.13,1,.33.29c.51.45,1,.89,1.46,1.34a.46.46,0,0,0,.07.07l2.73,2.84.17.18c.15.17.34.36.53.56s.56.56.78.83l.13.15,1.21,1.47.23.28,1.81,2.18.63.76c.3.37.59.77.88,1.17l.63.88c.26.36.51.72.78,1.08l.12.17.87,1.21,1.5,2.1,3.74,6,.67,1.08,0,.06a.21.21,0,0,0,0,.06,3.58,3.58,0,0,0,.65.75,3.62,3.62,0,0,0,1.39.78,3.58,3.58,0,0,0,1.08.16,3.5,3.5,0,0,0,.91-.12,3.28,3.28,0,0,0,1.15-.5,2.47,2.47,0,0,0,.27-.21A3.7,3.7,0,0,0,271.56,196.11Zm-3.89,2.54,0-.05-.23-.38L266,196l-1.42-2.29-1.39-2.24c-.52-.75-1.05-1.48-1.58-2.22l-.83-1.15,0-.06-.8-1.11c-.55-.77-1.09-1.54-1.67-2.28l0,0-1.55-1.87-1.14-1.37-.37-.45-1-1.18c-.45-.54-1-1-1.44-1.53l-2.16-2.26-.76-.79-.23-.22c-.34-.34-.7-.66-1.06-1l-1.83-1.63a66.63,66.63,0,0,0-12-8.48c-.58-.31-1.17-.61-1.77-.91l-.17-.08-1.5-.67-.43-.2c-.64-.28-1.28-.6-1.95-.82-1.32-.48-2.64-1-4-1.34a34.89,34.89,0,0,0-5.54-1.13c-.47-.06-.93-.1-1.4-.13s-.89,0-1.34,0h.6c.25,0,.49,0,.74,0,.47,0,.94,0,1.41.08a34.09,34.09,0,0,1,5.59,1,41.48,41.48,0,0,1,4.07,1.24,20,20,0,0,1,2,.77l.15.06,1.61.68.2.08c.51.23,1,.47,1.51.72a65.84,65.84,0,0,1,12.81,8.47l2,1.67c.36.3.72.61,1.06.93l.21.19.81.79,2.23,2.21c.5.51,1,1,1.5,1.52l1.41,1.6.81.93,1.68,1.93.32.36c.88,1,1.66,2.14,2.49,3.21l.12.16.8,1c.6.79,1.2,1.57,1.78,2.36l0,0,1.44,2.18,1.42,2.15,1.83,2.77a.91.91,0,0,1-.26,1.28.88.88,0,0,1-.51.16.93.93,0,0,1-.77-.42S267.67,198.66,267.67,198.65Zm-3.1-5-1.39-2.24c-.52-.75-1.05-1.48-1.58-2.22l-.83-1.15,0-.06-.8-1.11c-.55-.77-1.09-1.54-1.67-2.28l0,0-1.55-1.87-1.14-1.37-.37-.45-1-1.18c-.45-.54-1-1-1.44-1.53l-2.16-2.26-.76-.79-.23-.22c-.34-.34-.7-.66-1.06-1l-1.83-1.63a66.63,66.63,0,0,0-12-8.48c-.58-.31-1.17-.61-1.77-.91l-.17-.08-1.5-.67-.43-.2c-.64-.28-1.28-.6-1.95-.82-1.32-.48-2.64-1-4-1.34a34.89,34.89,0,0,0-5.54-1.13c-.47-.06-.93-.1-1.4-.13a.66.66,0,0,1,0,.14,3.72,3.72,0,0,1-.42,1.24c.48,0,1,.06,1.48.12a33.88,33.88,0,0,1,5.55,1.12c1,.27,2.07.64,3.14,1l.78.29a12.15,12.15,0,0,1,1.29.53l2,.92.36.16c.48.23,1,.48,1.43.73.65.33,1.28.69,1.92,1.06a66.2,66.2,0,0,1,10.24,7.46l1.07,1,.06.05c.46.4.9.78,1.31,1.18l.61.58.5.52,2.4,2.5.55.57c.22.23.44.45.64.69a2.09,2.09,0,0,1,.2.22l1.27,1.53L255.9,184l1.24,1.49c.23.29.45.59.68.89-.79-.26-1.59-.52-2.39-.75l.63.76c.3.37.59.77.88,1.17l.63.88c.26.36.51.72.78,1.08l.12.17.87,1.21,1.5,2.1,3.74,6c0-.89,0-1.77,0-2.65l1.4,2.28c0-.89,0-1.78,0-2.66Z"></path><path d="M270.78,201.06c0,1.64,0,3.29-.07,4.95,0,.66,0,1.32,0,2l-.06,2c0,.84-.06,1.68-.1,2.52,0,.68-.05,1.35-.08,2l-.09,2a417.15,417.15,0,0,1-7.93,61.62c-.48,2.39-1,4.81-1.51,7.25-.22,1-.45,2-.67,3s-.47,2.06-.71,3.11c-.31,1.37-.63,2.75-1,4.14-.24,1.05-.49,2.09-.75,3.15l-.24,1c0,.13-.06.25-.08.36-.16.63-.32,1.26-.47,1.9q-1.68,6.74-3.6,13.7c-.3,1.13-.62,2.27-.94,3.41s-.69,2.47-1.05,3.71q-1.07,3.72-2.19,7.5l-.75,2.52-.45,1.47c-5.44,17.92-12,37-19.61,57.38-.26.7-.52,1.4-.79,2.1l-.79,2.1-2.21,5.79-1,2.48c-.38,1-.76,1.95-1.15,2.93-.22.59-.45,1.17-.68,1.76q-4,10.11-8.27,20.65l-1.75,4.27c-.35.84-.7,1.69-1.06,2.54s-.65,1.56-1,2.35q-3.87,9.27-8,18.9-.27.66-.57,1.32l-.58,1.36q-5.24,12.12-10.91,24.8h-5.08q5.88-13.14,11.28-25.57c.19-.45.39-.9.58-1.34l.57-1.32q4.2-9.74,8.1-19.06l.17-.39c.36-.86.71-1.72,1.07-2.57.19-.47.39-.94.58-1.4q5.63-13.56,10.62-26.28c.25-.63.49-1.26.74-1.88h0c.37-.93.73-1.86,1.08-2.78.26-.65.51-1.3.76-1.95l.73-1.9.18-.46c.21-.54.41-1.09.62-1.63.1-.25.2-.5.29-.76l.48-1.25c8.61-22.63,15.72-43.38,21.52-62.65.61-2,1.2-4,1.78-6q2.26-7.75,4.23-15.17c.3-1.11.59-2.22.87-3.32s.57-2.18.84-3.26c.1-.41.21-.82.31-1.23s.23-.92.35-1.37.23-1,.34-1.42l.06-.25c.27-1.07.53-2.14.78-3.2.15-.61.29-1.21.43-1.81s.21-.9.32-1.34l.39-1.7c.23-1,.45-2,.67-3a425.45,425.45,0,0,0,10.17-72.57c.09-1.9.17-3.79.23-5.67.12-3.22.18-6.42.21-9.6,0-.78,0-1.55,0-2.32s0-1.78,0-2.66c0-1.08,0-2.16,0-3.24,0-.87,0-1.73,0-2.6s0-1.64-.06-2.46c-.18-7.64-.59-15.22-1.19-22.8-.05-.79-.12-1.58-.19-2.37s-.14-1.78-.23-2.68-.15-1.74-.24-2.61c-.06-.72-.13-1.44-.2-2.16s-.15-1.43-.22-2.15c-.12-1.17-.25-2.34-.38-3.52-.1-.92-.2-1.86-.31-2.79v-.05c-.12-1-.24-2.06-.37-3.09-.47-3.94-1-7.89-1.55-11.88-.08-.55-.15-1.1-.23-1.65,0,0,0-.09,0-.13a2.23,2.23,0,0,1,.23-1.37,1.65,1.65,0,0,1,.22-.36,2.29,2.29,0,0,1,1.53-.91l.33,0a2.26,2.26,0,0,1,1.8.88,2.2,2.2,0,0,1,.5,1.12c0,.1,0,.21,0,.31l.24,1.7c.28,2,.54,3.89.8,5.82.1.76.19,1.52.29,2.27s.19,1.51.29,2.26c.11.93.23,1.86.34,2.79s.19,1.59.29,2.39l.24,2.18q.54,4.78,1,9.55c.1,1,.19,2,.28,3.07l0,.38c.08.9.16,1.81.23,2.71.82,10,1.31,20.07,1.37,30.37C270.81,197,270.8,199,270.78,201.06Z" class="cls-1"></path><path d="M270.58,161.72c0-.12,0-.24,0-.36a.2.2,0,0,0,0-.11c-.41-4.77-.9-9.52-1.45-14.29-.09-.8-.19-1.6-.28-2.4s-.19-1.6-.29-2.4-.22-1.76-.34-2.64-.19-1.51-.29-2.27l-.3-2.25c-.22-1.67-.45-3.35-.7-5,0-.35-.09-.69-.14-1a3.65,3.65,0,0,0-.29-1,3.5,3.5,0,0,0-.89-1.22,3.7,3.7,0,0,0-2.51-1,3.08,3.08,0,0,0-.53,0,3.71,3.71,0,0,0-2.46,1.45l-.2.3a3.79,3.79,0,0,0-.5,2.47c0,.26.08.53.11.79.76,5.34,1.44,10.62,2,15.88a.45.45,0,0,0,0,.11c.18,1.58.35,3.17.52,4.75.07.69.15,1.37.21,2s.15,1.41.21,2.12.15,1.46.21,2.19.16,1.65.23,2.48.15,1.76.22,2.64q.94,11.35,1.29,22.75l.06,2.41c0,.8,0,1.59,0,2.39,0,1,0,2.08,0,3.13,0,.89,0,1.78,0,2.67s0,1.76,0,2.65c-.11,26.92-3.05,55-10,86.92-.21,1-.42,1.92-.64,2.89s-.44,2-.67,2.95c-.32,1.4-.65,2.81-1,4.24-.08.38-.18.77-.27,1.16-.16.67-.33,1.34-.49,2l-.3,1.24-.42,1.67c0,.1-.05.21-.08.32-.36,1.42-.72,2.85-1.1,4.3-.28,1.1-.57,2.2-.86,3.31s-.6,2.23-.9,3.36c-6.47,23.84-15,49.92-26.13,79.19-.24.64-.48,1.28-.73,1.92s-.5,1.32-.76,2c-.09.24-.19.49-.28.74l-1,2.49,0,.08c-.31.79-.61,1.59-.93,2.39l0,.1c-.36.91-.71,1.82-1.07,2.74q-5.58,14.26-11.94,29.54l0,.05-.82,2-1,2.44q-3.62,8.6-7.47,17.55c-.19.43-.38.86-.56,1.3s-.39.89-.59,1.34Q189,471.77,183.08,485h3.07q5.83-13,11.17-25.33l.59-1.34.57-1.32q4.25-9.85,8.19-19.28l.51-1.24c.18-.42.36-.85.53-1.27l1.29-3.08q5.08-12.33,9.67-24l.54-1.37.6-1.54,1.73-4.45c.25-.63.49-1.27.73-1.89l.12-.31h0l.75-2,.06-.14.81-2.13c8.37-22,15.32-42.29,21-61.13.16-.52.32-1,.47-1.56h0q.81-2.65,1.57-5.28c.39-1.34.78-2.68,1.16-4q2.1-7.33,3.93-14.4c.29-1.11.57-2.21.85-3.3.14-.53.27-1.06.4-1.58l.36-1.42a1.55,1.55,0,0,1,.06-.23c.1-.45.21-.89.32-1.33l.51-2.07c.06-.28.13-.55.2-.83.19-.8.38-1.6.56-2.4l.18-.75.54-2.34c.06-.26.12-.52.17-.77a427.82,427.82,0,0,0,10.59-74c0-.5.05-1,.08-1.49.06-1.45.12-2.9.17-4.34q0-1,.06-1.95.14-3.78.16-7.52c0-.5,0-1,0-1.5,0-.67,0-1.34,0-2,0-1.12,0-2.23,0-3.34,0-.86,0-1.72,0-2.58s0-1.74-.05-2.6c-.16-8.12-.56-16.16-1.18-24.2,0-.49-.07-1-.11-1.47-.06-.67-.11-1.34-.17-2-.08-1-.18-2.09-.27-3.13-.07-.76-.14-1.52-.22-2.29s-.14-1.47-.22-2.21c-.14-1.48-.29-3-.46-4.46-.05-.49-.1-1-.16-1.47-.17-1.56-.35-3.13-.54-4.7l-.27-2.25c-.4-3.19-.82-6.38-1.27-9.6-.06-.48-.13-1-.2-1.44l-.12-.88a.94.94,0,0,1,.79-1.05h.13a.91.91,0,0,1,.76.41.88.88,0,0,1,.15.39c.05.34.1.68.14,1s.14.94.2,1.41q.51,3.6,1,7.17c.1.75.2,1.5.29,2.25h0c.1.75.19,1.49.28,2.24l.36,3h0l.21,1.83c.06.49.11,1,.16,1.47q.39,3.43.72,6.87h0c.07.79.15,1.58.22,2.37s.17,1.78.24,2.67a.67.67,0,0,1,0,.28c.07.67.12,1.33.18,2,0,.49.08,1,.11,1.47.73,9,1.18,18.13,1.29,27.39,0,.85,0,1.71,0,2.57,0,1.64,0,3.3,0,4.95,0,.49,0,1,0,1.48,0,1.85-.05,3.72-.09,5.59l-.06,2c0,.65,0,1.31-.07,2,0,.85-.06,1.71-.1,2.56,0,.6-.05,1.19-.09,1.79s0,1-.07,1.49A415.39,415.39,0,0,1,261,277.81q-1,4.92-2.11,10c-.23,1-.46,2.05-.7,3.08s-.47,2.08-.72,3.12l-.42,1.79c-.19.8-.38,1.6-.58,2.4-.1.43-.21.86-.32,1.3a1.83,1.83,0,0,1-.06.25c-.13.54-.26,1.08-.4,1.63l-.33,1.31c-.16.65-.33,1.3-.49,2q-1.74,6.81-3.71,13.88c-.35,1.22-.69,2.45-1.05,3.68s-.76,2.65-1.15,4q-.76,2.64-1.57,5.32c-.13.44-.27.88-.4,1.33s-.27.89-.41,1.34c-5.56,18.3-12.24,37.79-20.1,58.67-.28.72-.55,1.45-.83,2.18s-.55,1.45-.83,2.18l-.8,2.1c-.29.76-.58,1.52-.88,2.29s-.63,1.63-.94,2.45-.54,1.36-.8,2.05l-.57,1.46-.53,1.35q-4.19,10.67-8.76,21.79-.87,2.13-1.77,4.29c-.12.3-.24.61-.37.91-.33.8-.66,1.6-1,2.41q-3.89,9.36-8.07,19.07l-.57,1.32c-.19.45-.39.9-.59,1.35q-5.27,12.23-11,25h3.08q5.63-12.59,10.82-24.6l.58-1.35.57-1.33q4.09-9.54,7.93-18.73l.94-2.28c.58-1.39,1.15-2.78,1.72-4.16s1.17-2.83,1.74-4.24q4.24-10.41,8.14-20.39c.48-1.22.95-2.43,1.41-3.64q1.89-4.85,3.68-9.61l.77-2,.76-2h0c7.52-20.16,13.93-39,19.29-56.75.31-1,.62-2,.92-3.05.55-1.86,1.1-3.71,1.63-5.54s1.05-3.67,1.56-5.49c.32-1.15.64-2.3.95-3.45s.59-2.15.88-3.21q1.88-7,3.52-13.71c.26-1.07.51-2.13.76-3.18s.5-2.08.74-3.11q.48-2.07.93-4.11c.23-1,.45-2,.67-3s.44-2,.65-3c.33-1.54.64-3.08.95-4.6a415.26,415.26,0,0,0,8-63.23c0-.67.06-1.34.09-2s.06-1.36.08-2c0-.83.06-1.65.08-2.47l.06-2c0-.66,0-1.31,0-2A404.82,404.82,0,0,0,270.58,161.72ZM266,196c0,.88,0,1.77,0,2.66l-1.4-2.28c0,.88,0,1.76,0,2.65-.11,26.92-3.05,55-10,86.92-.21,1-.42,1.92-.64,2.89l.3,1.11c.16.6.32,1.22.48,1.84.07.31.15.62.23.94.14.57.27,1.14.4,1.72a3.15,3.15,0,0,1,.09.42l.18-.75.54-2.34c.06-.26.12-.52.17-.77a427.82,427.82,0,0,0,10.59-74c0-.5.05-1,.08-1.49.06-1.45.12-2.9.17-4.34q0-1,.06-1.95.14-3.78.16-7.52c0-.5,0-1,0-1.5,0-.67,0-1.34,0-2ZM248.73,310q-.45,1.67-.9,3.36c-6.47,23.84-15,49.92-26.13,79.19-.24.64-.48,1.28-.73,1.92s-.5,1.32-.76,2c-.09.24-.19.49-.28.74l-1,2.49,0,.08c.1.48.2.95.28,1.43l1-.73c-.25.65-.5,1.3-.76,1.95-.35.92-.71,1.85-1.08,2.78h0c-.25.62-.49,1.25-.74,1.88q-5,12.74-10.62,26.28c-.19.46-.39.93-.58,1.4l1.31.47,1.29-3.08q5.08-12.33,9.67-24l.54-1.37.6-1.54,1.73-4.45c.25-.63.49-1.27.73-1.89l.12-.31h0l.75-2,.06-.14.81-2.13c8.37-22,15.32-42.29,21-61.13.16-.52.32-1,.47-1.56h0q.81-2.65,1.57-5.28c.39-1.34.78-2.68,1.16-4q2.1-7.33,3.93-14.4c.29-1.11.57-2.21.85-3.3l-2.13,2.64C250.17,308.23,249.44,309.12,248.73,310Z"></path><path d="M263,130.54c-1.49,0-3.07-.89-4.71-2.64-6.16-6.58-12-23.57-10.81-42.09,1.56-23.57,5.28-28.64,10.37-29l.37,0c4.38,0,9.85,5.23,11.07,30.14.93,19.16.72,42.27-5.59,43.54A3.2,3.2,0,0,1,263,130.54Z" class="cls-2"></path><path d="M270.66,86.86c-1-20.88-5.22-31.47-12.48-31.47l-.46,0c-7.08.5-10.24,8.71-11.67,30.3-1.25,18.92,4.83,36.35,11.18,43.15a12.34,12.34,0,0,0,2.24,1.92,7.37,7.37,0,0,0,1.52.79,6,6,0,0,0,1.46.34,4.53,4.53,0,0,0,.52,0,4.59,4.59,0,0,0,1-.1l.35-.08a4.74,4.74,0,0,0,1.33-.62,5.48,5.48,0,0,0,1.25-1.17c1.86-2.31,3-6.77,3.62-13.91A224.71,224.71,0,0,0,270.66,86.86ZM264.85,128a2.79,2.79,0,0,1-1,.93,1.77,1.77,0,0,1-.42.15,1.86,1.86,0,0,1-.42,0,2.76,2.76,0,0,1-.74-.11,4.68,4.68,0,0,1-1.26-.61,8.44,8.44,0,0,1-1.11-.9c-5.48-5.13-12.31-22-11-41.62,1.61-24.27,5.53-27.45,9.07-27.7h.26c4.34,0,8.64,7.62,9.68,28.8.85,17.56.35,33.78-2.3,39.73A6.23,6.23,0,0,1,264.85,128Z"></path><path d="M246.16,147.55c-6.41,0-19.89-5.71-27.49-16-5.26-7.15-7.28-11.7-6.56-14.74a4.86,4.86,0,0,1,2.77-3.25,6.72,6.72,0,0,1,3.09-.69c4.65,0,10.86,3.74,17.94,10.83,5.77,5.76,15.37,16.14,14.84,20.91a2.93,2.93,0,0,1-1.36,2.24,6.06,6.06,0,0,1-3.23.74Z" class="cls-2"></path><path d="M236.9,122.66c-7.35-7.35-13.9-11.23-18.93-11.23a8.15,8.15,0,0,0-3.73.84,6.22,6.22,0,0,0-3.49,4.17c-.84,3.53,1.19,8.29,6.79,15.9,8,10.84,21.75,16.62,28.62,16.62a9.12,9.12,0,0,0,2.11-.22,5.83,5.83,0,0,0,1.6-.59l.27-.16a4.21,4.21,0,0,0,.88-.74.8.8,0,0,0,.15-.17,4,4,0,0,0,.7-1.22,4.31,4.31,0,0,0,.27-1.14,3,3,0,0,0,0-.31C252.34,140.27,247.21,133,236.9,122.66Zm11.74,23a3.36,3.36,0,0,1-1.33.45,8.09,8.09,0,0,1-1.15.08h-.27c-6.13-.15-18.86-5.62-26.09-15.46-8.65-11.76-6.91-14.58-4.29-15.91a5.32,5.32,0,0,1,2.46-.54c3.66,0,9.32,2.79,16.95,10.42,7.23,7.22,13.09,14.31,14.24,18.23a3.68,3.68,0,0,1,.19,1.54A1.53,1.53,0,0,1,248.64,145.62Z"></path><path d="M196.25,169a26.42,26.42,0,0,1-2.68-.14c-6.81-.69-10.5-1.93-12-4a4.12,4.12,0,0,1-.58-3.55c.55-2.38,3.44-6.48,16.57-7.19,2.16-.12,4.23-.18,6.15-.18,11.28,0,13,2,13.57,2.63a2.68,2.68,0,0,1,.67,2.15c-.6,4.39-11.45,10.28-21.72,10.28Z" class="cls-2"></path><path d="M219.22,157.17a4,4,0,0,0-.79-1.45l-.07-.09c-1.27-1.45-4.07-3.11-14.63-3.11-1.95,0-4,.06-6.23.18-13.34.72-17.07,4.9-17.86,8.27a5.59,5.59,0,0,0,.81,4.69c1.76,2.46,5.64,3.83,13,4.58.92.09,1.87.14,2.82.14a29.07,29.07,0,0,0,3.82-.26,34.86,34.86,0,0,0,5.35-1.13c5.67-1.65,10.71-4.56,12.87-7.61a6.54,6.54,0,0,0,.74-1.33,4.29,4.29,0,0,0,.33-1.17c0-.07,0-.13,0-.2s0-.05,0-.08A4,4,0,0,0,219.22,157.17Zm-4.16,3.7c-3.17,3.07-10.83,6.7-18.81,6.7-.84,0-1.69,0-2.53-.12-11.09-1.13-11.87-3.62-11.35-5.84.65-2.78,5-5.55,15.28-6.11,2.1-.12,4.15-.18,6.08-.18,4.69,0,8.65.36,10.89,1.18a4.7,4.7,0,0,1,1.37.73,1.36,1.36,0,0,1,.59,1.28,2.89,2.89,0,0,1-.56,1.25A7.15,7.15,0,0,1,215.06,160.87Z"></path><path d="M246.73,175.72c-4.34,0-10.3-3.52-12.8-10.06-2.63-6.88-2.47-10.72.53-12.87a4.72,4.72,0,0,1,2.74-.89c2.81,0,5.67,2.32,8.52,6.9,3.63,5.82,7.29,13.32,4.12,16a4.79,4.79,0,0,1-3.11,1Z" class="cls-2"></path><path d="M246.91,158.05c-3.12-5-6.39-7.55-9.71-7.55a6.09,6.09,0,0,0-3.55,1.15c-2.15,1.53-3.14,3.68-3,6.77a13.1,13.1,0,0,0,.17,1.58,16.35,16.35,0,0,0,.34,1.66,4.7,4.7,0,0,0,.12.51c.15.56.32,1.15.52,1.77s.41,1.22.66,1.87c0,.12.08.23.13.35,2.72,7.12,9.3,11,14.11,11a7,7,0,0,0,1-.07,6,6,0,0,0,1.56-.4,4.51,4.51,0,0,0,1.27-.71.61.61,0,0,0,.14-.1,3.86,3.86,0,0,0,.63-.65,4.3,4.3,0,0,0,.7-1.26,5.55,5.55,0,0,0,.34-1.64C252.63,169.06,250.8,164.29,246.91,158.05Zm2,15.63a2.65,2.65,0,0,1-.39.26,3.75,3.75,0,0,1-1.7.38h-.12a8.44,8.44,0,0,1-2.45-.4,14.69,14.69,0,0,1-8.74-8c-.11-.24-.22-.48-.31-.73-.18-.46-.34-.91-.48-1.33-.09-.24-.16-.47-.24-.69-.21-.65-.38-1.25-.53-1.8s-.27-1.18-.35-1.7c-.57-3.53.47-4.87,1.65-5.71a3.22,3.22,0,0,1,1.92-.63c2,0,4.5,1.69,7.33,6.24a39.6,39.6,0,0,1,4.81,10.11,8.6,8.6,0,0,1,.31,2.09,3,3,0,0,1-.36,1.54A1.68,1.68,0,0,1,248.94,173.68Z"></path><path d="M190.15,218.57a4.2,4.2,0,0,1-4.12-2.7c-1-2.23-1.15-7.24,8.9-15.72,4.42-3.73,12.45-10,16.46-10a2.77,2.77,0,0,1,2.58,1.39c2.26,4-3.49,16.81-13.36,22.79-4.77,2.9-8.1,4.24-10.46,4.24Z" class="cls-2"></path><path d="M215.57,191.7a4.65,4.65,0,0,0-.37-.85,4.55,4.55,0,0,0-.28-.43l-.08-.1a3.63,3.63,0,0,0-1.06-.93,3,3,0,0,0-.59-.3,3.79,3.79,0,0,0-.89-.25,4.53,4.53,0,0,0-.91-.09c-2.28,0-5.66,1.57-10.09,4.66l-1.35,1-1.32,1q-2.16,1.65-4.61,3.71c-10.21,8.61-10.68,14.19-9.27,17.36a5.58,5.58,0,0,0,5.39,3.54c2.64,0,6.19-1.42,11.2-4.45l.62-.39c.42-.27.84-.56,1.24-.86s.82-.6,1.21-.93c6.91-5.61,11.6-14.51,11.43-19.87v-.15A6.77,6.77,0,0,0,215.57,191.7Zm-25.43,25.47a2.81,2.81,0,0,1-2.83-1.86c-1.16-2.61.62-7.43,8.52-14.09,1-.89,2.1-1.74,3.13-2.55l1.29-1c.45-.35.89-.68,1.33-1a33.66,33.66,0,0,1,8.27-4.83,5.14,5.14,0,0,1,1.54-.29h.25a1.33,1.33,0,0,1,1.11.65.59.59,0,0,1,.06.14h0a3.77,3.77,0,0,1,.24,1.61,10,10,0,0,1-.19,1.49c-.78,4-4,10.22-9.15,14.81-.39.35-.79.69-1.21,1s-.82.63-1.24.92-.91.62-1.38.91C194.92,216.14,192,217.17,190.14,217.17Z"></path><path d="M357.16,181.21a22.3,22.3,0,0,1-9.4-2.07c-8.64-4-11.86-7.62-10.78-12.08.46-1.86,2.17-5,8.57-5a31.6,31.6,0,0,1,7.52,1.08c7.15,1.81,19,5.63,18.17,10.88-.63,3.88-7.08,7.17-14.08,7.17Z" class="cls-2"></path><path d="M372.55,172.41a5.19,5.19,0,0,0-.5-1.32,7.25,7.25,0,0,0-.82-1.19,6.17,6.17,0,0,0-.5-.53,10,10,0,0,0-1.27-1.12l-.13-.1c-.36-.27-.74-.53-1.16-.8l-.21-.13c-.32-.19-.66-.39-1-.58-.53-.29-1.1-.58-1.71-.86-.42-.2-.86-.4-1.31-.59s-.94-.39-1.44-.58c-1.32-.52-2.77-1-4.35-1.5l-1.36-.4-1.37-.39c-.51-.14-1-.28-1.57-.41l-.42-.11-1-.24-.22-.05c-.42-.09-.82-.18-1.22-.25l-.43-.08-.47-.08c-.53-.09-1.05-.17-1.55-.23s-1-.11-1.54-.14-1,0-1.44,0c-5.61,0-8.1,2.29-9.2,4.22a6.94,6.94,0,0,0-.61,1.39c-.05.16-.09.31-.12.44a8.49,8.49,0,0,0-.18,1,1.49,1.49,0,0,0,0,.21,6.6,6.6,0,0,0,0,1.4,8.08,8.08,0,0,0,.24,1.39c1,3.48,4.66,6.53,11.54,9.72.32.15.65.29,1,.42h0c.43.18.86.35,1.3.49l.14,0c.4.14.8.26,1.21.37l.25.07c.49.13,1,.25,1.49.34l.57.11q.42.07.84.12l.79.1.63,0c.38,0,.76.05,1.15.06h.63c7.78,0,14.72-3.75,15.46-8.35A4.61,4.61,0,0,0,372.55,172.41Zm-13.48,7.3c-.62.06-1.26.09-1.91.09h0l-1,0-.74-.06-.66-.06c-.46-.05-.92-.12-1.39-.21a.4.4,0,0,1-.15,0c-.46-.08-.93-.19-1.4-.31l-.13,0c-.4-.11-.81-.23-1.21-.37l-.29-.1c-.34-.12-.69-.25-1-.4l-.74-.32c-6.27-2.91-8.85-5.27-9.75-7.25a4.45,4.45,0,0,1-.4-1.4,4.64,4.64,0,0,1,.05-1.4.43.43,0,0,1,0,0c0-.13.05-.26.08-.38a4.26,4.26,0,0,1,1.46-2.31c1.17-1,3-1.6,5.75-1.6a23.2,23.2,0,0,1,2.39.14c.47,0,1,.12,1.48.21h0c.45.08.91.16,1.39.26l.14,0,.69.15h0l.61.15.43.1.55.14.84.22.75.21c.21.06.42.11.63.18l1.38.4c1.25.38,2.45.78,3.59,1.2.5.18,1,.36,1.45.55s.92.37,1.35.56l1,.46.73.36c.35.17.68.35,1,.52l.27.16c.44.25.84.51,1.2.76l.07,0a7.93,7.93,0,0,1,.81.65h0a5.64,5.64,0,0,1,1,1.1,2.69,2.69,0,0,1,.51,1.31,1.85,1.85,0,0,1,0,.47C369.44,176.34,364.92,179.19,359.07,179.71Zm-5.92-.3c-.46-.08-.93-.19-1.4-.31a13.9,13.9,0,0,1-.4,1.34l.75.18a8.6,8.6,0,0,0,.88.19,13,13,0,0,0,.32-1.37A.4.4,0,0,1,353.15,179.41Zm-1.8-16.1c-.06-.2-.13-.39-.21-.59l-.58-.11c0-.15-.09-.3-.14-.45l-.24.38c-.4-.07-.78-.14-1.16-.19s-1-.14-1.53-.18l.18.57.27.88c.47,0,1,.12,1.48.21h0c.45.08.91.16,1.39.26l.14,0,.69.15Q351.53,163.79,351.35,163.31Z"></path><path d="M331.72,142.24a4,4,0,0,1-2.1-.55c-5.49-3.36,2.23-25.14,9.67-42.82,6.84-16.25,13.4-24.83,19-24.83a5,5,0,0,1,2.1.45c4.66,2.08,6.41,8.12-.19,30.79-6.25,21.44-21.33,37-28.45,37Z" class="cls-2"></path><path d="M360.93,73.21a6.44,6.44,0,0,0-2.67-.57c-6.27,0-13.09,8.64-20.26,25.68-3.33,7.92-6.06,15.17-8.05,21.37-.21.64-.41,1.28-.6,1.9-.45,1.48-.85,2.89-1.21,4.22-.4,1.49-.74,2.88-1,4.16a36.67,36.67,0,0,0-.72,4.45,12.79,12.79,0,0,0,.54,6.19,5.05,5.05,0,0,0,.82,1.33,4.65,4.65,0,0,0,1.07.91l0,0h0l.34.2a6.56,6.56,0,0,0,1,.37,6.39,6.39,0,0,0,.91.16,6.08,6.08,0,0,0,.61,0h0a6.56,6.56,0,0,0,1-.08c3.27-.47,7.47-3.22,11.76-7.67.36-.36.71-.73,1.05-1.12s.7-.76,1-1.16.52-.6.78-.91c.48-.58,1-1.17,1.42-1.77s.77-1,1.15-1.52.82-1.14,1.21-1.72a77.21,77.21,0,0,0,8.15-15.4c.17-.43.34-.86.5-1.3s.32-.88.47-1.33q.7-2,1.29-4C367.56,84.9,367.4,76.1,360.93,73.21Zm-3.48,35.88c-.16.48-.34,1-.52,1.42s-.39,1-.6,1.52a73.88,73.88,0,0,1-4.92,10c-.57,1-1.14,1.89-1.74,2.79-.46.73-.94,1.43-1.42,2.11-1,1.4-2,2.71-3,3.92q-.5.6-1,1.17c-.34.39-.68.76-1,1.13-3.81,4.12-7.47,6.75-10.09,7.49a5.23,5.23,0,0,1-1.43.23,3.15,3.15,0,0,1-.44,0,2.33,2.33,0,0,1-.93-.31,2.13,2.13,0,0,1-.85-1.11,4.93,4.93,0,0,1-.34-1.42,16.61,16.61,0,0,1,.09-3.67,72.41,72.41,0,0,1,2.92-12.3c.14-.47.29-.94.44-1.42s.3-.93.46-1.4c2-6,4.59-12.81,7.51-19.76,7.42-17.61,13.56-24,17.68-24a3.7,3.7,0,0,1,1.52.32c3.24,1.45,5.84,5.78-1,29.13C358.4,106.32,358,107.72,357.45,109.09Zm-7.78,15.69c-.46.73-.94,1.43-1.42,2.11-1,1.4-2,2.71-3,3.92q-.5.6-1,1.17c-.34.39-.68.76-1,1.13-3.81,4.12-7.47,6.75-10.09,7.49a5.23,5.23,0,0,1-1.43.23,3.15,3.15,0,0,1-.44,0,2.33,2.33,0,0,1-.93-.31l-.43.71c.11.27.24.53.36.79a2.67,2.67,0,0,0,.7.18,4.35,4.35,0,0,0,.74.06H332l.29.55-.52.87a6.56,6.56,0,0,0,1-.08c3.27-.47,7.47-3.22,11.76-7.67.36-.36.71-.73,1.05-1.12s.7-.76,1-1.16.52-.6.78-.91c.48-.58,1-1.17,1.42-1.77-.13-.62-.24-1.25-.31-1.9.42-.56.83-1.14,1.24-1.73A21.19,21.19,0,0,1,349.67,124.78Z"></path><path d="M284.49,109.48a2.28,2.28,0,0,1-.45,0,3.83,3.83,0,0,1-2.66-2.34c-2.25-4.52-2.43-17.4,4.33-30.67C293,62.17,296.47,60.2,299.18,60.2a4.86,4.86,0,0,1,1.44.23,4.1,4.1,0,0,1,2.45,2.22c1.66,3.41.59,10.26-3.19,20.33C293.29,100.57,288.11,109.48,284.49,109.48Z" class="cls-2"></path><path d="M304.33,62A5.49,5.49,0,0,0,301,59.09a6.06,6.06,0,0,0-1.86-.29c-3.64,0-7.54,2.89-14.72,17-6.32,12.41-7.17,26.23-4.33,31.93a6.83,6.83,0,0,0,.77,1.23A4.71,4.71,0,0,0,282,110h0a4.84,4.84,0,0,0,1.25.65l.11,0c.17.05.32.08.47.11a3.93,3.93,0,0,0,.69.06,1.32,1.32,0,0,0,.28,0,4.23,4.23,0,0,0,1.66-.44c2.09-1,4.19-3.72,6.83-8.7a162,162,0,0,0,7.93-18.25C305.17,72.87,306.19,65.86,304.33,62Zm-18.7,45.61a2,2,0,0,1-1.14.44l-.2,0a2,2,0,0,1-1.15-.79,5.1,5.1,0,0,1-.72-1.3c-1.94-4.78-1.54-17,4.54-28.91,6.57-12.9,10-15.46,12.22-15.46a3.41,3.41,0,0,1,1,.17c2.85.9,3.6,6.76-1.63,20.72-4.07,10.87-8.6,20.64-11.86,24.18A5.74,5.74,0,0,1,285.63,107.64Z"></path><path d="M300,123.49a2.44,2.44,0,0,1-2-1.18c-2.24-3.21-1.92-14,2.12-24.83,4.89-13.17,7.38-15.79,10-15.86h0a2.56,2.56,0,0,1,2.12,1c.58.76,2.35,3.09-1.48,16.81-6.5,23.29-9.42,23.81-10.38,24a2.43,2.43,0,0,1-.38,0Z" class="cls-2"></path><path d="M313.36,81.82a3.93,3.93,0,0,0-3.18-1.6h-.11c-3.39.09-6.07,2.7-11.3,16.77-4.32,11.65-4.38,22.63-1.95,26.12a4.08,4.08,0,0,0,.77.86,3.44,3.44,0,0,0,1.46.78,3.3,3.3,0,0,0,.95.14,3.55,3.55,0,0,0,.46,0h.17a3.18,3.18,0,0,0,1.3-.47,5.21,5.21,0,0,0,1.29-1.2c1.9-2.36,4.68-8.23,8.89-23.32C315.67,87.1,314.64,83.52,313.36,81.82Zm-11,37.49a14,14,0,0,1-.84,1.46,3.19,3.19,0,0,1-1.26,1.26s0,0,0,0l-.11,0H300c-.48,0-.9-.44-1.23-1.24a8.67,8.67,0,0,1-.51-1.88c-.72-4.19-.15-12.15,3.14-21,4.93-13.27,7.18-14.91,8.75-15h0c1.93,0,2.53,4.26-.77,16.08C307.06,107.5,304.45,115.31,302.38,119.31Z"></path><path d="M204.75,375.11c-11.3,0-69.9-2.87-114.35-59.32C64.6,283,82.22,214.57,83,211.67a1.42,1.42,0,0,1,1.36-1h.14c.51.05,52,5.57,86.55,50.57,34.78,45.3,37,111.77,37,112.43a1.41,1.41,0,0,1-1.33,1.44s-.68,0-1.95,0Z" class="cls-3"></path><path d="M209.35,371.79c-.07-1.37-.2-3.49-.44-6.23-.06-.69-.13-1.42-.2-2.19s-.15-1.4-.23-2.16-.2-1.84-.32-2.83q-.12-1-.27-2.1t-.27-2.07c-.79-5.74-1.91-12.49-3.52-19.89-4.45-20.56-13.61-50.08-32-74s-41-36.39-56.93-42.8c-17.25-7-30.06-8.26-30.6-8.32h-.27a2.81,2.81,0,0,0-2.71,2.09,232.24,232.24,0,0,0-6.13,39.76c-1.93,29.44,2.71,51.51,13.8,65.59,21.17,26.88,45.52,41.72,66.55,49.89l1.79.69,1.68.62a151.81,151.81,0,0,0,18.08,5.29c1,.23,2,.44,2.93.63,4.12.85,7.89,1.43,11.2,1.84l1.37.16.36,0,1.15.12.4,0,1.58.14c.75.07,1.46.12,2.13.16l1.6.1,1.63.07c1.21.05,2.22.06,3,.06h.77l1.25,0,.35,0a2.84,2.84,0,0,0,1.29-.6,3.07,3.07,0,0,0,.26-.25,2.84,2.84,0,0,0,.72-1.41,2.78,2.78,0,0,0,0-.58C209.43,373.47,209.41,372.85,209.35,371.79Zm-2.72,1.88-1.26,0h-1.84l-1.65,0-1.61-.07c-.67,0-1.39-.08-2.16-.14l-1.6-.12-1.12-.1-.45,0-1.05-.11-1.36-.16c-3.56-.41-7.7-1-12.27-2-1-.2-1.94-.42-2.94-.65A149.19,149.19,0,0,1,158,364.4c-.55-.2-1.1-.42-1.66-.64s-1.16-.46-1.74-.7c-20.11-8.19-43.07-22.65-63.14-48.14-22.83-29-10.7-87.86-7.76-100.48.38-1.57.6-2.42.6-2.42s.54,0,1.56.2c8.81,1.26,53,9.46,84,49.84,9.79,12.75,17,27.12,22.24,41.2a226.16,226.16,0,0,1,8.29,27.61,259.47,259.47,0,0,1,4.79,26.8c.09.72.17,1.42.25,2.1s.17,1.47.24,2.17c.11,1,.21,2,.29,2.91s.14,1.53.2,2.22.09,1.16.13,1.68c0,.2,0,.39,0,.58s0,.63.06.92a1,1,0,0,1,0,.17c.07,1,.11,1.83.13,2.38a1.85,1.85,0,0,1,0,.23Zm-11.24-.45c-.16.46-.32.92-.48,1.36l.74.07.86-1.33Zm-1.5-.15c-.16.45-.32.91-.49,1.35l.7.08q.41-.66.84-1.32Z"></path><path d="M206.63,375.07a1.41,1.41,0,0,1-1.27-.8c-.19-.41-19.59-41-62.3-77.12C99.8,260.59,83.18,213,83,212.48a1.41,1.41,0,0,1,2.66-.91c.16.47,16.56,47.4,59.2,83.44,43.2,36.51,62.83,77.65,63,78.06a1.41,1.41,0,0,1-.68,1.87A1.37,1.37,0,0,1,206.63,375.07Z"></path><path d="M88,251.9c4.25,2,8.57,3.86,12.91,5.63s8.72,3.44,13.12,5a1.4,1.4,0,0,1-.94,2.64l-.13-.06q-6.41-3-12.65-6.34C96.17,256.6,92.05,254.33,88,251.9Z"></path><path d="M93.82,285a213.47,213.47,0,0,0,21.71,3.43c3.64.36,7.28.62,10.92.74a100.39,100.39,0,0,0,10.85-.29h0a1.41,1.41,0,0,1,.24,2.8h-.09a103.41,103.41,0,0,1-11.15-.41q-5.52-.54-11-1.45A215.18,215.18,0,0,1,93.82,285Z"></path><path d="M124.89,336.8a125.94,125.94,0,0,0,12.57-1.14c4.16-.57,8.29-1.34,12.36-2.3a104,104,0,0,0,12-3.66,68.51,68.51,0,0,0,11.09-5.49l0,0a1.4,1.4,0,0,1,1.47,2.39l-.07,0a71.86,71.86,0,0,1-11.83,5.06,104.33,104.33,0,0,1-12.37,3.05q-6.26,1.11-12.58,1.63C133.32,336.7,129.11,336.88,124.89,336.8Z"></path><path d="M163.63,278a57.61,57.61,0,0,1-.54,7.42,66.37,66.37,0,0,1-1.4,7.34A61.32,61.32,0,0,1,159.5,300a59.91,59.91,0,0,1-3.06,6.92,1.4,1.4,0,0,1-2.51-1.25l.06-.11,0,0a61.27,61.27,0,0,0,6.33-13.1,68.17,68.17,0,0,0,2.05-7.07A55.75,55.75,0,0,0,163.63,278Z"></path><path d="M127.49,247.77a80.24,80.24,0,0,1-.69,13.66,63.86,63.86,0,0,1-1.32,6.78,42.55,42.55,0,0,1-2.35,6.63,1.4,1.4,0,1,1-2.56-1.15.83.83,0,0,1,.07-.13l0,0a41.08,41.08,0,0,0,2.81-5.95,62.73,62.73,0,0,0,2-6.42A80.05,80.05,0,0,0,127.49,247.77Z"></path><path d="M263.81,311.17a1.41,1.41,0,0,1-1.1-.53,1.39,1.39,0,0,1-.21-1.37c.19-.47,18.52-47.31,44.54-73.4s56.58-30.26,56.89-30.3h.17a1.4,1.4,0,0,1,1.36,1.74c-.11.45-11.64,45.13-38.53,71.88s-62.57,31.93-62.93,32Z" class="cls-3"></path><path d="M366.2,205.1a2.81,2.81,0,0,0-2.1-.94,2.11,2.11,0,0,0-.35,0c-1,.12-18.9,2.5-39.17,15.66q-2.15,1.4-4.31,2.95c-1.66,1.19-3.33,2.45-5,3.8a113.85,113.85,0,0,0-9.23,8.29c-.23.24-.47.47-.69.71a141.14,141.14,0,0,0-13.82,16.69c-3.39,4.72-6.55,9.6-9.45,14.42-1.54,2.55-3,5.08-4.39,7.56-1.26,2.26-2.46,4.48-3.59,6.64-5.9,11.22-10,20.74-11.84,25.2,0,0,0,0,0,0-.61,1.48-1,2.41-1.06,2.65a1.73,1.73,0,0,0-.12.43,2.67,2.67,0,0,0,.21,1.78,2.48,2.48,0,0,0,.32.54l0,0a2.73,2.73,0,0,0,1.13.84,2.7,2.7,0,0,0,1.05.21,2.43,2.43,0,0,0,.38,0l.25,0c3.28-.49,33-5.42,58.49-27.7.4-.34.8-.7,1.2-1.07s.73-.66,1.1-1c.9-.84,1.8-1.7,2.69-2.58a109.81,109.81,0,0,0,10.25-11.85l1.29-1.74c.24-.34.48-.67.71-1,.62-.86,1.22-1.72,1.81-2.59,2.77-4.09,5.29-8.28,7.55-12.42.26-.46.51-.92.76-1.38s.49-.92.73-1.38a201.06,201.06,0,0,0,15.8-40.15A2.85,2.85,0,0,0,366.2,205.1Zm-19.11,44-.77,1.4c-2.27,4-4.77,8.12-7.51,12.08-.45.67-.92,1.33-1.39,2l-.46.63-1,1.35a106.78,106.78,0,0,1-10,11.62q-1.71,1.69-3.46,3.28-.56.51-1.11,1c-.4.36-.81.71-1.21,1.05-20.47,17.47-43.75,23.73-52.64,25.59-.65.14-1.22.25-1.7.34l-.65.12c-.88.16-1.36.22-1.36.22l.58-1.45c.07-.18.15-.37.24-.58.31-.76.71-1.73,1.2-2.87l.12-.27c.18-.43.38-.89.59-1.37a308.48,308.48,0,0,1,18-35.08c2-3.28,4.07-6.58,6.27-9.84A147,147,0,0,1,308,236.86c.82-.82,1.64-1.61,2.46-2.39,0,0,0,0,0,0,2.2-2.07,4.43-4,6.65-5.77A107.41,107.41,0,0,1,360.6,207.6c2.23-.48,3.5-.64,3.5-.64s-.18.73-.57,2a204.94,204.94,0,0,1-15.69,38.72C347.6,248.19,347.34,248.66,347.09,249.12Zm-63.56,18q-2.86,3.51-5.84,7.14c-1.26,2.26-2.46,4.48-3.59,6.64l5-6.09A319.68,319.68,0,0,0,264.7,304l.14-.12a2.8,2.8,0,0,1,1.7-.62,308.48,308.48,0,0,1,18-35.08c2-3.28,4.07-6.58,6.27-9.84Q287.21,262.62,283.53,267.12Zm-17.8,37.82.1-.07.12-.27c-.12.15-.23.3-.33.44Z"></path><path d="M263.81,311.17a1.35,1.35,0,0,1-.83-.27,1.39,1.39,0,0,1-.3-1.95c.53-.73,53.39-72.63,100.66-103.17a1.4,1.4,0,1,1,1.52,2.36C318,238.4,265.47,309.88,264.94,310.6A1.37,1.37,0,0,1,263.81,311.17Z"></path><path d="M339.27,242.91c-5.15,1.71-10.2,3.69-15.13,5.88q-3.69,1.67-7.25,3.55a75.77,75.77,0,0,0-6.84,4.14h0a1.41,1.41,0,0,1-1.59-2.32l.1-.06a92.59,92.59,0,0,1,15.07-6.62C328.77,245.71,334,244.17,339.27,242.91Z"></path><path d="M297.16,253.52c-1.06,3.68-2,7.39-2.79,11.11a101,101,0,0,0-1.81,11.19h0a1.4,1.4,0,1,1-2.79-.27.55.55,0,0,1,0-.17A103.34,103.34,0,0,1,293,264.25C294.29,260.62,295.66,257,297.16,253.52Z"></path><path d="M314.48,281.34a57,57,0,0,0-10,1.63,89.1,89.1,0,0,0-9.65,3,99.61,99.61,0,0,0-9.22,4.07c-1.52.71-3,1.58-4.43,2.36s-2.88,1.72-4.31,2.58l-.07,0a1.41,1.41,0,0,1-1.43-2.42l.08,0c1.53-.78,3-1.59,4.59-2.33s3.09-1.48,4.69-2.1a98.35,98.35,0,0,1,9.65-3.49,90.36,90.36,0,0,1,9.95-2.35A56.78,56.78,0,0,1,314.48,281.34Z"></path><path d="M146,483.64A2.72,2.72,0,0,1,144,479l.08-.08c6.62-6,12.9-11.34,19.24-16.46,3.39-2.75,6.77-5.35,10-7.72a87.67,87.67,0,0,1,10.77-6.9,1.38,1.38,0,0,1,.64-.16,1.41,1.41,0,0,1,.71,2.62,82.35,82.35,0,0,0-10,7.19c-3.09,2.5-6.28,5.22-9.48,8.1-5.9,5.3-12,11.09-18.13,17.23A2.73,2.73,0,0,1,146,483.64Z" class="cls-1"></path><path d="M187.27,447.74a2.76,2.76,0,0,0-1.22-1.15,2.67,2.67,0,0,0-1.24-.3,2.81,2.81,0,0,0-1.28.31c-.36.19-.72.38-1.07.58-.74.4-1.47.82-2.19,1.25s-1.53.94-2.27,1.43c-1.94,1.26-3.75,2.55-5.42,3.75-3.29,2.39-6.69,5-10.11,7.78-2.94,2.37-5.87,4.8-8.82,7.33q-1.14,1-2.28,1.95l-2.28,2L146,475.4l-2.24,2-.52.46-.15.14a4.13,4.13,0,0,0-1,4.09,3.87,3.87,0,0,0,.92,1.6.69.69,0,0,0,.11.13,4.1,4.1,0,0,0,1.54,1A3.91,3.91,0,0,0,146,485h0a4,4,0,0,0,1.6-.34,4.09,4.09,0,0,0,1.28-.87c6.12-6.13,12.2-11.9,18.09-17.18,3.18-2.87,6.35-5.58,9.42-8.07,1.19-1,2.47-2,3.81-3,.46-.35.93-.7,1.4-1s1-.69,1.46-1c1-.72,2.1-1.4,3.18-2a2.82,2.82,0,0,0,1-3.78Zm-9.73,6.35c-1,.76-1.95,1.53-2.92,2.31-3.25,2.63-6.43,5.36-9.54,8.16q-7.91,7.11-15.47,14.6-1.17,1.14-2.34,2.31c-.13.12-.25.25-.37.37h0a1.31,1.31,0,0,1-.93.38,1.25,1.25,0,0,1-.43-.07,1.27,1.27,0,0,1-.5-.31,1.31,1.31,0,0,1,0-1.85l.05-.05c.62-.56,1.24-1.12,1.87-1.67l2.25-2,2.25-2q6.3-5.51,12.79-10.75c3.26-2.64,6.58-5.21,10-7.68,1-.74,2.06-1.47,3.1-2.19.39-.28.79-.55,1.19-.81h0l1.68-1.09c1.5-1,3-1.86,4.62-2.68-1.68,1-3.29,2.06-4.86,3.19-.43.31-.86.62-1.28.95h0Zm2.73-5.66c-.77.47-1.53.94-2.27,1.43-1.94,1.26-3.75,2.55-5.42,3.75-3.29,2.39-6.69,5-10.11,7.78-2.94,2.37-5.87,4.8-8.82,7.33-.38.93-.75,1.86-1.11,2.78l-2.26,2c-.37.94-.72,1.87-1.08,2.8l2.25-2q6.3-5.51,12.79-10.75c3.26-2.64,6.58-5.21,10-7.68,1-.74,2.06-1.47,3.1-2.19.39-.28.79-.55,1.19-.81h0l1.68-1.09c.2-.43.48-1,.87-1.81.07-.17.16-.35.25-.53.33-.66.71-1.42,1.15-2.26C181.72,447.58,181,448,180.27,448.43Z"></path><path d="M253.5,301.72a2.71,2.71,0,0,1-2.68-2.26,1.49,1.49,0,0,1,0-.21c-.26-2.81-.76-5.76-1.23-8.28s-1-5.24-1.77-8.3c-.65-2.8-1.41-5.63-2.12-8.25-.68-2.46-1.44-5.06-2.4-8.2a1.41,1.41,0,0,1,.88-1.74,1.44,1.44,0,0,1,.46-.08,1.39,1.39,0,0,1,1.3.9c1.21,3.09,2.18,5.66,3.05,8.08.93,2.58,1.9,5.37,2.79,8.2,1,3.08,1.79,5.81,2.46,8.34.71,2.69,1.43,5.56,2,8.64a2.7,2.7,0,0,1-2.22,3.12A2.35,2.35,0,0,1,253.5,301.72Z" class="cls-1"></path><path d="M257.55,298.33c-.07-.4-.14-.8-.22-1.2s-.17-.91-.26-1.36-.14-.67-.22-1q-.19-.88-.39-1.74c-.11-.43-.21-.86-.32-1.28,0-.14-.07-.28-.11-.42-.15-.6-.3-1.18-.45-1.76l-.21-.78c-.25-.93-.52-1.88-.81-2.87-.44-1.51-.93-3.09-1.46-4.77-.9-2.84-1.88-5.64-2.8-8.24-.53-1.45-1.09-3-1.71-4.61l-.61-1.6c-.22-.55-.44-1.13-.67-1.72,0-.06-.05-.13-.08-.2a2.82,2.82,0,0,0-2.61-1.78,2.66,2.66,0,0,0-.92.16,2.63,2.63,0,0,0-.82.46,2.77,2.77,0,0,0-.94,3h0c.22.71.42,1.39.62,2.05s.41,1.37.6,2c.43,1.45.81,2.8,1.17,4.09.7,2.6,1.45,5.39,2.1,8.2.72,3.05,1.3,5.74,1.77,8.24s1,5.39,1.2,8.1v0a.77.77,0,0,0,0,.15,1.1,1.1,0,0,0,0,.18,4.35,4.35,0,0,0,.5,1.39,3.82,3.82,0,0,0,.83,1l.1.09a3.74,3.74,0,0,0,1.16.67,2.66,2.66,0,0,0,.55.16,3.85,3.85,0,0,0,.83.11h.08a5.34,5.34,0,0,0,.69-.05l.17,0a3.62,3.62,0,0,0,1-.37,4.11,4.11,0,0,0,2.09-2.56c0-.11,0-.23.08-.36a4.52,4.52,0,0,0,.06-.74A3.79,3.79,0,0,0,257.55,298.33Zm-4.83,1.73a.21.21,0,0,1-.08-.06,1.28,1.28,0,0,1-.44-.77.34.34,0,0,0,0-.1v-.05c0-.23,0-.46-.07-.69,0-.41-.09-.82-.14-1.23l-.09-.7c-.26-1.9-.59-3.84-.94-5.74-.52-2.8-1.13-5.59-1.79-8.37s-1.38-5.54-2.13-8.3c-.28-1-.57-2-.87-3.05-.13-.47-.26-.93-.4-1.39s-.3-1-.47-1.55c-.21-.75-.44-1.5-.67-2.25l.81,2.09.57,1.5c.18.47.35.93.52,1.39.39,1,.76,2,1.13,3.06,1,2.7,1.91,5.41,2.77,8.15s1.7,5.5,2.45,8.28c.13.49.26,1,.38,1.48.2.76.39,1.53.57,2.3.06.24.11.49.17.74s.15.67.22,1c.13.59.25,1.19.36,1.79a3.89,3.89,0,0,1,.09.47c.05.24.09.48.13.72a1.31,1.31,0,0,1-.64,1.35,1.29,1.29,0,0,1-.44.16l-.22,0A1.26,1.26,0,0,1,252.72,300.06Zm2.61-5.64c-.13-.58-.26-1.15-.4-1.72-.08-.32-.16-.63-.23-.94-.16-.62-.32-1.24-.48-1.84l-.3-1.11c.22-1,.43-1.93.64-2.89-.44-1.51-.93-3.09-1.46-4.77-.9-2.84-1.88-5.64-2.8-8.24-.53-1.45-1.09-3-1.71-4.61l-.61-1.6c-.22-.55-.44-1.13-.67-1.72-.32.6-.63,1.11-.91,1.55l-.43-1.1c.07.49.13,1,.19,1.46-.28.42-.53.76-.73,1l.57,1.5c.18.47.35.93.52,1.39.39,1,.76,2,1.13,3.06,1,2.7,1.91,5.41,2.77,8.15s1.7,5.5,2.45,8.28c.13.49.26,1,.38,1.48.2.76.39,1.53.57,2.3.06.24.11.49.17.74s.15.67.22,1c.13.59.25,1.19.36,1.79a3.89,3.89,0,0,1,.09.47c.06-.28.13-.55.2-.83.19-.8.38-1.6.56-2.4A3.15,3.15,0,0,0,255.33,294.42Z"></path><path d="M352.82,167.66a2.31,2.31,0,0,1-1.12-.29,2.34,2.34,0,0,1-1.12-1.4,2.29,2.29,0,0,1,.21-1.77,1.19,1.19,0,0,1,.09-.15,51,51,0,0,0,3.05-5.26c1-2,1.82-3.85,2.5-5.61.76-1.94,1.44-3.91,2-5.86.66-2.18,1.17-4.14,1.56-6a1.4,1.4,0,0,1,1.37-1.11l.24,0a1.39,1.39,0,0,1,1.15,1.57c-.27,2-.65,4-1.17,6.35-.47,2.07-1,4.17-1.67,6.25-.58,1.9-1.3,3.91-2.21,6.12a55.39,55.39,0,0,1-2.88,5.93A2.33,2.33,0,0,1,352.82,167.66Z" class="cls-1"></path><path d="M364.05,140.68a2.88,2.88,0,0,0-1-1.34h0a2.64,2.64,0,0,0-1.14-.48,2.59,2.59,0,0,0-.48,0,2.8,2.8,0,0,0-2.74,2.22c-.07.32-.14.64-.22,1s-.22.94-.34,1.42-.24.91-.37,1.38c-.19.68-.39,1.38-.61,2.11-.58,1.91-1.25,3.84-2,5.75-.66,1.72-1.46,3.52-2.44,5.5l-.18.35c-.26.52-.55,1-.86,1.59-.21.37-.43.76-.66,1.15l-.24.38-.32.52-.24.38-.47.73a1.87,1.87,0,0,0-.15.26c0,.08-.09.16-.12.24a.14.14,0,0,0,0,.06,3.71,3.71,0,0,0,1,4.38,3.67,3.67,0,0,0,.56.38,3.2,3.2,0,0,0,1,.37,3.15,3.15,0,0,0,.81.1H353a3.4,3.4,0,0,0,1.37-.32,3.44,3.44,0,0,0,1.24-.9,3.48,3.48,0,0,0,.51-.7c.27-.5.54-1,.79-1.46s.44-.86.64-1.27.43-.87.62-1.29c.33-.7.63-1.38.9-2.05.92-2.25,1.66-4.3,2.25-6.26s1.22-4.22,1.7-6.33c.38-1.68.69-3.24.92-4.73.11-.59.19-1.17.27-1.74A2.91,2.91,0,0,0,364.05,140.68Zm-3.28,4.75c-.16.81-.34,1.62-.52,2.42-.47,2.07-1,4.11-1.64,6.14s-1.35,4-2.16,6c-.32.78-.67,1.55-1,2.32q-.3.65-.63,1.29c-.07.15-.15.3-.23.45s-.28.55-.43.82-.32.6-.49.9c0,0,0,0,0,0a.95.95,0,0,1-1.25.34.49.49,0,0,1-.14-.11.89.89,0,0,1-.29-1,.67.67,0,0,1,.07-.18l0-.06,0,0,.24-.38c.21-.31.4-.62.6-.94a3.37,3.37,0,0,0,.19-.32c.26-.41.51-.82.75-1.24h0q.72-1.23,1.35-2.49c.92-1.87,1.79-3.78,2.55-5.73s1.45-3.94,2.06-6c.23-.76.46-1.52.66-2.29.14-.47.26-.95.38-1.43s.27-1.07.38-1.61c.07-.26.12-.52.18-.78,0,.25-.07.49-.11.74-.07.54-.16,1.07-.26,1.61S360.86,144.94,360.77,145.43Zm-.31-2.79h-.12a2,2,0,0,1-.59-.08c-.1.45-.21.9-.33,1.37a5.82,5.82,0,0,1-1.32-.5c-.11.45-.24.91-.37,1.38-.19.68-.39,1.38-.61,2.11-.58,1.91-1.25,3.84-2,5.75-.66,1.72-1.46,3.52-2.44,5.5l-.18.35c-.26.52-.55,1-.86,1.59-.21.37-.43.76-.66,1.15l-.24.38-.32.52c.05.15.1.3.14.45l.58.11c.08.2.15.39.21.59s.23.64.33,1h0l.61.15c.21-.31.4-.62.6-.94a3.37,3.37,0,0,0,.19-.32c.26-.41.51-.82.75-1.24h0q.72-1.23,1.35-2.49c.92-1.87,1.79-3.78,2.55-5.73s1.45-3.94,2.06-6c.23-.76.46-1.52.66-2.29.14-.47.26-.95.38-1.43s.27-1.07.38-1.61A1.74,1.74,0,0,1,360.46,142.64Z"></path><path d="M387.68,145.36a2.33,2.33,0,0,1-.94-.2,2.33,2.33,0,0,1-1.19-3.07l.06-.12a65.67,65.67,0,0,0,2.95-6.52c.91-2.44,1.66-4.68,2.28-6.85.68-2.33,1.28-4.7,1.8-7,.57-2.61,1-5,1.32-7.16a1.41,1.41,0,0,1,1.39-1.2h.16a1.41,1.41,0,0,1,1.24,1.51c-.19,2.29-.49,4.72-.91,7.44-.38,2.45-.84,4.93-1.38,7.37s-1.15,4.69-1.95,7.3a67.34,67.34,0,0,1-2.7,7.16A2.33,2.33,0,0,1,387.68,145.36Z" class="cls-1"></path><path d="M398.07,114a2.79,2.79,0,0,0-2.4-2.14l-.32,0a2.83,2.83,0,0,0-2.64,1.85,2.46,2.46,0,0,0-.14.55c-.07.47-.14.94-.22,1.43-.28,1.75-.64,3.6-1.09,5.63-.5,2.32-1.1,4.66-1.76,7-.52,1.81-1.13,3.68-1.87,5.68-.12.35-.25.71-.39,1.07-.3.78-.62,1.56-1,2.34-.47,1.1-1,2.21-1.55,3.31l-.07.14c-.08.18-.18.36-.27.54a2.24,2.24,0,0,0-.11.22,3.36,3.36,0,0,0-.24.74,3.91,3.91,0,0,0,0,1.23,2,2,0,0,0,0,.24,2.74,2.74,0,0,0,.09.39,3.28,3.28,0,0,0,.38.83.36.36,0,0,0,0,.09,3.63,3.63,0,0,0,.65.76,2.67,2.67,0,0,0,.61.45,2.75,2.75,0,0,0,.38.2l.27.11a3.45,3.45,0,0,0,.77.18,3.59,3.59,0,0,0,.47,0,3.31,3.31,0,0,0,.83-.1,3.61,3.61,0,0,0,1.24-.53,3.67,3.67,0,0,0,1.08-1.11,0,0,0,0,1,0,0,1.82,1.82,0,0,0,.16-.31.65.65,0,0,0,.09-.16c.46-1,.89-2.08,1.29-3.12s.76-2,1.09-3c.14-.39.26-.77.38-1.15.27-.87.52-1.71.74-2.53s.48-1.72.69-2.56.38-1.56.55-2.33c0-.08,0-.16.05-.24.52-2.39,1-4.82,1.35-7.21.27-1.8.5-3.49.67-5.08.07-.57.12-1.13.17-1.68,0-.26.05-.52.07-.78A2.58,2.58,0,0,0,398.07,114Zm-6,19.22c-.26,1-.54,1.92-.83,2.88,0,.12-.07.24-.11.36-.27.86-.56,1.71-.87,2.56q-.8,2.22-1.76,4.41v0a.42.42,0,0,1-.08.12.75.75,0,0,1-.35.31h0a.77.77,0,0,1-.41.11,1,1,0,0,1-.38-.08.85.85,0,0,1-.25-.17.91.91,0,0,1-.24-1,.19.19,0,0,1,0-.07l0,0v0l.13-.26.37-.74c.51-1,1-2,1.42-3.05.38-.85.74-1.72,1.07-2.59.11-.29.22-.58.32-.87.74-2,1.42-4,2-6.09q1-3.54,1.81-7.14c.32-1.47.62-2.95.88-4.43.09-.47.17-.93.24-1.4s.16-1,.23-1.42c0,.48-.08,1-.13,1.45s-.1,1-.16,1.42q-.26,2.23-.6,4.47c-.38,2.44-.84,4.86-1.37,7.28C392.8,130.54,392.47,131.86,392.11,133.17Z"></path><path d="M381.55,151.79a2.19,2.19,0,0,1-.83-.16,2.32,2.32,0,0,1-1.34-3,1.22,1.22,0,0,1,.07-.17,29.83,29.83,0,0,0,1.88-4.62,34.43,34.43,0,0,0,1.15-4.89,42,42,0,0,0,.49-5.08,37.46,37.46,0,0,0-.16-5.08,1.41,1.41,0,0,1,1.18-1.54h.21a1.4,1.4,0,0,1,1.38,1.13,39.09,39.09,0,0,1,.65,5.47,44.28,44.28,0,0,1-.05,5.52,36.63,36.63,0,0,1-.79,5.53,33.6,33.6,0,0,1-1.66,5.4A2.34,2.34,0,0,1,381.55,151.79Z" class="cls-1"></path><path d="M387.63,133.89v-.12c-.08-1.36-.2-2.63-.37-3.82-.09-.64-.19-1.25-.31-1.85,0-.06,0-.12,0-.18a2.84,2.84,0,0,0-1-1.48,2.81,2.81,0,0,0-1.74-.61,2.06,2.06,0,0,0-.42,0,2.79,2.79,0,0,0-2.37,3.07c0,.18,0,.36,0,.54.05.49.08,1,.1,1.53,0,.89,0,1.82,0,2.82a40.5,40.5,0,0,1-.48,4.88A31.69,31.69,0,0,1,380,143.4s0,0,0,0a26.18,26.18,0,0,1-1.43,3.62l-.35.72v0a2.21,2.21,0,0,0-.13.29,3.64,3.64,0,0,0-.21,1.84,3.39,3.39,0,0,0,.29,1,2.93,2.93,0,0,0,.23.43,3.45,3.45,0,0,0,1.32,1.28,3.11,3.11,0,0,0,.52.25,3.34,3.34,0,0,0,.92.22,2.83,2.83,0,0,0,.41,0,3.81,3.81,0,0,0,3.25-1.88,4.9,4.9,0,0,0,.24-.52l.24-.64c.16-.42.31-.87.47-1.32.09-.28.19-.56.28-.85l.15-.49c.09-.31.17-.62.26-.94s.13-.52.18-.79a4.7,4.7,0,0,0,.12-.51s0-.05,0-.08h0c.06-.27.12-.55.16-.82s.09-.42.13-.63.1-.54.13-.8.1-.61.14-.91c0-.14,0-.28.05-.41.08-.61.14-1.2.18-1.79l0-.36c0-.61.07-1.22.08-1.82a0,0,0,0,0,0,0C387.71,136.35,387.7,135.11,387.63,133.89Zm-5.21,15.9a.95.95,0,0,1-.87.6.78.78,0,0,1-.33-.07.91.91,0,0,1-.53-1.19.15.15,0,0,1,0-.07l0-.05.12-.26c.2-.41.4-.83.59-1.25.34-.77.66-1.55.93-2.35.11-.3.21-.61.3-.92.17-.55.33-1.11.47-1.67,0-.14.08-.29.11-.44a30,30,0,0,0,.6-3,41.35,41.35,0,0,0,.51-5.23c0-.83,0-1.65,0-2.48q0-.7-.06-1.41c0-.46-.07-.93-.12-1.39q.14.69.24,1.38c.07.46.13.93.18,1.39.1.83.16,1.67.21,2.51a41.39,41.39,0,0,1-.05,5.34q0,.7-.12,1.41a.22.22,0,0,1,0,.08c0,.48-.11,1-.19,1.44,0,.32-.1.64-.16,1,0,.17-.06.34-.1.52a3.43,3.43,0,0,1-.09.44c0,.16-.06.32-.09.48-.07.37-.16.74-.25,1.1-.16.64-.35,1.27-.56,1.89-.15.47-.32.93-.49,1.4-.09.27-.19.53-.3.8Zm1.51-1.73a2,2,0,0,1-.72-.48c-.15.47-.32.93-.49,1.4-.09.27-.19.53-.3.8.21-.21.4-.42.59-.62l1-1.06Z"></path><path d="M411.31,154q-1.4,0-2.79-.06a66.94,66.94,0,0,1-16.68-2.92c-1.08-.31-2.17-.71-3.22-1.09l-.77-.28c-.89-.33-1.76-.7-2.59-1.06l-1.33-.56a2.33,2.33,0,0,1,.89-4.48,2.42,2.42,0,0,1,.88.17l.14.06,1.37.67c.78.4,1.52.77,2.29,1.1l.76.32c1,.43,1.94.84,2.91,1.17a60.55,60.55,0,0,0,7.69,2.33,59.94,59.94,0,0,0,7.9,1.31,51,51,0,0,0,5.29.29h0c.92,0,1.82,0,2.67-.09h.1a1.41,1.41,0,0,1,.18,2.8A45.78,45.78,0,0,1,411.31,154Z" class="cls-1"></path><path d="M417.44,149.57a2.74,2.74,0,0,0-.5-.07h-.34l-.71,0c-.5,0-1,0-1.53,0h-.31a51.4,51.4,0,0,1-5.16-.28,61.7,61.7,0,0,1-15.17-3.54l-.09,0c-.84-.29-1.66-.64-2.53-1l-.1,0-.18-.08-.78-.34-.31-.14h0c-.42-.18-.84-.38-1.27-.6h0l-.58-.29-.65-.32a2.53,2.53,0,0,0-.37-.18l-.13-.07-.19-.09-.07,0-.18-.09-.38-.13-.37-.09-.27,0a2.6,2.6,0,0,0-.4,0l-.36,0a3,3,0,0,0-.43.06,4.37,4.37,0,0,0-.88.31,3.75,3.75,0,0,0-1.78,1.92,3.71,3.71,0,0,0-.24,2,4,4,0,0,0,.32,1,1.87,1.87,0,0,0,.22.39,3.52,3.52,0,0,0,1.05,1.09,1.75,1.75,0,0,0,.29.18,3.54,3.54,0,0,0,.39.19l.59.25.35.15.37.16.57.24.44.19c.53.22,1.08.44,1.64.65l.78.29c1.06.38,2.16.78,3.31,1.11s2.4.73,3.71,1c1,.26,2.14.5,3.32.74l1.36.25c1.14.21,2.32.39,3.53.53s2.55.27,3.91.36l1.16.06,1.45,0,1.42,0h.23c1.18,0,2.3,0,3.37-.12q.81-.06,1.59-.15l.64-.07a3,3,0,0,0,.94-.28,2.8,2.8,0,0,0-.64-5.24Zm-3.41,3c-.91.05-1.81.07-2.72.07s-1.82,0-2.73-.06l-.84,0c-1.43-.08-2.86-.2-4.28-.38q-1.56-.19-3.12-.48a62.38,62.38,0,0,1-8.07-1.95c-1.34-.38-2.64-.88-3.95-1.35l-.52-.2c-.47-.18-.94-.38-1.4-.57l-.22-.1-1.13-.48-.17-.07-.42-.18a.93.93,0,0,1-.5-1.21.67.67,0,0,1,.11-.18.55.55,0,0,1,.18-.19l.06-.05a.88.88,0,0,1,.22-.1.93.93,0,0,1,.29-.05.91.91,0,0,1,.35.07l0,0,.07,0,.06,0c.35.16.69.33,1,.51l.25.12,1,.51c.28.14.56.27.85.39l.43.2.07,0c1.23.52,2.44,1.07,3.7,1.51a64,64,0,0,0,7.82,2.36,62.77,62.77,0,0,0,8.08,1.35,54,54,0,0,0,5.4.29h0l1.37,0,1.4-.07c-.46.06-.92.11-1.39.15Zm2.8-.25h0M384.53,145a.93.93,0,0,1,.29-.05.91.91,0,0,1,.35.07l0,0,.07,0,.06,0c.35.16.69.33,1,.51l.25.12,1,.51c.28.14.56.27.85.39l.43.2.07,0c1.23.52,2.44,1.07,3.7,1.51a64,64,0,0,0,7.82,2.36,62.77,62.77,0,0,0,8.08,1.35,54,54,0,0,0,5.4.29h0l1.37,0,1.4-.07c-.46.06-.92.11-1.39.15l-1.4.1c-.91.05-1.81.07-2.72.07s-1.82,0-2.73-.06l-.84,0c-1.43-.08-2.86-.2-4.28-.38q-1.56-.19-3.12-.48a62.38,62.38,0,0,1-8.07-1.95c-1.34-.38-2.64-.88-3.95-1.35l-.52-.2c-.47-.18-.94-.38-1.4-.57l-.22-.1-1.13-.48-.17-.07-.42-.18a.93.93,0,0,1-.5-1.21.67.67,0,0,1,.11-.18.55.55,0,0,1,.18-.19l.06-.05a.88.88,0,0,1,.22-.1" class="cls-4"></path><path d="M338.22,200.42a2.36,2.36,0,0,1-1.49-.53,2.33,2.33,0,0,1-.83-1.58,2.29,2.29,0,0,1,.53-1.7l.07-.08a34.28,34.28,0,0,1,3.73-3.52,39.47,39.47,0,0,1,4.19-2.87,47,47,0,0,1,4.45-2.3c1.49-.66,3-1.26,4.61-1.8a65.83,65.83,0,0,1,9.5-2.44,69.77,69.77,0,0,1,9.69-1.11h.06a1.4,1.4,0,0,1,.12,2.8,65.2,65.2,0,0,0-9.21,1.51,63,63,0,0,0-8.88,2.74c-1.43.57-2.85,1.2-4.19,1.88a44,44,0,0,0-3.94,2.28,34.17,34.17,0,0,0-3.56,2.71,29.49,29.49,0,0,0-3.05,3.16A2.33,2.33,0,0,1,338.22,200.42Z" class="cls-1"></path><path d="M373.78,181.3a2.63,2.63,0,0,0-1-.21h-.11l-.43,0c-.54,0-1.08.06-1.63.1a74.11,74.11,0,0,0-7.83,1,70.68,70.68,0,0,0-7.41,1.76l-.55.17c-.58.17-1.16.36-1.73.55l-.21.07h0l-.1,0c-.65.23-1.3.47-1.93.72-.28.1-.55.21-.82.33s-.67.27-1,.42l-.66.28c-.81.36-1.61.74-2.4,1.16s-1.47.78-2.19,1.2c-.51.3-1,.62-1.5,1a34.13,34.13,0,0,0-2.83,2,35,35,0,0,0-3.93,3.68l-.12.14a3.72,3.72,0,0,0-.84,2.72c0,.12,0,.23.05.35a3.7,3.7,0,0,0,.6,1.43,4,4,0,0,0,.68.74,3.43,3.43,0,0,0,.72.47,3.51,3.51,0,0,0,1.49.39h.18a3.65,3.65,0,0,0,2.48-1,3.5,3.5,0,0,0,.38-.39,28.27,28.27,0,0,1,2.94-3,32.35,32.35,0,0,1,3.4-2.58,41.37,41.37,0,0,1,3.79-2.2c1.3-.65,2.68-1.27,4.08-1.83a63.5,63.5,0,0,1,8.66-2.67c2.3-.53,4.44-.93,6.5-1.2l1.48-.18,1-.1a2.28,2.28,0,0,0,.51-.09,2.8,2.8,0,0,0,.3-5.29ZM371.33,184l-1.42.17c-2.22.3-4.42.72-6.59,1.23a66.08,66.08,0,0,0-9.07,2.8c-1.47.59-2.9,1.23-4.31,1.93h0c-1.26.65-2.49,1.36-3.67,2.12l-.37.23a37.86,37.86,0,0,0-3.72,2.82,32.52,32.52,0,0,0-3.21,3.33v0a1,1,0,0,1-.15.14h0a1,1,0,0,1-.55.18,1,1,0,0,1-.6-.21.94.94,0,0,1-.12-1.31l0,0a34.5,34.5,0,0,1,3.58-3.37,40.32,40.32,0,0,1,4-2.76l.19-.11c1.09-.63,2.21-1.22,3.35-1.75l.77-.36c.72-.32,1.45-.62,2.18-.91s1.53-.58,2.31-.85a66.76,66.76,0,0,1,9.3-2.38c2.22-.4,4.45-.72,6.69-.91.47,0,.94-.08,1.41-.11l1.4-.07Zm-1.25-1.38a7,7,0,0,1,.48-1.44,74.11,74.11,0,0,0-7.83,1,70.68,70.68,0,0,0-7.41,1.76l-.55.17c-.58.17-1.16.36-1.73.55l-.21.07h0l-.1,0c-.65.23-1.3.47-1.93.72-.28.1-.55.21-.82.33s-.38.45-.58.67l-1.56,1.79-2.51,2.91c1.09-.63,2.21-1.22,3.35-1.75l.77-.36c.72-.32,1.45-.62,2.18-.91s1.53-.58,2.31-.85a66.76,66.76,0,0,1,9.3-2.38c2.22-.4,4.45-.72,6.69-.91.47,0,.94-.08,1.41-.11a.85.85,0,0,1,0-.16,5.58,5.58,0,0,1,.22-1.25C371.06,182.57,370.57,182.61,370.08,182.65Z"></path><path d="M351.1,185.55a2.37,2.37,0,0,1-1-.23A2.33,2.33,0,0,1,348.9,184a2.29,2.29,0,0,1,.11-1.78.91.91,0,0,1,.07-.14,15.39,15.39,0,0,0,1.8-6.08,28,28,0,0,0-.26-6.82,44.42,44.42,0,0,0-1.61-6.86,54.31,54.31,0,0,0-2.57-6.63,1.38,1.38,0,0,1,.63-1.84,1.31,1.31,0,0,1,.63-.16,1.38,1.38,0,0,1,1.23.73,54.17,54.17,0,0,1,3.16,6.82,48.73,48.73,0,0,1,2.2,7.27,31.55,31.55,0,0,1,.77,7.76,19.61,19.61,0,0,1-1.86,8A2.35,2.35,0,0,1,351.1,185.55Z" class="cls-1"></path><path d="M356.43,173.62s0,0,0,0,0-.05,0-.07c0-.51-.07-1-.14-1.53,0-.13,0-.25,0-.38-.13-1.11-.33-2.25-.58-3.43,0-.12-.05-.25-.08-.37-.14-.61-.29-1.23-.46-1.85-.08-.3-.16-.59-.25-.89s-.2-.68-.32-1c-.05-.18-.11-.37-.18-.56-.16-.52-.34-1-.53-1.58h0l-.44-1.17-.21-.54q-.35-.87-.69-1.68c-.44-1-.9-2-1.37-3-.28-.56-.57-1.11-.86-1.64l-.11-.2a2.68,2.68,0,0,0-1.1-1.09,2.81,2.81,0,0,0-2.64,0,2.83,2.83,0,0,0-1.25,3.69s0,.07.05.1c.23.5.46,1,.69,1.55.38.89.74,1.82,1.08,2.8.17.47.34,1,.5,1.44l.18.57.27.88a41.13,41.13,0,0,1,1.29,5.75,26.26,26.26,0,0,1,.25,6.48,15.87,15.87,0,0,1-.39,2.34,11.17,11.17,0,0,1-.41,1.35,10.6,10.6,0,0,1-.54,1.29.22.22,0,0,1-.05.08,4.16,4.16,0,0,1-.24.47l-.1.21a3.7,3.7,0,0,0-.32,2.28,2.91,2.91,0,0,0,.15.58,3.57,3.57,0,0,0,.43.85,3.45,3.45,0,0,0,1,1,2.22,2.22,0,0,0,.42.25l.09.05a3.72,3.72,0,0,0,1.4.36h.22a3.73,3.73,0,0,0,2.36-.85.52.52,0,0,0,.11-.1,3.32,3.32,0,0,0,.7-.83,3.54,3.54,0,0,0,.19-.33c.11-.23.22-.46.31-.69a14.82,14.82,0,0,0,.61-1.61,9.28,9.28,0,0,0,.35-1.17.83.83,0,0,0,.06-.21c.12-.45.22-.92.3-1.39a.55.55,0,0,0,0-.17q.09-.47.15-.93c0-.15,0-.3.05-.45.06-.48.1-1,.12-1.46,0-.16,0-.31,0-.47s0-.43,0-.65,0-.34,0-.51C356.48,174.63,356.46,174.13,356.43,173.62Zm-5.33,10.53a1,1,0,0,1-.4-.09.93.93,0,0,1-.43-1.24s0,0,0,0h0a1.86,1.86,0,0,0,.1-.2,7.68,7.68,0,0,0,.41-.81,14,14,0,0,0,.94-2.65,2,2,0,0,0,.07-.26,17.49,17.49,0,0,0,.45-2.7v0A29.17,29.17,0,0,0,352,169c-.08-.53-.17-1.05-.27-1.58-.21-1.09-.46-2.18-.75-3.26,0-.06,0-.12-.05-.17-.12-.45-.25-.9-.38-1.34,0-.15-.09-.3-.14-.45a2.76,2.76,0,0,0-.08-.27c-.08-.26-.17-.53-.26-.79-.38-1.16-.79-2.31-1.26-3.44-.17-.44-.35-.87-.54-1.3s-.38-.86-.58-1.28c.23.41.45.83.66,1.25h0c.21.42.42.84.62,1.26.57,1.17,1.09,2.37,1.56,3.59.07.15.13.31.19.46l0,.1c.13.33.25.65.36,1s.15.39.21.59.23.64.33,1h0c.08.26.16.53.25.79s.19.64.29,1q.22.79.42,1.62c.1.38.19.76.27,1.15a2.21,2.21,0,0,1,.05.25,31.81,31.81,0,0,1,.67,5.08c0,.14,0,.28,0,.42h0q0,.83,0,1.65c0,.19,0,.38,0,.57s0,.58-.07.87c-.05.51-.12,1-.21,1.54a2.21,2.21,0,0,1-.05.25,13,13,0,0,1-.32,1.37,12.47,12.47,0,0,1-.43,1.35,12.87,12.87,0,0,1-.6,1.44s0,0,0,0a.93.93,0,0,1-.84.53ZM352,169c-.08-.53-.17-1.05-.27-1.58-.21-1.09-.46-2.18-.75-3.26,0-.06,0-.12-.05-.17-.12-.45-.25-.9-.38-1.34,0-.15-.09-.3-.14-.45l-.24.38c-.4-.07-.78-.14-1.16-.19s-1-.14-1.53-.18l.18.57.27.88a41.13,41.13,0,0,1,1.29,5.75,26.26,26.26,0,0,1,.25,6.48,15.87,15.87,0,0,1-.39,2.34c.34.15.69.28,1,.4l.43-.5c0,.2-.09.4-.14.6.4.14.81.26,1.21.37l.13,0a2,2,0,0,0,.07-.26,17.49,17.49,0,0,0,.45-2.7v0A29.17,29.17,0,0,0,352,169Zm0-4.08,0-.06,0,0,.24-.38-.61-.15c.08.26.16.53.25.79A.67.67,0,0,1,352,164.88Z"></path><path d="M356.89,178.29a2.33,2.33,0,0,1-1.34-4.24l.16-.1a52.16,52.16,0,0,1,5.51-2.78c1.84-.8,3.75-1.53,5.7-2.16.68-.23,1.4-.43,2.11-.63l.78-.22,1-.24c.66-.17,1.35-.34,2.05-.47a52.27,52.27,0,0,1,6-.87h.14a1.4,1.4,0,0,1,.24,2.78,47.47,47.47,0,0,0-5.56,1.26c-.66.17-1.25.37-1.87.58l-.91.3-.7.26c-.64.24-1.28.47-1.9.74a56.12,56.12,0,0,0-5.18,2.44,47.75,47.75,0,0,0-4.8,2.91A2.37,2.37,0,0,1,356.89,178.29Z" class="cls-1"></path><path d="M381.7,167.6a2.8,2.8,0,0,0-2.74-2.43h0l-.27,0-1.19.12-1.48.18c-1.13.15-2.29.34-3.46.59-.58.1-1.13.24-1.67.37l-.43.11-.88.21-.14,0-.76.22-.26.07-.43.12c-.49.14-1,.29-1.49.47l-.34.11-.32.11-1.53.53c-.73.26-1.45.54-2.16.83l-1.46.62c-.55.24-1.07.47-1.57.71-1,.47-1.93.93-2.81,1.41l-.74.41-.55.32,0,0-.19.12a3.89,3.89,0,0,0-1.12,1.24,3.44,3.44,0,0,0-.34.84,3.38,3.38,0,0,0-.08.34,3.66,3.66,0,0,0,.12,1.8,3.61,3.61,0,0,0,.49,1,2,2,0,0,0,.23.28,3.57,3.57,0,0,0,.73.67,4.79,4.79,0,0,0,.78.4h0a2.72,2.72,0,0,0,.54.15,3.31,3.31,0,0,0,.77.09l.34,0A3.68,3.68,0,0,0,359,179c.49-.34,1-.68,1.55-1,1-.6,2-1.2,3.13-1.8a53.78,53.78,0,0,1,5-2.37l0,0c.36-.15.72-.3,1.1-.44l.73-.27.6-.23.11,0,.86-.28.37-.12c.47-.16.92-.31,1.36-.42l.1,0c1.12-.34,2.28-.61,3.41-.84l1.57-.3.43-.08a2.63,2.63,0,0,0,1.06-.44A2.76,2.76,0,0,0,381.7,167.6Zm-4.15.64c-.46.08-.92.18-1.38.27-1,.22-2,.47-3,.77-.66.18-1.31.4-2,.62l-.83.26-.62.24c-.48.17-.95.35-1.42.54h0l-.68.28c-.59.24-1.18.49-1.76.76-1.13.5-2.23,1-3.32,1.62l-.2.1c-1.23.65-2.44,1.36-3.6,2.1-.46.3-.9.59-1.34.9l0,0a.94.94,0,0,1-.53.16.89.89,0,0,1-.45-.12.8.8,0,0,1-.31-.27,1,1,0,0,1-.14-.3.93.93,0,0,1,.37-1l.06,0,.06,0c.3-.18.59-.35.89-.5,1.44-.81,2.9-1.51,4.38-2.17h0c.94-.41,1.9-.8,2.86-1.16s1.8-.65,2.71-.94h0l.17-.05c.53-.18,1.07-.33,1.61-.48l1.05-.31.53-.13c.78-.2,1.56-.4,2.35-.54,1-.22,2-.39,3-.53l1.4-.18,1.42-.14C378.47,168.06,378,168.14,377.55,168.24Zm1.16-1.65-1.4.14-1.4.18c-1,.14-2.05.31-3.08.54-.7.13-1.39.3-2.05.47l-1,.23-.34.1-.28.08c-.26.29-.53.58-.79.88s-.62.68-.92,1a.94.94,0,0,0-.1.1l.17-.05c.53-.18,1.07-.33,1.61-.48l1.05-.31.53-.13c.78-.2,1.56-.4,2.35-.54,1-.22,2-.39,3-.53l1.4-.18,1.42-.14A4.09,4.09,0,0,1,378.71,166.59Zm-21.29,10.13a.94.94,0,0,1-.53.16.89.89,0,0,1-.45-.12c0,.49-.06,1-.12,1.46l.29.05h0l2.17-2.47c-.46.3-.9.59-1.34.9Z"></path><path d="M346.86,156.61c-5.32,0-15.65-8.51-18.46-19.81-1.73-7-1.85-11.36-.35-13.8a5,5,0,0,1,3.35-2.29,5.86,5.86,0,0,1,1.26-.14c2.49,0,7.42,1.73,12.48,13.32,2.61,6,6.72,16.66,4.88,20.76a3.11,3.11,0,0,1-1.88,1.77,4.35,4.35,0,0,1-1.28.19Z" class="cls-2"></path><path d="M346.54,133.61l-.12-.28c-.17-.38-.33-.76-.5-1.12s-.45-1-.67-1.4c-4.52-9.15-9-11.46-12.18-11.64h-.41a7.08,7.08,0,0,0-1.13.09l-.45.09a7.47,7.47,0,0,0-1.13.35,6.1,6.1,0,0,0-3.1,2.58c-1.5,2.45-1.65,6.26-.43,12.15.17.86.38,1.77.62,2.72.19.77.42,1.53.68,2.27a16.23,16.23,0,0,0,.62,1.64c.2.53.43,1,.67,1.56,0,0,0,0,0,0l.21.42c.18.35.36.7.55,1s.51.93.79,1.38c4.29,7.06,10.88,11.82,15.33,12.43a5.3,5.3,0,0,0,.95.08,5.49,5.49,0,0,0,.58,0,5.9,5.9,0,0,0,1.14-.23l.24-.09.17-.07a4.33,4.33,0,0,0,1.19-.79,4.65,4.65,0,0,0,.95-1.24,3.59,3.59,0,0,0,.17-.34C352.86,151.75,351.26,144.49,346.54,133.61Zm2.18,20.5a1.68,1.68,0,0,1-1,1,2.74,2.74,0,0,1-.84.13,3.56,3.56,0,0,1-.55,0,6.83,6.83,0,0,1-1.39-.34c-3.58-1.23-8.77-5.38-12.22-11.27-.16-.26-.31-.52-.45-.79l-.29-.55c-.16-.3-.31-.61-.45-.92a4.52,4.52,0,0,1-.23-.5c-.26-.55-.49-1.11-.7-1.69s-.33-.93-.47-1.41-.25-.82-.35-1.24c-.19-.76-.36-1.49-.51-2.17-.34-1.6-.57-3-.71-4.2-.53-4.9.51-6.77,2-7.57a4.77,4.77,0,0,1,1.21-.45l.46-.08.49,0c2.94,0,6.78,3,10.58,11.14.21.43.41.88.61,1.34l0,.05c.2.46.4.93.59,1.39,2.92,6.92,4.88,13.34,4.6,16.74A4,4,0,0,1,348.72,154.11Zm-16.47-11.34-.52.87a6.56,6.56,0,0,0,1-.08C332.54,143.3,332.39,143,332.25,142.77Zm-.74-1.47-.53.87a4.35,4.35,0,0,0,.74.06H332C331.8,141.92,331.65,141.61,331.51,141.3Z"></path><path d="M387.14,191.33l-1.26,0c-7.19-.34-11.42-1.5-13.32-3.63a5,5,0,0,1-1.23-3.87c.18-2.77,2.57-7.68,16.58-9.36a96.66,96.66,0,0,1,11.12-.75c7.54,0,11.24,1.43,11.31,4.36.05,1.86-1.41,3.76-2.65,5-4,4.12-11.92,8.26-20.55,8.26Z" class="cls-2"></path><path d="M400.36,172.3H399c-.92,0-1.88,0-2.9.07-2.56.1-5.41.33-8.39.69-.64.08-1.26.16-1.86.26-1.45.21-2.78.47-4,.76-7.25,1.75-10.21,4.64-11.34,7.14a7,7,0,0,0-.48,1.44,7.1,7.1,0,0,0-.15,1.06c0,.12,0,.24,0,.36a.62.62,0,0,0,0,.13,7,7,0,0,0,.12,1.4,5.24,5.24,0,0,0,.42,1.36,6.1,6.1,0,0,0,1.06,1.65c2.2,2.46,6.61,3.72,14.3,4.09.44,0,.88,0,1.33,0,9,0,17.34-4.36,21.56-8.68,2.06-2.12,3.09-4.15,3-6C411.62,172.92,404.38,172.36,400.36,172.3Zm-13.22,17.63-1.2,0c-7.89-.38-11.18-1.71-12.46-3.31a3.1,3.1,0,0,1-.64-1.3,4.42,4.42,0,0,1-.11-1.4,4.21,4.21,0,0,1,.32-1.36,5.1,5.1,0,0,1,.73-1.23c1.82-2.36,6.21-4.5,14.29-5.47a95.21,95.21,0,0,1,11-.74c5.8,0,9.86.87,9.91,3C409,181.88,398.77,189.93,387.14,189.93Z"></path><path d="M383.84,130.07c-5.23,0-14.77-10.55-15.77-22.56-.6-7.17,0-11.52,1.86-13.68a5,5,0,0,1,3.67-1.73H374c2.68,0,7.69,2,11.08,15.22,1.63,6.34,4,17.52,1.51,21.27a3.07,3.07,0,0,1-2.14,1.44A3.58,3.58,0,0,1,383.84,130.07Z" class="cls-2"></path><path d="M386.41,107C382.78,92.8,377.06,90.69,374,90.69h-.46a6.38,6.38,0,0,0-4.65,2.21c-2.15,2.51-2.83,7-2.19,14.71.95,11.39,9,21.2,14.89,23.39a6.83,6.83,0,0,0,1.42.38,4.3,4.3,0,0,0,.86.08,4.89,4.89,0,0,0,.54,0l.24,0h0A4.79,4.79,0,0,0,386,131a4.5,4.5,0,0,0,1.28-1,3.88,3.88,0,0,0,.47-.6C389.84,126.15,389.39,118.62,386.41,107Zm-1.05,20.89a1.74,1.74,0,0,1-1.16.79,2,2,0,0,1-.36,0,3.69,3.69,0,0,1-1-.17,7.19,7.19,0,0,1-1.33-.56c-4.54-2.44-11.19-10.74-12-20.55-1-12.08,1.62-13.72,4.22-13.89H374c3.2,0,7.06,3.75,9.72,14.17,2,7.88,3.11,15.23,2.25,18.78A4.19,4.19,0,0,1,385.36,127.85Z"></path><path d="M396.13,116.2a3,3,0,0,1-1.47-.38c-1.72-1-2.62-3.4-3.07-5.26A30.47,30.47,0,0,1,395.79,88c4.43-6.7,7.79-9.69,10.88-9.69a5.23,5.23,0,0,1,3,1c2.3,1.57,5.29,6.14-.44,19-3.6,8.12-8.8,17.81-13.1,17.81Z" class="cls-2"></path><path d="M410.47,78.19a6.59,6.59,0,0,0-3.8-1.26c-3.66,0-7.26,3.08-12.05,10.31a31.94,31.94,0,0,0-4.39,23.65,11.75,11.75,0,0,0,2.12,4.73,5.17,5.17,0,0,0,1.23,1.16,3.42,3.42,0,0,0,.4.26,4.42,4.42,0,0,0,.9.38l.18,0a4.24,4.24,0,0,0,1.07.13h.33a4.23,4.23,0,0,0,1.44-.3c2.33-.9,6.45-4.45,12.62-18.34S413.12,80,410.47,78.19ZM398.07,114a4.3,4.3,0,0,1-1.32.75,2,2,0,0,1-.62.1,1.62,1.62,0,0,1-.78-.2,3.09,3.09,0,0,1-1-1,6,6,0,0,1-.69-1.26c-2.06-4.74-2.14-15.37,3.3-23.57,4.72-7.13,7.64-9.06,9.71-9.06a3.82,3.82,0,0,1,2.21.78c2.69,1.84,3.56,7.19-.93,17.31C404.65,105.26,400.94,111.71,398.07,114Z"></path><path d="M360.34,144c-1.64,0-3.54-1.13-5.34-3.19a23.23,23.23,0,0,1-5.18-17.65c1.17-8.91,3.46-12.71,7.66-12.71h.18c2.11.05,7.08,1.53,7.7,14.18.42,8.68-.07,19.08-4.81,19.37Z" class="cls-2"></path><path d="M366.76,124.6c-.49-10.18-3.82-13.75-6.54-14.94a6.8,6.8,0,0,0-1.33-.43,7.27,7.27,0,0,0-1.2-.14h-.24c-6.34,0-8.11,7-9,13.93a22.13,22.13,0,0,0-.18,3.87,18.71,18.71,0,0,0,.18,2.14c.07.65.18,1.28.31,1.9A24.55,24.55,0,0,0,354,141.78a12.23,12.23,0,0,0,3.78,3,6.18,6.18,0,0,0,1.33.47,5.47,5.47,0,0,0,1.28.16h.43a4.38,4.38,0,0,0,1.5-.4,4.65,4.65,0,0,0,1.64-1.29,12.82,12.82,0,0,0,2.37-6.15A65.85,65.85,0,0,0,366.76,124.6Zm-5.47,17.76-.07,0a1.74,1.74,0,0,1-.76.24h-.12a2,2,0,0,1-.59-.08,4.6,4.6,0,0,1-1.31-.55c-3.06-1.84-6.82-7.51-7.34-14.32a19.92,19.92,0,0,1-.05-2.45c0-.61.08-1.23.16-1.85s.13-1,.2-1.4c1.14-7.37,3-9.46,4.92-10a4.53,4.53,0,0,1,1.15-.14h.14l.27,0a4,4,0,0,1,1.36.38c2.33,1.14,4.34,4.83,4.71,12.44.28,5.83,0,11.29-.93,14.61h0a9.69,9.69,0,0,1-.51,1.42A3.68,3.68,0,0,1,361.29,142.36Zm-2.85-.35c-3.06-1.84-6.82-7.51-7.34-14.32a19.92,19.92,0,0,1-.05-2.45c0-.61.08-1.23.16-1.85s.13-1,.2-1.4c-.57,1-1.14,1.89-1.74,2.79a21.19,21.19,0,0,0,0,2.52c-.41.59-.82,1.17-1.24,1.73.07.65.18,1.28.31,1.9A24.55,24.55,0,0,0,354,141.78a12.23,12.23,0,0,0,3.78,3c.13-.47.26-.93.37-1.38a5.82,5.82,0,0,0,1.32.5c.12-.47.23-.92.33-1.37A4.6,4.6,0,0,1,358.44,142Z"></path><path d="M427.59,158.26c-8,0-11.61-1.73-12.16-5.76-.28-2.1.4-7.24,12.79-9.84a63.1,63.1,0,0,1,12.38-1.55c1.68,0,6.79,0,7.51,3.25.34,1.54-.36,3.54-2,5.61a22.9,22.9,0,0,1-16.91,8.26l-1.62,0Z" class="cls-2"></path><path d="M449.47,144.05c-1-4.34-6.92-4.34-8.87-4.34a66.87,66.87,0,0,0-12.67,1.57c-9.41,2-12.61,5.51-13.57,8.32A6,6,0,0,0,414,151a6.64,6.64,0,0,0,0,1.4.88.88,0,0,0,0,.16s0,.08,0,.12a7.14,7.14,0,0,0,.28,1.27,6.21,6.21,0,0,0,.59,1.36c2.2,3.79,7.78,4.35,12.68,4.35l1.67,0a24.37,24.37,0,0,0,18-8.8C449.14,148.39,449.92,146,449.47,144.05Zm-21.88,12.8c-5.5,0-8.18-.86-9.51-2a3.47,3.47,0,0,1-.88-1.16,4.35,4.35,0,0,1-.38-1.34,4.14,4.14,0,0,1,.06-1.4,4.62,4.62,0,0,1,.56-1.34c1.31-2.13,4.67-4.2,11.07-5.54a62.67,62.67,0,0,1,12.09-1.52c3.44,0,5.8.63,6.14,2.15.78,3.52-7.1,11.89-17.56,12.17C428.63,156.85,428.1,156.85,427.59,156.85Z"></path><path d="M387.38,173.35c-5.63,0-8.65-1.52-9.78-4.93a5.79,5.79,0,0,1,.39-4.54c1.48-2.93,5.25-5.39,11.18-7.3,6.12-2,11.49-3.05,15.12-3.05,3.28,0,5.32.89,6,2.64s.3,4-1.17,6.53a22.06,22.06,0,0,1-16,10.25,47.18,47.18,0,0,1-5.76.4Z" class="cls-2"></path><path d="M411.63,155.62l-.09-.19a4.41,4.41,0,0,0-1-1.41,6.18,6.18,0,0,0-2.8-1.5,13.19,13.19,0,0,0-3.45-.4l-.83,0a36.14,36.14,0,0,0-5,.59c-1.05.19-2.16.43-3.31.7-2,.49-4.17,1.09-6.42,1.82-6.3,2-10.34,4.72-12,8a7.37,7.37,0,0,0-.75,2.25,6.77,6.77,0,0,0-.08,1.42,6.57,6.57,0,0,0,.2,1.39.83.83,0,0,0,.06.21c0,.12.06.23.1.35a7.28,7.28,0,0,0,.39,1,7,7,0,0,0,.76,1.27,8,8,0,0,0,4.48,2.95,16.37,16.37,0,0,0,4.05.64c.46,0,.94,0,1.43,0a50,50,0,0,0,5.93-.41,22.69,22.69,0,0,0,3.06-.59,24.12,24.12,0,0,0,4-1.45,23.14,23.14,0,0,0,10-8.9C412.07,160.48,412.52,157.72,411.63,155.62ZM393,171.55a44.37,44.37,0,0,1-5.58.4c-3.66,0-5.7-.68-6.9-1.65a4.13,4.13,0,0,1-1-1.06,5.13,5.13,0,0,1-.59-1.26,4.09,4.09,0,0,1-.22-1.39,4.25,4.25,0,0,1,.25-1.42c.85-2.46,4-5.11,10.64-7.26a57.92,57.92,0,0,1,13.77-3l.92,0a9.8,9.8,0,0,1,3,.38,2.67,2.67,0,0,1,1.77,1.4C410.6,160.41,404,170.18,393,171.55Zm6.88-17.13-1.36-.25c-1.18-.24-2.28-.48-3.32-.74-2,.49-4.17,1.09-6.42,1.82-6.3,2-10.34,4.72-12,8a7.37,7.37,0,0,0-.75,2.25,6.77,6.77,0,0,0-.08,1.42l1.4-.18,1.4-.14a4.25,4.25,0,0,1,.25-1.42c.85-2.46,4-5.11,10.64-7.26a57.92,57.92,0,0,1,13.77-3C402.16,154.81,401,154.63,399.84,154.42Z"></path><path d="M407.71,127.08a2.3,2.3,0,0,1-.92,1.28l-.19.11a10.25,10.25,0,0,0-1,.71c-.3.22-.67.51-1.12.88a163.6,163.6,0,0,0-12.08,11.36l-2.64,2.68s0,0,0,0c-.29.3-.58.61-.89.92l-.14.15-1,1.07-.45.46-.81.86L386,148l-.67.68-1,1.09-.7.74c-.31.32-.61.65-.92,1-.52.55-1.05,1.11-1.58,1.69-3.72,4-7.95,8.6-12.75,13.94-.07.08-.15.16-.22.25l-1,1.07-.63.7-.31.36-1.63,1.81-2.05,2.31-2.93,3.31-2.43,2.76a.69.69,0,0,0-.11.13l-1.21,1.37-.18.2-1,1.12-1.62,1.85c-.13.15-.26.31-.41.47l-.23.27-1.61,1.86-.09.1c-.7.8-1.41,1.61-2.12,2.44l-2.43,2.81q-3.17,3.65-6.52,7.57l-1.68,2q-8.22,9.62-17.77,21l-4.11,4.91-5.63,6.73s0,0,0,0q-9.27,11.13-19.72,23.84-3.56,4.31-7.24,8.81-2.86,3.51-5.84,7.14-8.54,10.49-17.86,22l-2,2.53-.18.22-1.9,2.35L254.35,303c-.44.56-.89,1.11-1.34,1.67l-2.13,2.64c-.71.89-1.44,1.78-2.15,2.68q-3.49,4.32-7.06,8.77-18.31,22.82-33,44.58c-.43.62-.85,1.25-1.27,1.87l-1.22,1.83-.82,1.22c-.08.11-.15.23-.22.34q-.78,1.15-1.53,2.31l-.84,1.28-.93,1.43c-.3.45-.59.91-.88,1.36l-.88,1.37a541.36,541.36,0,0,0-48.75,94.29c-.37.94-.74,1.87-1.09,2.8s-.72,1.87-1.08,2.8q-1,2.63-1.93,5.2c-.26.71-.51,1.42-.76,2.12-.18.49-.35,1-.52,1.45h-5c.33-1,.68-2,1-2.94q.84-2.34,1.71-4.69,6.77-18.32,15.35-36.72,8.79-18.82,19.45-37.65c.53-1,1.08-1.93,1.64-2.89q3.81-6.66,7.86-13.31,2.82-4.62,5.75-9.25l1-1.61c.27-.44.56-.89.84-1.33l.86-1.33q2.25-3.51,4.58-7l1.73-2.58q1.32-2,2.67-4l1.17-1.7,1.23-1.79q14.06-20.34,30.15-40.4,6.09-7.59,11.9-14.79l1-1.21.57-.7.63-.79,1.44-1.78.65-.8,1.12-1.39.27-.33.86-1.06c.58-.73,1.17-1.45,1.75-2.17l2-2.48,1.95-2.39c29.83-36.78,53.56-65.22,72.38-87.2q4-4.65,7.67-8.92c1.79-2.07,3.52-4.07,5.21-6l1.78-2,.39-.45,1-1.16c.35-.39.68-.78,1-1.16l.2-.22,1.52-1.73.29-.33.95-1.08h0l.49-.54c.45-.52.9-1,1.36-1.53,0,0,0,0,0,0l.13-.15,2.53-2.86,2.83-3.18,1-1.11,1-1.12c5.28-5.88,9.89-10.92,13.93-15.23l1.79-1.92,1.48-1.57,1.25-1.32.48-.5.63-.65,0,0c.15-.17.31-.33.46-.49l.32-.33.92-1c.19-.2.39-.4.57-.6l.19-.19,1.57-1.61,1.24-1.26c.88-.89,1.7-1.72,2.49-2.49s1.4-1.39,2-2l2-1.89c3.61-3.44,5.9-5.39,7.28-6.48.77-.6,1.26-.94,1.53-1.12l.26-.15a2.38,2.38,0,0,1,1.13-.29l.26,0a2.31,2.31,0,0,1,1.78,1.19A2.25,2.25,0,0,1,407.71,127.08Z" class="cls-1"></path><path d="M408.74,124.63a3.71,3.71,0,0,0-2.21-1.77,3.65,3.65,0,0,0-1-.15,3.36,3.36,0,0,0-.63.06,3.46,3.46,0,0,0-1.17.4c-.16.09-.42.24-.82.51h0a68.65,68.65,0,0,0-7,5.89c-.57.54-1.19,1.11-1.84,1.74s-1.25,1.19-1.93,1.85l-1.93,1.91c-.8.78-1.64,1.62-2.51,2.52h0l-1.47,1.49-1.47,1.52-.06.06-1.4,1.45-2.07,2.16c-.85.89-1.73,1.82-2.63,2.79-4.54,4.82-9.86,10.6-16.07,17.54l-1,1.13-1,1.13q-2.06,2.3-4.23,4.76l-.7.79-.57.64-1.31,1.49h0c-.13.13-.24.27-.36.41l-1,1.17-1.72,2-.43.5-1,1.12-1,1.13-.07.07c-20.38,23.36-48,56.12-85.27,102-.65.79-1.29,1.58-1.93,2.38s-1.33,1.62-2,2.44c-.87,1.06-1.73,2.13-2.6,3.2l-.28.35c-.37.45-.74.91-1.1,1.37l-.62.76-.49.6L252.25,296l-.36.46c-.42.5-.82,1-1.23,1.51l-1.24,1.55Q243.33,307.05,237,315q-15.62,19.46-29.33,39.21L206.4,356c-.4.56-.78,1.12-1.16,1.68-1.08,1.57-2.15,3.15-3.21,4.72L200.31,365q-2.24,3.36-4.4,6.72l-1,1.49q-.44.66-.84,1.32t-.84,1.32q-.49.75-1,1.5-2.67,4.21-5.23,8.42-3.67,6-7.14,12c-.31.52-.61,1.05-.9,1.58l0,0c-.41.71-.82,1.42-1.22,2.13-.24.41-.47.81-.69,1.22q-10.56,18.66-19.28,37.37A481.55,481.55,0,0,0,139.49,485h3c.16-.45.31-.89.48-1.34s.38-1.08.57-1.62q.69-1.93,1.41-3.87L146,475.4q6.42-17,14.38-34.11,9.41-20.18,21-40.32,4-7,8.27-14,3.31-5.46,6.81-10.9l.85-1.34.87-1.34c1.24-1.92,2.49-3.83,3.76-5.75.57-.87,1.15-1.73,1.74-2.6.69-1,1.4-2.1,2.12-3.15.39-.59.79-1.17,1.19-1.76l1.24-1.8q14.39-20.94,31-41.62,5.91-7.36,11.55-14.35l.18-.23.88-1.09.89-1.09a1.33,1.33,0,0,1,.14-.19l1.79-2.21.29-.36.86-1.06,1.13-1.41c.22-.26.43-.53.64-.79l2-2.49,2-2.46q16.17-19.95,30-36.75,7.2-8.75,13.82-16.69c11.09-13.34,21-25.06,29.8-35.37l1-1.13,7-8.13,2.8-3.24,2.1-2.42,1-1.12,1.41-1.62c.22-.25.43-.5.66-.74l1-1.2,1-1.21.2-.22.71-.81c.31-.36.63-.71.94-1.06h0l1-1.12.48-.55.9-1,2.52-2.86,2.23-2.5,1.15-1.29,1-1.09c.33-.38.67-.74,1-1.11,4.95-5.5,9.3-10.26,13.14-14.37l1-1.09c.49-.54,1-1.06,1.46-1.57l.81-.86c.35-.37.69-.72,1-1.07l1.09-1.13.3-.32.18-.19.06-.05.18-.19c.34-.37.69-.72,1-1.07l.1-.1,0,0,1-1.07.32-.33.32-.33q1.57-1.62,3-3c.78-.8,1.53-1.54,2.24-2.24s1.41-1.39,2-2c4-3.9,6.61-6.16,8.21-7.46l1.21-.94a10.79,10.79,0,0,1,1-.68.94.94,0,0,1,.36-.11h.09a.93.93,0,0,1,.45,1.74l-.1.06h0c-.18.12-.54.36-1.14.82-.31.23-.67.52-1.1.88-1.87,1.53-5,4.35-10.11,9.38l-2.31,2.32-2.62,2.67-.13.14-.31.32h0l-.7.72-.59.61-.06.07-.37.39-.58.6-.74.77-.28.3-.75.79-1,1.06c-.19.2-.38.41-.59.62h0l-.5.52-1.23,1.31-1,1.07c-3.73,4-8,8.62-12.75,13.95l-1,1.08-.17.19-.8.89c-.38.43-.77.86-1.15,1.3-.7.77-1.4,1.56-2.11,2.36l-3,3.34-2.17,2.47h0c-.11.13-.23.26-.34.4l-.69.78h0l-.22.26c-.3.34-.59.68-.9,1l-.23.27c-.37.42-.74.84-1.1,1.27s-.78.88-1.17,1.33c0,0,0,0,0,0s-.24.26-.35.39l-1.24,1.42-.38.43c-.19.22-.38.45-.58.67l-1.56,1.79-2.51,2.91q-3.17,3.66-6.54,7.6h0l-1.26,1.46-1,1.13c-6.49,7.59-13.57,15.95-21.28,25.16-1.86,2.22-3.77,4.5-5.7,6.83q-9.31,11.16-19.8,23.91l-7.69,9.37q-10.2,12.46-21.51,26.44l-2,2.49-1.21,1.5-.84,1-.32.39q-1.17,1.44-2.34,2.91l-.2.24-1,1.3-.86,1.07-2.13,2.63-9,11.21q-17.78,22.14-32.1,43.29c-.42.62-.84,1.23-1.25,1.85L206,364.85c-.47.69-.93,1.38-1.38,2.06q-.88,1.32-1.74,2.64c-.9,1.35-1.77,2.69-2.63,4q-.45.68-.87,1.35c-.3.45-.59.9-.88,1.35-22.5,35.13-38.32,67.64-49.43,96.37-.37.94-.72,1.88-1.08,2.81L147,478.28c-.48,1.3-1,2.6-1.42,3.88-.16.44-.32.88-.47,1.32s-.32.88-.47,1.32a2.34,2.34,0,0,0-.09.24h3l.12-.34c.29-.81.58-1.63.89-2.46.37-1,.74-2.05,1.13-3.08q.9-2.4,1.84-4.85c.35-.93.72-1.87,1.09-2.81s.73-1.85,1.11-2.78a541.7,541.7,0,0,1,48.1-92.27c.28-.46.58-.92.89-1.38s.59-.92.89-1.38l.06-.1c.27-.41.53-.82.81-1.23l0,0c.48-.75,1-1.5,1.48-2.26l.26-.39c.08-.11.15-.23.23-.35l.3-.45.95-1.41,1.27-1.91c10-14.89,21.27-30.21,33.86-45.89l5.06-6.29,2.18-2.72,2.15-2.66c.91-1.14,1.82-2.26,2.73-3.38.7-.88,1.4-1.75,2.11-2.62l2.07-2.57q7.79-9.63,15-18.53l5-6.09,5.43-6.66,3.94-4.8q1.68-2,3.31-4,13.74-16.72,25.43-30.67l4-4.76,3.41-4.06q8.64-10.23,16.12-19,3.33-3.9,6.46-7.51c.94-1.08,1.86-2.15,2.75-3.19.59-.66,1.15-1.31,1.71-2s1.24-1.42,1.84-2.11l.08-.09.73-.84,1.05-1.19c.4-.47.81-.93,1.21-1.38s.83-.95,1.24-1.42.87-1,1.3-1.47l1.51-1.73,2.89-3.26,2.44-2.74,1.46-1.64a.94.94,0,0,1,.1-.1c.3-.35.61-.69.92-1s.53-.59.79-.88c.05-.06.11-.12.15-.18l1.53-1.7c4.85-5.38,9.08-10,12.77-13.9l1.17-1.24.92-1,1-1.09,1.05-1.09,1.21-1.27.74-.76.31-.32c.25-.27.51-.53.77-.79a0,0,0,0,1,0,0l.26-.27c8.08-8.3,12.42-12.12,14.53-13.81.56-.45,1-.75,1.23-1l.46-.3a3.7,3.7,0,0,0,1.74-2.21A3.71,3.71,0,0,0,408.74,124.63Zm-24,25.28-.37-.16-.35-.15.47-1.32-.44-.18-1,1.06c-.19.2-.38.41-.59.62h0l-.5.52-1.23,1.31-1,1.07c-3.73,4-8,8.62-12.75,13.95l-1,1.08-.17.19-.8.89c-.38.43-.77.86-1.15,1.3-.7.77-1.4,1.56-2.11,2.36l-3,3.34c1.16-.74,2.37-1.45,3.6-2.1l.2-.1,2.05-2.31c.89-.34,1.8-.65,2.71-.94h0a.94.94,0,0,1,.1-.1c.3-.35.61-.69.92-1s.53-.59.79-.88c.05-.06.11-.12.15-.18l1.53-1.7c4.85-5.38,9.08-10,12.77-13.9l1.17-1.24a4.9,4.9,0,0,0,.24-.52l.24-.64Zm-33,29.19-.13,0c-.4-.11-.81-.23-1.21-.37,0-.2.1-.4.14-.6l-.43.5-1,1.12-1,1.13-.07.07c-20.38,23.36-48,56.12-85.27,102-.65.79-1.29,1.58-1.93,2.38s-1.33,1.62-2,2.44c-.87,1.06-1.73,2.13-2.6,3.2-.05.25-.11.51-.17.77l-.54,2.34-.27.33a3.15,3.15,0,0,1,.09.42c-.18.8-.37,1.6-.56,2.4l.86-1.06,1.13-1.41c.22-.26.43-.53.64-.79l2-2.49,2-2.46q16.17-19.95,30-36.75,7.2-8.75,13.82-16.69c11.09-13.34,21-25.06,29.8-35.37l1-1.13,7-8.13,2.8-3.24,2.1-2.42,1-1.12,1.41-1.62c.22-.25.43-.5.66-.74l1-1.2-.75-.18A13.9,13.9,0,0,0,351.75,179.1ZM253.83,301.47l-.2.24-1,1.3-.86,1.07-2.13,2.63-9,11.21q-17.78,22.14-32.1,43.29c-.42.62-.84,1.23-1.25,1.85L206,364.85c-.47.69-.93,1.38-1.38,2.06q-.88,1.32-1.74,2.64c-.9,1.35-1.77,2.69-2.63,4q-.45.68-.87,1.35c-.3.45-.59.9-.88,1.35-22.5,35.13-38.32,67.64-49.43,96.37-.37.94-.72,1.88-1.08,2.81L147,478.28l2.25-2c.36-.93.71-1.86,1.08-2.8l2.26-2c.36-.92.73-1.85,1.11-2.78a541.7,541.7,0,0,1,48.1-92.27c.28-.46.58-.92.89-1.38s.59-.92.89-1.38l.06-.1c.27-.41.53-.82.81-1.23l0,0c.48-.75,1-1.5,1.48-2.26l.26-.39c.08-.11.15-.23.23-.35l.3-.45.95-1.41,1.27-1.91c10-14.89,21.27-30.21,33.86-45.89l5.06-6.29q.45-1.69.9-3.36c.71-.9,1.44-1.79,2.15-2.68L253,304.7c.45-.56.9-1.11,1.34-1.67l1.36-1.68c.14-.55.27-1.09.4-1.63a1.83,1.83,0,0,0,.06-.25,2.78,2.78,0,0,0,0-.91Q255,300,253.83,301.47Z"></path><path d="M178.37,401.65a1.39,1.39,0,0,1-1-.46c-.28-.31-28-31.23-26.74-74.2,1.25-42.27.25-56.4.24-56.54a1.4,1.4,0,0,1,1.4-1.51,1.39,1.39,0,0,1,.4.06c.35.11,34.82,10.85,44.84,53.08s-17.72,78.66-18,79a1.37,1.37,0,0,1-1,.54Z" class="cls-3"></path><path d="M200.45,330.87a79.62,79.62,0,0,0-1.61-9.11,84.25,84.25,0,0,0-6.68-18.5,74.71,74.71,0,0,0-20-24.8c-10-8-18.79-10.69-19.16-10.8a2.8,2.8,0,0,0-3.6,2.89c0,.09.38,5.44.38,19.3,0,2.79,0,5.91,0,9.41,0,1.2,0,2.44-.05,3.73-.09,6.72-.26,14.65-.53,24-.07,2.21-.05,4.4,0,6.54q0,.69.06,1.38a107.37,107.37,0,0,0,5.36,28.19c.18.59.38,1.16.58,1.73s.41,1.18.63,1.76A119.21,119.21,0,0,0,162.22,381a107.51,107.51,0,0,0,14.08,21.11,2.55,2.55,0,0,0,.79.6,2.7,2.7,0,0,0,1.28.32h.16a2.83,2.83,0,0,0,2.06-1.08c0-.07.31-.4.72-1a102.67,102.67,0,0,0,8.27-14c1.33-2.67,2.7-5.67,4-8.93l.2-.5q.32-.81.63-1.65c.17-.44.34-.9.5-1.36s.32-.9.48-1.36.35-1,.52-1.53c1-3,1.9-6.18,2.69-9.6.29-1.3.57-2.64.82-4A89.21,89.21,0,0,0,200.45,330.87Zm-3.25,23.72c-.21,1.37-.45,2.73-.72,4.06a103.87,103.87,0,0,1-3.95,14.26c-.16.46-.33.91-.49,1.35l-.51,1.36c-1.43,3.73-3,7.13-4.46,10.12a105.91,105.91,0,0,1-7.16,12.33c-.34.51-.64.93-.88,1.27l0,0c-.4.57-.63.86-.63.86s-.48-.53-1.31-1.54a117.52,117.52,0,0,1-17.74-30.84c-.23-.58-.45-1.16-.67-1.75s-.41-1.13-.61-1.71a103.91,103.91,0,0,1-6-30c0-.51,0-1-.06-1.55-.07-1.89-.07-3.82,0-5.77.24-8.19.4-15.32.49-21.49,0,0,0,0,0,0,0-1.3,0-2.55.06-3.76.21-16.34,0-25.23-.19-29.08-.07-1.63-.12-2.35-.12-2.35s.95.28,2.58,1c8.11,3.33,33,16.2,41.3,51.12A83.19,83.19,0,0,1,197.2,354.59Z"></path><path d="M221.19,460.35a134,134,0,0,1-41.81-6.52,1.38,1.38,0,0,1-.8-1.87c.22-.52,22.75-51.33,63.93-65.1a125.43,125.43,0,0,1,39.74-6.13,151.48,151.48,0,0,1,43.42,6.3,1.43,1.43,0,0,1,.83.77,1.39,1.39,0,0,1,0,1.13c-.22.49-22.08,48.85-64,64.31A118.78,118.78,0,0,1,221.19,460.35Z" class="cls-3"></path><path d="M327.78,387.23a2.78,2.78,0,0,0-1.67-1.53,149.8,149.8,0,0,0-43.86-6.37,126.73,126.73,0,0,0-40.18,6.2,74.73,74.73,0,0,0-11.75,5.1h0l-1.9,1.06-1.91,1.13c-.84.51-1.67,1-2.49,1.58-.42.27-.84.54-1.26.83l-.75.51-.44.31c-.4.28-.8.56-1.2.86l-.43.31c-.46.33-.91.66-1.35,1s-.83.62-1.23.94l-1.21,1a129.85,129.85,0,0,0-22.39,23.7,161.22,161.22,0,0,0-15.75,26c-.43.9-.66,1.44-.71,1.54a2.47,2.47,0,0,0-.21.75,2.87,2.87,0,0,0,.2,1.47.25.25,0,0,0,0,.07,1.94,1.94,0,0,0,.22.4,2.81,2.81,0,0,0,1.08.94,2.21,2.21,0,0,0,.27.12l1.3.45a117.72,117.72,0,0,0,14.3,3.6l1.42.27c.46.08.93.17,1.41.24l1.86.31,1.44.22,1.45.2a141.69,141.69,0,0,0,19.11,1.31A120.43,120.43,0,0,0,263,454.56c22.25-8.21,38.68-25.48,48.55-38.52a147.94,147.94,0,0,0,16.23-26.54A2.8,2.8,0,0,0,327.78,387.23ZM221.18,459a136.92,136.92,0,0,1-18-1.19l-1.45-.2c-.49-.06-1-.14-1.43-.21q-.94-.14-1.86-.3c-.48-.07-.95-.15-1.42-.24l-1.42-.25a127.42,127.42,0,0,1-12.59-3l-1.54-.48-.16-.05c-1-.32-1.49-.51-1.49-.51l.09-.22.24-.51c.2-.43.48-1,.87-1.81.07-.17.16-.35.25-.53.33-.66.71-1.42,1.15-2.26,4.85-9.35,16.44-29.13,34.25-43.93.41-.35.83-.69,1.26-1,0,0,0,0,0,0l1.21-1,1-.73,1-.79,1-.75.18-.12c.4-.3.8-.58,1.21-.85s.78-.54,1.18-.8c.66-.45,1.32-.87,2-1.29s1.29-.8,1.95-1.18A73.93,73.93,0,0,1,243,388.19a124.12,124.12,0,0,1,39.28-6.06h0a154.46,154.46,0,0,1,39.44,5.18c2.28.63,3.53,1.05,3.53,1.05s-.23.52-.7,1.47c-4,8.19-25,48.27-62.49,62.1A117.93,117.93,0,0,1,221.18,459Zm-2.24-59.16,0-.08,0,0-1.24,1-1.23,1c-19.57,16.07-31.91,38.21-36.19,46.73.72-.43,1.45-.85,2.19-1.25,4.85-9.35,16.44-29.13,34.25-43.93.41-.35.83-.69,1.26-1,0,0,0,0,0,0l1.21-1C219.14,400.74,219,400.27,218.94,399.79Z"></path><path d="M244.94,269.88a1.53,1.53,0,0,1-.69-.17c-.29-.17-29.77-16.86-39.12-48.29s-4-49.92-3.79-50.69a1.39,1.39,0,0,1,1.34-1,1.22,1.22,0,0,1,.32,0c.34.08,34.58,8.52,45.76,46.78s-2.25,52.35-2.83,52.93A1.4,1.4,0,0,1,244.94,269.88Z" class="cls-3"></path><path d="M250.11,216.15a70.75,70.75,0,0,0-17.41-30.08c-.42-.42-.83-.84-1.25-1.24s-.85-.82-1.28-1.2q-.33-.31-.66-.6c-.43-.4-.86-.77-1.29-1.13s-.87-.74-1.3-1.09c-1.53-1.24-3-2.34-4.44-3.31A67.69,67.69,0,0,0,205.42,169c-1.25-.4-2-.58-2.1-.6a2.85,2.85,0,0,0-.64-.07,2.28,2.28,0,0,0-.45,0,2.74,2.74,0,0,0-2.16,1.76,1.8,1.8,0,0,0-.08.21c-.16.54-2.7,9.46-1.36,25,0,.54.09,1.1.15,1.66s.11,1.09.18,1.64a123.78,123.78,0,0,0,2.31,13.55c.11.49.22,1,.34,1.47s.23,1,.35,1.45q.79,3.24,1.82,6.68c9,30.33,35.62,46.68,39.38,48.88l.41.23a2.61,2.61,0,0,0,1.22.34h.14a2.8,2.8,0,0,0,1.23-.28,2.6,2.6,0,0,0,.36-.21,3.19,3.19,0,0,0,.4-.33,10.35,10.35,0,0,0,.68-.78c.27-.34.61-.8,1-1.38C252.13,263,259.22,247.35,250.11,216.15Zm-4,50.74c-.28.42-.53.76-.73,1l-.14.16a5.16,5.16,0,0,1-.36.42s-.42-.23-1.18-.7l-.34-.22c-.42-.25-.91-.57-1.47-.94-7.67-5.07-28-20.47-35.47-45.6-.79-2.65-1.47-5.21-2.06-7.67-.12-.51-.24-1-.34-1.52s-.24-1-.35-1.55a119.4,119.4,0,0,1-2.14-13.6q-.09-.83-.15-1.62c-.05-.56-.1-1.11-.13-1.65a78.3,78.3,0,0,1,1-20.51c.24-1.17.42-1.78.42-1.78s.82.19,2.25.66a65.53,65.53,0,0,1,18.81,10.09c.43.33.86.66,1.29,1l1.28,1.06.55.47c.42.36.83.73,1.25,1.11s.82.75,1.22,1.14a67.21,67.21,0,0,1,18.09,30.27c8,27.21,3.21,41.92-.11,48.05-.32.6-.63,1.11-.91,1.55Q246.28,266.73,246.16,266.89Zm2.6-50.35a68.5,68.5,0,0,0-17.85-30.2c-.53.1-1.06.2-1.58.32a67.21,67.21,0,0,1,18.09,30.27c8,27.21,3.21,41.92-.11,48.05.23.59.45,1.17.67,1.72C251.46,261,257.33,245.84,248.76,216.54Z"></path><path d="M368.81,295.06c-22.38,0-49.5-10.74-78.42-31.05a1.41,1.41,0,0,1,.06-2.33c.82-.52,20.37-12.57,55.29-12.57a158.66,158.66,0,0,1,19.06,1.18c16.67,2,28.85,7.84,36.2,17.3a34.93,34.93,0,0,1,7.28,24.14,1.42,1.42,0,0,1-1.39,1.23l-.24,0a78.2,78.2,0,0,0-11.88-1,40.51,40.51,0,0,0-10.07,1.08A61.21,61.21,0,0,1,368.81,295.06Z" class="cls-3"></path><path d="M402.11,266.73C394.52,257,382,251,365,248.9c-4.67-.57-9.35-.94-14-1.1l-1.63,0-1.55,0c-.7,0-1.4,0-2.1,0a141.16,141.16,0,0,0-23.35,1.89q-3.72.63-7,1.38l-1.27.3h0c-1.32.31-2.58.63-3.79,1a100.91,100.91,0,0,0-14.14,5l-.61.27c-1.58.72-2.85,1.35-3.79,1.85-1.21.65-1.9,1.07-2,1.16a2.78,2.78,0,0,0-1.31,2.3,2.64,2.64,0,0,0,0,.56,2.74,2.74,0,0,0,1.15,1.81l2.54,1.77,1.56,1.06,1.43,1c.79.53,1.57,1,2.36,1.55a212.1,212.1,0,0,0,22.68,13l1.37.66,1.4.66c16.54,7.74,31.89,11.64,45.88,11.64a62.44,62.44,0,0,0,16.24-2,39.65,39.65,0,0,1,9.72-1,76.7,76.7,0,0,1,11.64.94,3.88,3.88,0,0,0,.48,0,2.78,2.78,0,0,0,1.66-.55,2.81,2.81,0,0,0,1.12-1.9A36.47,36.47,0,0,0,402.11,266.73Zm4.78,24.82s-1.15-.2-3-.42a80.93,80.93,0,0,0-9.09-.55,43,43,0,0,0-10.43,1.12,59.65,59.65,0,0,1-15.53,1.95c-10.21,0-24.67-2.25-43.58-10.9l-1.38-.64c-.45-.21-.91-.42-1.37-.65a206.74,206.74,0,0,1-23.12-13.09c-.78-.51-1.57-1-2.36-1.55s-1.8-1.2-2.71-1.82l-1.21-.83,0,0-1.85-1.29s1-.6,2.82-1.54l.06,0,1.19-.58a90.78,90.78,0,0,1,11.2-4.38l1.48-.47c1.21-.36,2.47-.72,3.8-1.08l1.58-.41a132.6,132.6,0,0,1,32.41-3.86h.58c.51,0,1,0,1.56,0s1.1,0,1.65,0c4.77.12,9.81.47,15.1,1.12,40.5,4.91,42.53,31.32,42.36,38.22A16.18,16.18,0,0,1,406.89,291.55Z"></path><path d="M178.37,401.65h-.1a1.41,1.41,0,0,1-1.3-1.5c.07-.9,6.23-91.09-25.8-128.89a1.4,1.4,0,0,1,2.14-1.81C186.08,308.11,180,396.6,179.77,400.35A1.41,1.41,0,0,1,178.37,401.65Z"></path><path d="M162,350.59a52.65,52.65,0,0,1,5.13,3.11,56.41,56.41,0,0,1,4.8,3.67,44,44,0,0,1,4.36,4.28,34.71,34.71,0,0,1,3.66,5,1.41,1.41,0,0,1-2.41,1.46l-.07-.14,0-.05a32.13,32.13,0,0,0-2.82-5,44.12,44.12,0,0,0-3.67-4.56A55.18,55.18,0,0,0,162,350.59Z"></path><path d="M183.43,320.55a91.12,91.12,0,0,1-1.15,13.17c-.38,2.19-.84,4.37-1.42,6.54a44.08,44.08,0,0,1-2.33,6.38,1.39,1.39,0,0,1-1.86.69,1.41,1.41,0,0,1-.69-1.86l.07-.13,0,0a41.6,41.6,0,0,0,2.79-5.73q1.17-3,2-6.17A89.81,89.81,0,0,0,183.43,320.55Z"></path><path d="M160,305.19a32.94,32.94,0,0,1,7.42,4,28.47,28.47,0,0,1,3.32,2.71,26,26,0,0,1,2.93,3.26,1.41,1.41,0,1,1-2.22,1.74.76.76,0,0,1-.12-.19l0-.06a23.1,23.1,0,0,0-2.11-3.34,26.41,26.41,0,0,0-2.66-3A32.48,32.48,0,0,0,160,305.19Z"></path><path d="M179.86,453.92a1.4,1.4,0,0,1-.82-2.54c.83-.59,83-58.89,146.06-64.42a1.41,1.41,0,0,1,.24,2.8c-62.32,5.45-143.85,63.31-144.66,63.9A1.47,1.47,0,0,1,179.86,453.92Z"></path><path d="M282.23,387.63a84.2,84.2,0,0,0-7.68,8.25q-1.79,2.17-3.39,4.46c-1.09,1.51-2.08,3.08-3,4.65l0,0a1.4,1.4,0,1,1-2.4-1.46l.1-.15c1.2-1.5,2.42-3,3.72-4.39s2.62-2.78,4-4.09A86.32,86.32,0,0,1,282.23,387.63Z"></path><path d="M242.41,398.35a130.28,130.28,0,0,0-9.94,13.15c-1.5,2.29-2.9,4.64-4.21,7a64.7,64.7,0,0,0-3.36,7.36v0a1.41,1.41,0,1,1-2.63-1l.05-.11a66.75,66.75,0,0,1,4.14-7.35c1.55-2.33,3.18-4.58,4.89-6.77A132.25,132.25,0,0,1,242.41,398.35Z"></path><path d="M205.89,434.6c3.92,1.49,8,2.78,12.11,3.91s8.26,2.08,12.45,2.87a123,123,0,0,0,12.68,1.71,99.85,99.85,0,0,0,12.83.19,100.28,100.28,0,0,1-12.86.51,123.3,123.3,0,0,1-12.87-1q-6.4-.84-12.74-2.21c-4.22-.93-8.38-2-12.56-3.32a1.4,1.4,0,1,1,.85-2.67l.07,0Z"></path><path d="M262.24,405.16c2.52,1.23,5.13,2.4,7.73,3.52s5.23,2.19,7.89,3.2a105.28,105.28,0,0,0,16.32,4.89,105.91,105.91,0,0,1-16.76-3.56c-2.75-.8-5.49-1.66-8.2-2.57s-5.41-1.87-8.11-2.92a1.4,1.4,0,1,1,1-2.61l.11,0Z"></path><path d="M406.89,293a1.41,1.41,0,0,1-.84-.28c-.24-.18-24.31-17.93-50-24.31s-64.37-4.13-64.75-4.11A1.38,1.38,0,0,1,289.8,263a1.4,1.4,0,0,1,1.31-1.49c.4,0,39.41-2.31,65.61,4.19s50.76,24.6,51,24.78a1.41,1.41,0,0,1-.84,2.53Z"></path><path d="M244.93,269.88a1.4,1.4,0,0,1-1.39-1.25c-5.45-49.49-41.6-96.18-42-96.64a1.4,1.4,0,1,1,2.2-1.73c.37.47,37,47.77,42.55,98.07a1.4,1.4,0,0,1-1.24,1.54Z"></path><path d="M321,261.68c.93-.66,1.84-1.23,2.78-1.79s1.9-1.08,2.87-1.57a24.56,24.56,0,0,1,6.09-2.2,23.38,23.38,0,0,0-5.33,3.38c-.82.66-1.6,1.36-2.37,2.07s-1.51,1.47-2.18,2.2h0a1.41,1.41,0,1,1-2.09-1.9Z"></path><path d="M334.69,262.32A39.65,39.65,0,0,1,340,267.1a44,44,0,0,1,4.39,5.45,40.93,40.93,0,0,1,3.49,6,41.9,41.9,0,0,1,2.47,6.44,42.1,42.1,0,0,0-3.08-6.11,40.6,40.6,0,0,0-4-5.48,44.67,44.67,0,0,0-4.74-4.79,37.21,37.21,0,0,0-5.31-3.92l-.06,0a1.4,1.4,0,1,1,1.44-2.41Z"></path><path d="M355.86,265.71c1.51-.47,3-.88,4.5-1.28s3-.75,4.53-1.07,3-.6,4.58-.8a27.69,27.69,0,0,1,4.63-.29,27.07,27.07,0,0,0-4.48,1c-1.47.43-2.91.93-4.34,1.47s-2.84,1.11-4.24,1.71-2.8,1.24-4.14,1.89h0a1.4,1.4,0,1,1-1.23-2.52Z"></path><path d="M379.1,274.06c.46,1.17.83,2.28,1.19,3.43s.66,2.31.93,3.47A28.16,28.16,0,0,1,382,288a27.07,27.07,0,0,0-2.12-6.62c-.47-1-1-2.09-1.53-3.1s-1.14-2-1.74-2.94h0a1.4,1.4,0,0,1,.41-2,1.42,1.42,0,0,1,2,.41C379,273.89,379.06,274,379.1,274.06Z"></path><path d="M239.83,247.36c-1.33-.93-2.76-1.82-4.19-2.68s-2.89-1.67-4.38-2.42a44.57,44.57,0,0,0-4.58-2,23.57,23.57,0,0,0-4.84-1.32,23.92,23.92,0,0,1,5,.65A46.78,46.78,0,0,1,231.8,241c1.62.55,3.22,1.17,4.79,1.84s3.13,1.36,4.69,2.15a1.41,1.41,0,0,1-1.27,2.51l-.16-.1Z"></path><path d="M210.74,211.54a57.2,57.2,0,0,1,11.46,2.68,40.24,40.24,0,0,1,5.49,2.4,25,25,0,0,1,5,3.61,1.4,1.4,0,0,1-1.93,2l-.11-.12,0,0a22.48,22.48,0,0,0-4-3.71,38.27,38.27,0,0,0-4.92-2.9,56.51,56.51,0,0,0-10.92-4Z"></path><path d="M221.7,185.74a38.37,38.37,0,0,1-.18,5.56,32.51,32.51,0,0,1-1.05,5.59,1.41,1.41,0,1,1-2.72-.77,1.92,1.92,0,0,1,.14-.33,29.44,29.44,0,0,0,2.26-4.81A38.13,38.13,0,0,0,221.7,185.74Z"></path><path d="M237.63,208.27a69.19,69.19,0,0,1,.36,11c-.07,1.84-.23,3.68-.47,5.51a52.17,52.17,0,0,1-1,5.51,1.41,1.41,0,0,1-2.75-.61l.05-.17,0,0c.6-1.66,1.17-3.35,1.61-5.09s.84-3.48,1.14-5.26A69.68,69.68,0,0,0,237.63,208.27Z"></path><path d="M411.86,130.84c-4.54,0-7-1.28-7.73-4-.88-3.29,1.55-8.43,18.12-14.24,11.09-3.89,20.15-6.12,24.86-6.12,1,0,3.95,0,4.79,2.1a4.84,4.84,0,0,1-.6,4c-2.67,5-12.59,13.45-26.31,16.43A66,66,0,0,1,411.86,130.84Z" class="cls-2"></path><path d="M453.2,108c-.79-2-2.84-3-6.09-3-6.66,0-18.73,3.88-25.32,6.19-11.17,3.93-17.51,8.1-18.93,12.45h0a6.14,6.14,0,0,0-.3,2,6.37,6.37,0,0,0,.21,1.49l0,.09a6.18,6.18,0,0,0,.78,1.76,6,6,0,0,0,.88,1.05,6.13,6.13,0,0,0,1.17.87,12.51,12.51,0,0,0,6.23,1.31,67.2,67.2,0,0,0,13.42-1.85c12.85-2.79,24-10.91,27.26-17.14A6.15,6.15,0,0,0,453.2,108Zm-41.34,21.42a13,13,0,0,1-3.68-.43,4.74,4.74,0,0,1-1.39-.65,2.87,2.87,0,0,1-1-1.05h0a4,4,0,0,1-.34-.87,2.8,2.8,0,0,1-.09-.92,3.6,3.6,0,0,1,.35-1.39,5.58,5.58,0,0,1,.79-1.27c2-2.64,7-5.75,16.19-9,10-3.5,19.43-6,24.39-6,1.91,0,3.15.38,3.49,1.23,1.45,3.61-10,15.12-25.91,18.58A64.37,64.37,0,0,1,411.86,129.44Z"></path></svg>