<svg id="图层_1" data-name="图层 1" xmlns="http://www.w3.org/2000/svg" viewBox="0 0 187.25 166.97"><defs><style>.cls-1{fill:#fff;}.cls-2{fill:#f5b7c1;}</style></defs><title>元素</title><path class="cls-1" d="M144.29,51.2C140.16,43.9,133,39,124.06,37.36a37.46,37.46,0,0,0-18.74,1.53c-8.46-11.4-21.95-16.63-34.22-12.6S51.2,42.35,51,56.4c-14.15,4-24.2,15.4-24.35,28.74-.16,14.11,10.45,26,25.57,29.79C53.67,130,63.49,142.13,77,144.39c11,1.84,22.27-3.54,29.35-13.49a31,31,0,0,0,20.74.8,26.93,26.93,0,0,0,8-4.21c12.23-9.37,14.32-27.69,5.55-42.65C148.49,74.55,150.1,61.45,144.29,51.2Z"/><path class="cls-2" d="M137.91,55.53c-6.23-11-22-13.84-35.39-6.47-5.89-12-18-18.54-28.86-15S57,50.1,59.3,63.19C45.42,64.42,34.57,74,34.44,85.83c-.13,12.11,11.1,22.17,25.49,23.28-1.08,14.06,6.78,26.46,18.52,28.42,10.29,1.72,20.36-5.11,25.08-16,8.87,5.77,19.61,6.35,27.16.57,10.12-7.76,10.7-24,1.29-36.28-.25-.33-.51-.66-.78-1C140,76.66,143.11,64.7,137.91,55.53Z"/><circle class="cls-1" cx="90.27" cy="81.77" r="12.33"/><rect class="cls-1" x="82.23" y="51.52" width="5.55" height="28.41" rx="1.66" transform="translate(-16.27 29.82) rotate(-18.19)"/><rect class="cls-1" x="83.46" y="83.87" width="5.55" height="28.41" rx="1.66" transform="translate(31.25 -20.38) rotate(16.42)"/><rect class="cls-1" x="101.52" y="78.45" width="5.55" height="28.41" rx="1.66" transform="translate(-31.53 124.48) rotate(-54.81)"/><rect class="cls-1" x="70.24" y="68.61" width="5.55" height="28.41" rx="1.66" transform="translate(-1.45 164.33) rotate(-96.19)"/><rect class="cls-1" x="102.81" y="57.91" width="5.55" height="28.41" rx="1.66" transform="translate(108.65 -55.71) rotate(57.04)"/></svg>