<?xml version="1.0" encoding="UTF-8" ?>
<!DOCTYPE svg PUBLIC "-//W3C//DTD SVG 1.1//EN" "http://www.w3.org/Graphics/SVG/1.1/DTD/svg11.dtd">
<svg width="600pt" height="768pt" viewBox="0 0 600 768" version="1.1" xmlns="http://www.w3.org/2000/svg">
<g id="#303657ff">
<path fill="#303657" opacity="1.00" d=" M 357.89 49.28 C 361.91 48.60 366.34 46.36 370.18 48.82 C 380.16 57.88 388.45 68.58 396.88 79.05 C 408.49 95.04 421.13 110.23 433.19 125.88 C 437.93 131.80 443.17 137.38 447.03 143.95 C 450.52 148.72 454.47 153.14 458.00 157.89 C 459.05 159.28 458.68 161.15 459.01 162.77 C 458.43 161.29 457.96 159.78 457.52 158.26 C 456.87 158.07 455.56 157.70 454.90 157.52 C 454.31 158.61 453.71 159.69 453.13 160.78 C 445.05 161.81 436.83 162.13 428.88 164.10 C 421.31 166.03 413.50 166.65 405.78 167.68 C 404.88 169.78 403.88 171.83 402.77 173.83 C 400.25 178.75 398.19 183.89 395.58 188.77 C 392.19 188.56 391.49 184.59 389.73 182.34 C 386.67 176.32 381.39 172.03 377.17 166.90 C 371.70 160.52 364.25 156.45 357.58 151.50 C 350.66 146.49 342.08 144.98 334.30 141.81 C 328.30 139.34 321.93 138.09 315.69 136.41 C 300.77 132.67 285.28 132.32 269.99 132.70 C 262.80 133.68 255.85 135.94 248.86 137.86 C 246.98 138.60 245.19 137.45 243.42 136.93 C 243.60 135.41 243.50 133.76 244.64 132.57 C 247.58 128.62 251.08 125.11 253.78 120.97 C 244.84 110.70 235.99 100.33 226.63 90.45 C 225.41 88.94 223.90 87.55 223.30 85.66 C 224.11 85.61 225.75 85.51 226.57 85.47 C 229.38 83.49 232.86 83.05 236.05 81.99 C 252.93 75.38 270.82 71.82 287.95 65.93 C 311.09 59.71 334.25 53.32 357.89 49.28 Z" />
</g>
<g id="#3a2920ff">
<path fill="#3a2920" opacity="1.00" d=" M 248.86 137.86 C 255.85 135.94 262.80 133.68 269.99 132.70 C 285.28 132.32 300.77 132.67 315.69 136.41 C 321.93 138.09 328.30 139.34 334.30 141.81 C 342.08 144.98 350.66 146.49 357.58 151.50 C 364.25 156.45 371.70 160.52 377.17 166.90 C 381.39 172.03 386.67 176.32 389.73 182.34 C 391.49 184.59 392.19 188.56 395.58 188.77 C 398.19 183.89 400.25 178.75 402.77 173.83 C 406.27 177.94 406.65 183.49 407.73 188.54 C 409.58 200.87 414.10 212.64 415.35 225.08 C 420.31 259.68 427.44 293.92 434.27 328.20 C 435.96 336.28 436.91 344.52 439.24 352.47 C 441.13 361.32 443.19 370.14 444.57 379.10 C 445.71 387.95 449.96 396.04 450.97 404.92 C 456.74 435.11 462.80 465.25 469.93 495.15 C 472.60 506.55 475.81 517.95 476.81 529.64 C 468.33 533.10 459.62 536.07 450.60 537.78 C 446.94 522.08 443.22 506.39 439.07 490.82 C 438.46 488.46 437.69 486.14 436.54 483.98 C 436.39 490.26 438.44 496.29 439.53 502.41 C 441.76 514.60 444.28 526.74 446.85 538.86 C 438.14 541.98 428.95 543.42 420.15 546.25 C 416.96 547.11 413.94 548.70 410.59 548.84 C 408.40 543.15 405.60 537.72 402.84 532.30 C 402.49 530.63 399.65 529.57 399.63 532.04 C 400.50 538.42 402.49 544.70 402.61 551.19 C 398.25 551.64 393.95 552.48 389.62 553.06 C 387.23 545.53 384.53 538.09 381.09 530.97 C 384.84 530.31 388.69 530.33 392.40 529.52 C 397.92 526.62 401.00 520.77 403.07 515.14 C 403.27 514.57 403.67 513.44 403.87 512.88 C 404.30 510.59 404.72 508.31 405.07 506.02 C 406.31 505.30 406.57 504.27 405.84 502.95 C 407.93 488.03 409.93 473.08 411.22 458.06 C 411.69 452.34 412.42 446.65 413.15 440.96 C 413.78 436.65 412.38 432.41 411.17 428.33 C 417.98 427.32 424.81 426.34 431.47 424.54 C 429.04 419.46 427.78 413.89 425.01 408.97 C 416.93 393.79 407.28 379.53 397.82 365.20 C 392.02 356.83 386.84 347.59 378.21 341.77 C 376.16 340.73 373.94 340.07 371.79 339.28 C 359.89 335.20 348.31 329.97 335.87 327.68 C 331.09 326.13 325.72 326.27 321.59 323.11 C 320.92 321.53 321.05 319.78 321.14 318.12 C 321.92 312.44 320.76 306.54 322.63 301.03 C 323.34 300.83 324.76 300.42 325.46 300.22 C 332.03 298.91 337.80 295.42 343.89 292.81 C 345.84 291.93 347.63 290.75 349.40 289.56 L 349.51 289.49 L 349.59 289.43 C 350.16 289.04 351.28 288.25 351.84 287.86 C 353.45 288.27 354.20 287.65 354.09 286.01 C 355.78 285.04 357.55 284.02 359.57 284.06 C 365.27 287.86 372.14 289.95 378.97 290.20 C 385.19 289.28 392.03 287.26 395.74 281.77 C 401.53 273.25 401.52 261.72 396.91 252.67 C 392.98 256.54 389.41 260.84 384.53 263.58 C 374.12 271.86 361.71 279.67 347.86 278.75 C 347.65 278.33 347.22 277.48 347.00 277.06 C 348.81 274.53 350.51 271.92 352.16 269.28 C 357.19 261.18 363.40 253.69 366.89 244.73 C 366.34 240.80 362.56 238.09 360.60 234.73 C 354.12 223.52 348.62 211.34 347.58 198.29 C 333.90 203.48 319.47 206.36 304.98 208.14 C 287.10 208.97 269.02 208.14 251.56 204.03 C 248.41 203.32 245.47 201.95 242.40 201.00 C 240.98 205.53 239.79 210.12 238.80 214.76 C 236.09 227.00 233.86 239.47 234.23 252.06 C 234.44 255.45 233.50 259.07 235.34 262.17 C 242.30 274.48 249.99 287.51 262.53 294.88 C 266.27 297.36 270.72 298.76 274.09 301.73 C 273.56 306.78 273.11 311.84 273.36 316.92 C 273.10 319.96 273.63 323.00 273.31 326.04 C 267.58 330.06 260.73 332.08 254.61 335.44 L 254.48 335.50 L 254.39 335.55 C 247.18 339.26 240.20 343.44 232.78 346.74 C 231.20 347.26 229.63 347.78 228.05 348.29 C 230.30 342.77 233.07 337.11 232.59 330.97 C 232.47 326.11 230.47 320.55 225.61 318.62 C 220.27 316.52 214.71 319.23 209.80 321.26 C 209.54 310.17 211.13 299.14 210.79 288.04 C 211.49 275.61 211.86 263.16 211.79 250.71 C 212.36 250.73 213.52 250.79 214.10 250.81 C 218.26 252.08 222.37 253.82 226.80 253.77 C 225.71 251.54 224.60 249.33 223.71 247.02 C 221.80 241.66 220.21 236.19 218.97 230.65 C 216.88 221.19 215.91 211.45 216.22 201.78 C 215.91 201.68 215.27 201.47 214.95 201.37 L 214.03 201.09 C 213.54 200.90 212.55 200.53 212.05 200.34 C 213.28 188.13 215.61 175.65 222.01 164.99 C 226.20 157.70 229.68 149.76 235.85 143.86 C 238.27 141.44 240.74 139.06 243.42 136.93 C 245.19 137.45 246.98 138.60 248.86 137.86 Z" />
</g>
<g id="#3a281ff7">
<path fill="#3a281f" opacity="0.97" d=" M 453.13 160.78 C 453.71 159.69 454.31 158.61 454.90 157.52 C 455.56 157.70 456.87 158.07 457.52 158.26 C 457.96 159.78 458.43 161.29 459.01 162.77 C 459.81 164.87 460.71 166.94 461.28 169.13 C 466.77 189.14 471.98 209.35 473.94 230.06 C 475.18 242.52 476.82 254.95 477.61 267.45 C 475.64 267.68 473.67 267.89 471.70 268.09 C 470.10 255.41 469.09 242.66 467.65 229.96 C 465.28 207.09 459.88 184.68 454.21 162.44 C 453.94 162.03 453.40 161.20 453.13 160.78 Z" />
</g>
<g id="#faeb1bff">
<path fill="#faeb1b" opacity="1.00" d=" M 148.83 159.37 C 154.19 157.34 159.94 159.58 164.55 162.43 C 171.50 166.93 177.49 173.03 181.69 180.19 C 183.62 185.13 183.84 190.57 184.38 195.80 C 187.16 200.47 189.86 205.41 190.12 210.99 C 190.49 216.94 190.90 224.62 185.06 228.20 C 186.19 230.87 187.55 233.50 188.08 236.39 C 188.86 240.96 186.81 245.40 184.58 249.26 C 183.36 250.88 182.09 252.45 180.82 254.02 C 187.57 260.33 186.93 270.88 184.26 278.99 C 182.73 283.75 178.95 287.14 174.91 289.82 C 181.03 293.89 182.00 302.21 179.08 308.52 C 182.87 310.15 186.18 312.72 188.88 315.83 C 192.91 319.72 194.96 324.95 197.23 329.95 C 199.67 327.90 201.99 325.66 204.76 324.03 C 206.40 323.05 208.08 322.11 209.80 321.26 C 214.71 319.23 220.27 316.52 225.61 318.62 C 230.47 320.55 232.47 326.11 232.59 330.97 C 233.07 337.11 230.30 342.77 228.05 348.29 C 229.63 347.78 231.20 347.26 232.78 346.74 C 236.80 345.99 240.84 344.99 244.96 345.15 C 250.27 345.22 255.36 346.95 260.41 348.42 C 264.23 349.53 267.22 352.98 267.76 356.92 C 268.90 362.61 269.65 369.07 266.17 374.15 C 260.78 382.18 251.62 386.27 243.19 390.30 C 251.54 391.99 259.47 396.45 265.11 402.85 C 270.05 408.20 270.43 416.47 267.33 422.84 C 271.87 419.62 277.44 418.98 282.84 418.59 C 279.44 410.94 277.16 402.47 278.52 394.07 C 279.21 389.50 282.45 385.72 286.21 383.25 C 290.68 380.61 296.22 381.32 300.98 382.72 C 306.66 384.37 310.93 388.70 315.10 392.65 C 317.99 386.59 320.44 380.07 325.14 375.11 C 328.57 371.81 333.82 369.66 338.43 371.76 C 341.84 373.72 343.76 377.40 345.05 380.98 C 347.79 388.92 349.34 397.37 348.74 405.78 C 352.14 404.44 354.88 401.84 358.37 400.67 C 364.36 398.58 371.25 397.12 377.30 399.79 C 381.66 401.58 384.89 405.66 385.72 410.30 C 387.47 418.20 383.05 425.74 378.69 431.99 C 375.82 435.87 371.80 438.73 369.11 442.75 C 375.61 442.71 382.48 441.57 388.63 444.35 C 391.90 445.63 394.48 448.13 396.54 450.92 C 398.04 454.27 398.44 458.31 396.70 461.66 C 393.18 468.98 385.78 473.30 378.66 476.55 C 377.82 476.90 376.98 477.25 376.15 477.60 C 380.98 484.27 386.50 491.43 386.82 500.01 C 387.40 505.45 382.57 510.76 377.05 510.40 C 372.64 510.42 368.92 507.89 365.19 505.88 C 364.95 508.09 364.78 510.31 364.53 512.53 C 363.28 517.74 361.66 523.95 356.41 526.49 C 353.03 528.28 349.34 526.29 346.33 524.69 C 341.79 522.34 338.14 518.68 334.72 514.96 C 334.47 514.51 333.97 513.62 333.72 513.17 C 333.05 511.81 332.46 510.42 331.86 509.04 C 328.20 512.39 324.75 516.14 320.19 518.29 C 313.26 521.87 303.46 518.80 300.38 511.48 C 297.71 505.38 298.44 498.36 300.65 492.24 C 295.82 492.45 290.96 492.02 286.27 490.82 C 283.22 489.77 279.95 488.65 277.82 486.09 C 275.54 483.25 274.64 479.58 274.49 476.00 C 275.07 470.43 278.44 465.89 280.89 461.10 C 277.31 458.09 272.93 455.77 269.95 451.97 C 265.02 445.89 260.42 438.35 261.57 430.20 C 258.40 432.93 254.65 434.87 250.87 436.64 C 247.58 437.93 244.15 438.86 240.82 440.05 C 243.71 444.58 247.80 448.34 249.65 453.51 C 252.02 458.51 251.27 464.18 249.97 469.36 C 249.19 470.69 248.35 471.98 247.49 473.26 C 245.06 476.36 241.75 478.68 238.04 480.00 C 234.11 480.86 230.06 481.36 226.03 481.24 C 218.63 480.68 212.12 476.91 205.51 473.94 C 204.77 483.22 200.72 491.83 195.01 499.07 C 191.92 504.13 186.00 507.77 179.95 506.24 C 176.85 505.22 174.41 502.97 172.32 500.56 C 166.13 493.11 163.58 483.47 160.51 474.47 C 152.77 479.83 143.40 482.99 134.01 483.27 C 129.72 483.31 124.51 482.89 121.99 478.87 C 119.78 475.20 121.05 470.84 121.65 466.92 C 122.56 460.56 126.43 455.20 128.18 449.09 C 117.45 450.92 105.80 450.44 96.12 445.01 C 92.82 443.30 90.13 439.89 90.17 436.06 C 89.88 431.58 92.30 427.52 95.06 424.20 C 100.09 418.38 105.66 412.64 112.87 409.61 C 109.54 409.00 106.82 406.85 104.13 404.95 C 96.78 399.70 89.36 392.89 87.92 383.51 C 87.21 377.74 91.44 372.86 96.21 370.29 C 102.72 367.00 109.88 365.02 117.22 365.10 C 115.98 353.31 116.48 341.06 120.72 329.87 C 121.40 328.50 119.57 327.81 118.85 327.01 C 115.79 324.51 113.64 321.12 112.13 317.50 C 102.27 318.76 91.36 307.90 95.92 298.11 C 99.81 289.77 108.56 285.00 116.94 282.18 C 108.68 277.80 100.25 271.82 96.71 262.82 C 94.78 258.93 96.17 254.12 99.51 251.50 C 104.24 247.76 110.59 247.16 116.42 247.15 C 116.47 246.86 116.46 246.59 116.40 246.33 C 114.18 246.90 112.55 245.02 110.79 244.06 C 106.20 241.02 101.36 236.94 100.83 231.07 C 101.15 226.49 103.43 221.86 107.55 219.57 C 113.25 216.12 120.27 216.36 126.56 217.77 C 123.72 209.61 122.52 200.40 125.47 192.10 C 126.56 188.95 129.53 186.34 132.97 186.34 C 140.49 186.16 147.30 189.90 153.93 192.98 C 152.93 188.14 151.64 183.26 149.05 179.00 C 147.04 175.42 144.43 172.00 143.74 167.86 C 143.12 164.27 145.28 160.43 148.83 159.37 M 148.94 211.14 C 145.72 214.58 141.05 217.35 140.30 222.39 C 138.85 224.19 139.17 226.89 137.24 228.43 C 135.25 227.40 134.24 230.72 135.46 231.94 C 133.66 235.09 132.83 238.77 132.01 242.29 C 129.96 242.64 129.39 246.33 130.37 247.98 C 129.94 255.00 129.05 262.10 126.94 268.87 C 125.91 271.50 126.64 274.34 126.27 277.07 C 125.42 284.79 127.86 292.37 127.91 300.06 C 128.04 301.51 126.72 302.37 126.03 303.45 C 125.96 303.56 125.82 303.77 125.76 303.88 C 128.72 306.12 131.54 308.56 134.57 310.71 C 138.07 312.40 141.96 313.00 145.82 312.85 C 144.37 309.32 141.65 306.47 140.52 302.78 C 140.04 299.91 139.11 296.91 140.03 294.04 C 141.40 290.97 144.33 288.82 147.69 288.48 L 147.83 288.09 C 151.30 287.81 154.76 288.31 158.22 288.21 C 155.95 285.19 152.84 282.92 150.58 279.88 C 148.79 275.57 144.35 272.08 144.68 266.96 C 144.98 261.62 150.55 259.18 154.16 256.17 C 158.48 255.43 162.63 253.86 167.07 253.70 C 166.33 251.67 164.46 250.42 163.20 248.74 C 160.29 244.97 158.03 240.77 155.22 236.93 C 152.79 232.57 150.86 226.88 154.82 222.71 C 158.50 220.54 162.94 221.75 166.93 220.66 C 166.16 217.19 163.81 214.32 162.99 210.85 C 162.19 209.15 162.38 206.22 159.99 205.96 C 155.71 205.67 152.49 209.24 148.94 211.14 M 152.35 329.38 C 152.00 331.04 154.35 331.41 155.45 331.99 C 156.07 329.67 156.71 327.33 157.80 325.18 C 156.21 326.86 154.29 328.14 152.35 329.38 M 162.31 337.44 C 157.48 338.09 152.87 339.77 148.26 341.29 C 140.57 343.74 134.73 349.88 130.46 356.50 C 125.60 362.52 122.55 369.70 119.85 376.88 C 116.67 386.60 117.15 396.95 117.34 407.03 C 118.82 419.70 123.39 431.98 130.41 442.63 C 135.56 449.71 142.04 455.78 149.16 460.84 C 153.37 463.94 158.63 464.73 163.34 466.74 C 166.77 468.41 170.33 469.88 174.08 470.60 C 185.64 471.70 197.05 468.47 207.91 464.84 C 212.82 462.40 217.35 459.09 221.20 455.19 C 227.75 447.31 232.38 437.92 235.00 428.04 C 242.37 404.59 237.84 378.11 224.26 357.78 C 219.79 350.98 213.35 345.78 206.61 341.37 C 199.11 337.46 190.48 336.08 182.08 336.77 C 175.51 337.56 168.87 336.48 162.31 337.44 M 311.29 405.43 C 303.39 407.12 296.33 412.31 292.36 419.36 C 286.99 429.81 287.30 442.29 290.72 453.29 C 293.36 459.20 294.27 465.80 297.72 471.35 C 303.56 481.09 310.62 490.48 320.37 496.58 C 325.36 499.65 331.24 500.89 337.01 501.35 C 338.35 501.34 339.54 501.95 340.71 502.53 C 342.50 501.09 344.87 501.19 347.02 500.75 C 354.27 499.31 360.29 493.79 363.24 487.13 C 366.18 480.49 365.29 473.09 365.39 466.04 C 364.74 456.21 361.10 446.90 357.26 437.93 C 355.28 433.35 353.50 428.62 350.51 424.58 C 345.35 417.30 337.97 411.86 329.99 408.01 C 324.22 405.27 317.59 404.18 311.29 405.43 Z" />
</g>
<g id="#e2af8eff">
<path fill="#e2af8e" opacity="1.00" d=" M 304.98 208.14 C 319.47 206.36 333.90 203.48 347.58 198.29 C 348.62 211.34 354.12 223.52 360.60 234.73 C 350.07 230.20 343.30 220.22 336.62 211.37 C 334.14 211.23 331.94 212.84 329.61 213.50 C 314.29 218.54 297.97 218.31 282.03 218.37 C 280.62 218.52 279.32 218.05 278.27 217.13 C 276.77 214.45 274.83 210.58 271.07 211.50 C 267.98 212.29 263.59 212.99 263.04 216.83 C 266.97 215.25 272.60 213.58 275.51 217.79 C 274.00 218.11 272.48 218.32 270.95 218.42 C 260.15 218.29 249.31 217.37 238.80 214.76 C 239.79 210.12 240.98 205.53 242.40 201.00 C 245.47 201.95 248.41 203.32 251.56 204.03 C 269.02 208.14 287.10 208.97 304.98 208.14 Z" />
<path fill="#e2af8e" opacity="1.00" d=" M 214.95 201.37 C 215.27 201.47 215.91 201.68 216.22 201.78 C 215.91 211.45 216.88 221.19 218.97 230.65 C 214.68 228.66 208.06 230.15 205.87 224.98 C 205.20 219.24 212.31 219.06 216.30 219.06 C 215.87 213.17 214.79 207.32 214.95 201.37 Z" />
<path fill="#e2af8e" opacity="1.00" d=" M 198.11 212.64 C 198.50 212.83 199.30 213.23 199.69 213.43 C 200.21 219.12 200.41 224.98 202.74 230.30 C 206.56 238.72 214.17 246.08 223.71 247.02 C 224.60 249.33 225.71 251.54 226.80 253.77 C 222.37 253.82 218.26 252.08 214.10 250.81 C 213.06 250.72 212.03 250.67 211.00 250.66 C 203.77 245.36 195.96 238.56 195.27 228.97 C 195.17 223.46 194.82 217.39 198.11 212.64 Z" />
<path fill="#e2af8e" opacity="1.00" d=" M 384.53 263.58 C 389.41 260.84 392.98 256.54 396.91 252.67 C 401.52 261.72 401.53 273.25 395.74 281.77 C 392.03 287.26 385.19 289.28 378.97 290.20 C 372.14 289.95 365.27 287.86 359.57 284.06 L 360.78 283.97 C 365.69 283.15 370.15 286.18 375.03 285.72 C 378.06 285.67 380.94 284.64 383.75 283.58 C 383.26 283.27 382.27 282.64 381.78 282.33 C 387.29 281.64 391.14 276.44 390.84 271.02 C 387.27 272.74 388.91 277.78 385.74 279.74 C 383.09 281.40 380.49 278.82 377.91 278.29 C 374.93 278.58 372.17 279.94 369.21 280.34 C 362.52 280.02 355.82 279.88 349.13 279.71 C 348.81 279.47 348.18 278.99 347.86 278.75 C 361.71 279.67 374.12 271.86 384.53 263.58 Z" />
<path fill="#e2af8e" opacity="1.00" d=" M 317.39 304.35 C 319.46 303.84 320.99 302.28 322.63 301.03 C 320.76 306.54 321.92 312.44 321.14 318.12 C 310.06 321.31 298.42 322.00 286.96 321.10 C 282.17 320.69 277.76 318.68 273.36 316.92 C 273.11 311.84 273.56 306.78 274.09 301.73 C 279.38 305.17 285.82 306.20 292.02 306.34 C 300.49 306.42 309.15 306.69 317.39 304.35 Z" />
<path fill="#e2af8e" opacity="1.00" d=" M 391.92 430.30 C 398.42 430.12 404.60 427.29 411.17 428.33 C 412.38 432.41 413.78 436.65 413.15 440.96 C 412.42 446.65 411.69 452.34 411.22 458.06 C 411.42 455.34 411.33 452.62 411.21 449.90 C 406.31 449.98 401.39 450.10 396.54 450.92 C 394.48 448.13 391.90 445.63 388.63 444.35 C 382.48 441.57 375.61 442.71 369.11 442.75 C 371.80 438.73 375.82 435.87 378.69 431.99 C 383.19 432.19 387.48 430.67 391.92 430.30 Z" />
<path fill="#e2af8e" opacity="1.00" d=" M 238.04 480.00 C 241.75 478.68 245.06 476.36 247.49 473.26 C 248.77 474.62 250.65 474.19 252.32 474.26 C 256.81 476.44 261.88 474.65 266.61 475.52 C 268.65 475.60 271.08 477.11 272.64 475.11 C 273.25 475.41 273.86 475.71 274.49 476.00 C 274.64 479.58 275.54 483.25 277.82 486.09 C 279.95 488.65 283.22 489.77 286.27 490.82 C 284.60 492.75 282.95 494.69 281.49 496.79 C 280.45 494.60 277.59 495.11 275.67 494.24 C 271.73 493.26 268.81 489.97 264.96 488.93 C 259.32 489.30 253.66 489.77 248.01 490.16 C 245.59 490.08 244.39 492.35 243.11 494.00 C 241.90 489.17 240.39 484.40 238.04 480.00 Z" />
<path fill="#e2af8e" opacity="1.00" d=" M 376.15 477.60 C 376.98 477.25 377.82 476.90 378.66 476.55 C 387.05 481.64 388.60 492.09 390.33 500.90 C 392.16 509.94 389.67 520.31 382.35 526.32 C 381.17 527.22 380.52 528.52 380.68 530.03 C 378.87 525.90 376.47 521.93 373.08 518.91 C 370.34 516.64 367.37 514.68 364.53 512.53 C 364.78 510.31 364.95 508.09 365.19 505.88 C 368.92 507.89 372.64 510.42 377.05 510.40 C 382.57 510.76 387.40 505.45 386.82 500.01 C 386.50 491.43 380.98 484.27 376.15 477.60 Z" />
<path fill="#e2af8e" opacity="1.00" d=" M 189.88 508.77 C 197.55 511.67 203.25 504.12 210.07 502.18 C 211.67 505.21 212.91 508.42 213.99 511.68 C 209.06 512.35 204.17 513.44 199.41 514.90 C 196.01 513.37 190.79 513.27 189.88 508.77 Z" />
<path fill="#e2af8e" opacity="1.00" d=" M 329.37 523.36 C 332.09 520.60 331.85 516.39 333.72 513.17 C 333.97 513.62 334.47 514.51 334.72 514.96 C 336.25 519.71 338.16 524.34 339.21 529.25 C 333.62 529.17 328.01 529.49 322.46 528.77 C 324.74 526.94 327.20 525.32 329.37 523.36 Z" />
<path fill="#e2af8e" opacity="1.00" d=" M 325.85 736.45 C 340.28 735.01 354.54 732.02 369.03 731.09 C 372.07 730.56 375.13 730.92 378.15 731.38 C 380.32 738.93 377.94 746.81 376.88 754.36 C 362.45 755.68 348.46 759.75 334.08 761.37 C 321.40 762.89 308.58 761.51 295.95 763.27 C 285.63 763.54 275.30 763.35 264.97 763.31 C 261.02 763.36 257.09 762.28 253.14 762.86 C 252.03 756.57 250.36 750.36 250.04 743.96 C 249.83 742.78 250.09 741.72 250.81 740.79 C 259.17 739.86 267.64 741.05 275.99 739.91 C 281.88 739.07 287.87 739.83 293.74 738.78 C 304.44 738.04 315.10 736.90 325.85 736.45 Z" />
</g>
<g id="#f8d5baff">
<path fill="#f8d5ba" opacity="1.00" d=" M 207.17 203.21 C 209.22 202.03 211.54 200.47 214.03 201.09 L 214.95 201.37 C 214.79 207.32 215.87 213.17 216.30 219.06 C 212.31 219.06 205.20 219.24 205.87 224.98 C 208.06 230.15 214.68 228.66 218.97 230.65 C 220.21 236.19 221.80 241.66 223.71 247.02 C 214.17 246.08 206.56 238.72 202.74 230.30 C 200.41 224.98 200.21 219.12 199.69 213.43 C 199.30 213.23 198.50 212.83 198.11 212.64 C 200.78 209.20 203.31 205.45 207.17 203.21 Z" />
<path fill="#f8d5ba" opacity="1.00" d=" M 329.61 213.50 C 331.94 212.84 334.14 211.23 336.62 211.37 C 343.30 220.22 350.07 230.20 360.60 234.73 C 362.56 238.09 366.34 240.80 366.89 244.73 C 363.40 253.69 357.19 261.18 352.16 269.28 C 346.87 266.51 340.54 265.73 334.86 267.78 C 326.23 270.50 320.62 279.71 321.38 288.61 C 321.60 292.80 323.71 296.51 325.46 300.22 C 324.76 300.42 323.34 300.83 322.63 301.03 C 320.99 302.28 319.46 303.84 317.39 304.35 C 309.15 306.69 300.49 306.42 292.02 306.34 C 285.82 306.20 279.38 305.17 274.09 301.73 C 270.72 298.76 266.27 297.36 262.53 294.88 C 266.85 289.63 270.55 283.08 268.93 276.01 C 267.63 265.21 256.55 257.34 245.94 258.91 C 242.14 259.15 239.16 262.14 235.34 262.17 C 233.50 259.07 234.44 255.45 234.23 252.06 C 233.86 239.47 236.09 227.00 238.80 214.76 C 249.31 217.37 260.15 218.29 270.95 218.42 C 272.48 218.32 274.00 218.11 275.51 217.79 C 276.23 218.86 276.91 219.96 277.63 221.06 C 278.47 219.90 278.55 218.48 278.27 217.13 C 279.32 218.05 280.62 218.52 282.03 218.37 C 297.97 218.31 314.29 218.54 329.61 213.50 M 331.08 230.36 C 333.35 231.41 335.49 228.38 338.02 229.21 C 341.69 228.86 343.33 232.45 344.98 235.01 C 346.62 231.27 344.30 226.68 341.08 224.58 C 337.08 224.17 332.93 226.88 331.08 230.36 M 267.39 227.54 C 265.37 228.31 263.81 230.03 263.19 232.09 C 262.03 235.69 260.57 239.26 260.16 243.05 C 259.82 246.09 263.28 248.47 266.01 247.11 C 268.63 246.20 269.22 243.25 270.07 240.96 C 271.04 237.63 273.02 234.50 272.86 230.93 C 272.76 228.35 269.77 226.39 267.39 227.54 M 327.15 252.14 C 326.27 254.62 325.90 258.01 328.24 259.83 C 330.39 261.48 333.61 260.29 334.84 258.05 C 336.80 254.57 338.13 250.77 339.34 246.97 C 338.79 244.50 336.74 242.08 333.95 242.69 C 329.64 243.77 328.31 248.43 327.15 252.14 M 279.27 269.34 C 277.35 269.64 275.20 269.44 273.67 270.84 C 272.80 278.37 277.93 286.15 285.07 288.61 C 290.99 291.22 297.78 291.85 303.97 289.86 C 307.29 288.07 310.66 286.09 313.05 283.11 C 315.74 279.17 317.49 274.06 315.52 269.42 C 312.12 268.21 308.45 268.94 304.93 268.77 C 296.38 268.95 287.78 268.30 279.27 269.34 Z" />
<path fill="#f8d5ba" opacity="1.00" d=" M 385.74 279.74 C 388.91 277.78 387.27 272.74 390.84 271.02 C 391.14 276.44 387.29 281.64 381.78 282.33 C 382.27 282.64 383.26 283.27 383.75 283.58 C 380.94 284.64 378.06 285.67 375.03 285.72 C 370.15 286.18 365.69 283.15 360.78 283.97 C 360.88 283.27 361.06 281.85 361.16 281.14 C 363.85 280.99 366.55 280.81 369.21 280.34 C 372.17 279.94 374.93 278.58 377.91 278.29 C 380.49 278.82 383.09 281.40 385.74 279.74 M 379.20 283.09 C 379.46 286.17 382.43 281.63 379.20 283.09 M 371.32 284.41 C 372.20 285.58 375.91 285.82 376.73 284.34 C 375.11 283.53 372.94 283.69 371.32 284.41 Z" />
<path fill="#f8d5ba" opacity="1.00" d=" M 273.36 316.92 C 277.76 318.68 282.17 320.69 286.96 321.10 C 298.42 322.00 310.06 321.31 321.14 318.12 C 321.05 319.78 320.92 321.53 321.59 323.11 C 320.18 327.90 322.72 334.56 317.63 337.65 C 310.99 341.33 303.64 344.27 295.94 344.32 C 289.71 344.50 282.72 343.46 278.16 338.81 C 275.17 335.30 272.56 330.84 273.31 326.04 C 273.63 323.00 273.10 319.96 273.36 316.92 Z" />
<path fill="#f8d5ba" opacity="1.00" d=" M 396.54 450.92 C 401.39 450.10 406.31 449.98 411.21 449.90 C 411.33 452.62 411.42 455.34 411.22 458.06 C 409.93 473.08 407.93 488.03 405.84 502.95 C 404.77 503.75 404.51 504.77 405.07 506.02 C 404.72 508.31 404.30 510.59 403.87 512.88 C 403.67 513.44 403.27 514.57 403.07 515.14 C 401.00 520.77 397.92 526.62 392.40 529.52 C 388.69 530.33 384.84 530.31 381.09 530.97 L 380.68 530.03 C 380.52 528.52 381.17 527.22 382.35 526.32 C 389.67 520.31 392.16 509.94 390.33 500.90 C 388.60 492.09 387.05 481.64 378.66 476.55 C 385.78 473.30 393.18 468.98 396.70 461.66 C 398.44 458.31 398.04 454.27 396.54 450.92 Z" />
<path fill="#f8d5ba" opacity="1.00" d=" M 248.01 490.16 C 253.66 489.77 259.32 489.30 264.96 488.93 C 268.81 489.97 271.73 493.26 275.67 494.24 C 277.59 495.11 280.45 494.60 281.49 496.79 C 280.18 498.77 278.92 500.82 278.22 503.11 C 275.60 511.64 271.54 520.03 272.21 529.19 C 261.58 530.05 251.11 527.27 240.50 527.72 C 239.83 527.69 238.50 527.62 237.83 527.58 C 240.99 516.66 243.51 505.44 243.11 494.00 C 244.39 492.35 245.59 490.08 248.01 490.16 Z" />
<path fill="#f8d5ba" opacity="1.00" d=" M 199.41 514.90 C 204.17 513.44 209.06 512.35 213.99 511.68 C 215.25 515.16 215.95 518.80 216.57 522.45 C 210.49 520.84 204.88 517.94 199.41 514.90 Z" />
<path fill="#f8d5ba" opacity="1.00" d=" M 334.08 761.37 C 348.46 759.75 362.45 755.68 376.88 754.36 C 376.29 758.88 376.34 763.45 376.09 768.00 L 254.02 768.00 C 253.75 766.27 253.47 764.56 253.14 762.86 C 257.09 762.28 261.02 763.36 264.97 763.31 C 275.30 763.35 285.63 763.54 295.95 763.27 C 308.58 761.51 321.40 762.89 334.08 761.37 Z" />
</g>
<g id="#d38313ff">
<path fill="#d38313" opacity="1.00" d=" M 148.94 211.14 C 152.49 209.24 155.71 205.67 159.99 205.96 C 162.38 206.22 162.19 209.15 162.99 210.85 C 163.81 214.32 166.16 217.19 166.93 220.66 C 162.94 221.75 158.50 220.54 154.82 222.71 C 153.50 220.24 152.71 216.99 149.94 215.73 C 148.50 215.60 147.14 216.22 145.82 216.71 C 142.99 217.43 142.25 220.57 140.30 222.39 C 141.05 217.35 145.72 214.58 148.94 211.14 Z" />
<path fill="#d38313" opacity="1.00" d=" M 155.22 236.93 C 158.03 240.77 160.29 244.97 163.20 248.74 C 164.46 250.42 166.33 251.67 167.07 253.70 C 162.63 253.86 158.48 255.43 154.16 256.17 C 154.66 249.77 155.28 243.35 155.22 236.93 Z" />
<path fill="#d38313" opacity="1.00" d=" M 147.83 288.09 C 148.77 285.36 149.79 282.66 150.58 279.88 C 152.84 282.92 155.95 285.19 158.22 288.21 C 154.76 288.31 151.30 287.81 147.83 288.09 Z" />
<path fill="#d38313" opacity="1.00" d=" M 134.57 310.71 C 136.26 307.86 138.26 305.21 140.52 302.78 C 141.65 306.47 144.37 309.32 145.82 312.85 C 141.96 313.00 138.07 312.40 134.57 310.71 Z" />
<path fill="#d38313" opacity="1.00" d=" M 161.33 360.47 C 170.63 358.19 181.13 356.41 190.06 360.98 C 192.53 361.92 195.19 363.94 194.71 366.93 C 194.91 369.39 192.25 371.43 189.98 370.27 C 177.35 365.13 161.90 372.07 156.24 384.20 C 152.32 392.37 153.02 402.20 156.68 410.33 C 159.98 416.80 165.95 422.02 173.05 423.82 C 185.64 427.74 200.82 421.33 206.00 409.02 C 208.74 403.41 207.93 396.99 207.04 391.04 C 213.82 392.57 216.78 400.11 218.79 406.04 C 220.77 415.14 220.97 425.21 216.65 433.72 C 212.77 441.63 205.06 447.19 196.70 449.56 C 185.71 452.96 173.77 451.07 163.38 446.61 C 158.04 444.42 153.67 440.49 149.64 436.46 C 140.18 427.40 134.95 414.10 135.51 401.03 C 135.36 384.20 145.50 366.93 161.33 360.47 Z" />
<path fill="#d38313" opacity="1.00" d=" M 308.21 432.95 C 309.58 427.13 314.14 421.98 320.09 420.73 C 326.01 420.30 332.83 421.32 336.76 426.25 C 341.43 431.50 346.82 437.66 346.25 445.18 C 344.07 445.46 343.18 443.21 342.29 441.71 C 338.98 435.82 333.69 430.61 327.00 428.93 C 324.12 427.95 321.22 430.07 320.76 432.94 C 319.61 440.72 322.62 448.31 325.59 455.35 C 327.88 460.97 332.11 465.58 337.06 469.02 C 342.12 471.01 348.12 466.41 347.94 461.08 C 348.02 457.65 347.30 454.27 347.01 450.87 C 349.59 450.74 350.66 453.44 351.58 455.39 C 353.61 460.31 355.80 465.55 355.28 470.99 C 353.99 476.21 351.57 481.96 346.32 484.28 C 340.62 486.75 334.07 484.99 328.99 481.89 C 322.54 477.79 317.19 471.94 313.90 465.02 C 308.93 455.24 305.35 443.91 308.21 432.95 Z" />
</g>
<g id="#53473fff">
<path fill="#53473f" opacity="1.00" d=" M 263.04 216.83 C 263.59 212.99 267.98 212.29 271.07 211.50 C 274.83 210.58 276.77 214.45 278.27 217.13 C 278.55 218.48 278.47 219.90 277.63 221.06 C 276.91 219.96 276.23 218.86 275.51 217.79 C 272.60 213.58 266.97 215.25 263.04 216.83 Z" />
<path fill="#53473f" opacity="1.00" d=" M 331.08 230.36 C 332.93 226.88 337.08 224.17 341.08 224.58 C 344.30 226.68 346.62 231.27 344.98 235.01 C 343.33 232.45 341.69 228.86 338.02 229.21 C 335.49 228.38 333.35 231.41 331.08 230.36 Z" />
</g>
<g id="#fbc547ff">
<path fill="#fbc547" opacity="1.00" d=" M 145.82 216.71 C 147.14 216.22 148.50 215.60 149.94 215.73 C 152.71 216.99 153.50 220.24 154.82 222.71 C 150.86 226.88 152.79 232.57 155.22 236.93 C 155.28 243.35 154.66 249.77 154.16 256.17 C 150.55 259.18 144.98 261.62 144.68 266.96 C 144.35 272.08 148.79 275.57 150.58 279.88 C 149.79 282.66 148.77 285.36 147.83 288.09 L 147.69 288.48 C 144.33 288.82 141.40 290.97 140.03 294.04 C 139.11 296.91 140.04 299.91 140.52 302.78 C 138.26 305.21 136.26 307.86 134.57 310.71 C 131.54 308.56 128.72 306.12 125.76 303.88 L 126.03 303.45 C 126.72 302.37 128.04 301.51 127.91 300.06 C 127.86 292.37 125.42 284.79 126.27 277.07 C 126.64 274.34 125.91 271.50 126.94 268.87 C 129.05 262.10 129.94 255.00 130.37 247.98 C 131.51 246.29 132.02 244.31 132.01 242.29 C 132.83 238.77 133.66 235.09 135.46 231.94 C 136.37 230.95 137.01 229.76 137.24 228.43 C 139.17 226.89 138.85 224.19 140.30 222.39 C 142.25 220.57 142.99 217.43 145.82 216.71 Z" />
<path fill="#fbc547" opacity="1.00" d=" M 162.31 337.44 C 168.87 336.48 175.51 337.56 182.08 336.77 C 190.48 336.08 199.11 337.46 206.61 341.37 C 213.35 345.78 219.79 350.98 224.26 357.78 C 237.84 378.11 242.37 404.59 235.00 428.04 C 232.38 437.92 227.75 447.31 221.20 455.19 C 217.35 459.09 212.82 462.40 207.91 464.84 C 197.05 468.47 185.64 471.70 174.08 470.60 C 170.33 469.88 166.77 468.41 163.34 466.74 C 158.63 464.73 153.37 463.94 149.16 460.84 C 142.04 455.78 135.56 449.71 130.41 442.63 C 123.39 431.98 118.82 419.70 117.34 407.03 C 117.15 396.95 116.67 386.60 119.85 376.88 C 122.55 369.70 125.60 362.52 130.46 356.50 C 134.73 349.88 140.57 343.74 148.26 341.29 C 152.87 339.77 157.48 338.09 162.31 337.44 M 161.33 360.47 C 145.50 366.93 135.36 384.20 135.51 401.03 C 134.95 414.10 140.18 427.40 149.64 436.46 C 153.67 440.49 158.04 444.42 163.38 446.61 C 173.77 451.07 185.71 452.96 196.70 449.56 C 205.06 447.19 212.77 441.63 216.65 433.72 C 220.97 425.21 220.77 415.14 218.79 406.04 C 216.78 400.11 213.82 392.57 207.04 391.04 C 207.93 396.99 208.74 403.41 206.00 409.02 C 200.82 421.33 185.64 427.74 173.05 423.82 C 165.95 422.02 159.98 416.80 156.68 410.33 C 153.02 402.20 152.32 392.37 156.24 384.20 C 161.90 372.07 177.35 365.13 189.98 370.27 C 192.25 371.43 194.91 369.39 194.71 366.93 C 195.19 363.94 192.53 361.92 190.06 360.98 C 181.13 356.41 170.63 358.19 161.33 360.47 Z" />
<path fill="#fbc547" opacity="1.00" d=" M 311.29 405.43 C 317.59 404.18 324.22 405.27 329.99 408.01 C 337.97 411.86 345.35 417.30 350.51 424.58 C 353.50 428.62 355.28 433.35 357.26 437.93 C 361.10 446.90 364.74 456.21 365.39 466.04 C 365.29 473.09 366.18 480.49 363.24 487.13 C 360.29 493.79 354.27 499.31 347.02 500.75 C 344.87 501.19 342.50 501.09 340.71 502.53 C 339.54 501.95 338.35 501.34 337.01 501.35 C 331.24 500.89 325.36 499.65 320.37 496.58 C 310.62 490.48 303.56 481.09 297.72 471.35 C 294.27 465.80 293.36 459.20 290.72 453.29 C 287.30 442.29 286.99 429.81 292.36 419.36 C 296.33 412.31 303.39 407.12 311.29 405.43 M 308.21 432.95 C 305.35 443.91 308.93 455.24 313.90 465.02 C 317.19 471.94 322.54 477.79 328.99 481.89 C 334.07 484.99 340.62 486.75 346.32 484.28 C 351.57 481.96 353.99 476.21 355.28 470.99 C 355.80 465.55 353.61 460.31 351.58 455.39 C 350.66 453.44 349.59 450.74 347.01 450.87 C 347.30 454.27 348.02 457.65 347.94 461.08 C 348.12 466.41 342.12 471.01 337.06 469.02 C 332.11 465.58 327.88 460.97 325.59 455.35 C 322.62 448.31 319.61 440.72 320.76 432.94 C 321.22 430.07 324.12 427.95 327.00 428.93 C 333.69 430.61 338.98 435.82 342.29 441.71 C 343.18 443.21 344.07 445.46 346.25 445.18 C 346.82 437.66 341.43 431.50 336.76 426.25 C 332.83 421.32 326.01 420.30 320.09 420.73 C 314.14 421.98 309.58 427.13 308.21 432.95 Z" />
</g>
<g id="#51463dff">
<path fill="#51463d" opacity="1.00" d=" M 267.39 227.54 C 269.77 226.39 272.76 228.35 272.86 230.93 C 273.02 234.50 271.04 237.63 270.07 240.96 C 269.22 243.25 268.63 246.20 266.01 247.11 C 263.28 248.47 259.82 246.09 260.16 243.05 C 260.57 239.26 262.03 235.69 263.19 232.09 C 263.81 230.03 265.37 228.31 267.39 227.54 Z" />
<path fill="#51463d" opacity="1.00" d=" M 327.15 252.14 C 328.31 248.43 329.64 243.77 333.95 242.69 C 336.74 242.08 338.79 244.50 339.34 246.97 C 338.13 250.77 336.80 254.57 334.84 258.05 C 333.61 260.29 330.39 261.48 328.24 259.83 C 325.90 258.01 326.27 254.62 327.15 252.14 Z" />
</g>
<g id="#cebb1dd3">
<path fill="#cebb1d" opacity="0.83" d=" M 135.46 231.94 C 134.24 230.72 135.25 227.40 137.24 228.43 C 137.01 229.76 136.37 230.95 135.46 231.94 Z" />
</g>
<g id="#d3ba23d7">
<path fill="#d3ba23" opacity="0.84" d=" M 130.37 247.98 C 129.39 246.33 129.96 242.64 132.01 242.29 C 132.02 244.31 131.51 246.29 130.37 247.98 Z" />
</g>
<g id="#82a64cff">
<path fill="#82a64c" opacity="1.00" d=" M 184.58 249.26 C 187.85 250.37 191.38 251.57 193.52 254.45 C 196.62 258.60 196.93 263.97 197.98 268.87 C 200.92 287.16 203.47 305.54 204.76 324.03 C 201.99 325.66 199.67 327.90 197.23 329.95 C 194.96 324.95 192.91 319.72 188.88 315.83 C 187.79 308.57 186.76 301.31 186.10 294.00 C 185.61 288.98 184.35 284.04 184.26 278.99 C 186.93 270.88 187.57 260.33 180.82 254.02 C 182.09 252.45 183.36 250.88 184.58 249.26 Z" />
</g>
<g id="#f2ad9aff">
<path fill="#f2ad9a" opacity="1.00" d=" M 235.34 262.17 C 239.16 262.14 242.14 259.15 245.94 258.91 C 256.55 257.34 267.63 265.21 268.93 276.01 C 270.55 283.08 266.85 289.63 262.53 294.88 C 249.99 287.51 242.30 274.48 235.34 262.17 Z" />
<path fill="#f2ad9a" opacity="1.00" d=" M 334.86 267.78 C 340.54 265.73 346.87 266.51 352.16 269.28 C 350.51 271.92 348.81 274.53 347.00 277.06 C 347.22 277.48 347.65 278.33 347.86 278.75 C 348.18 278.99 348.81 279.47 349.13 279.71 C 355.82 279.88 362.52 280.02 369.21 280.34 C 366.55 280.81 363.85 280.99 361.16 281.14 C 361.06 281.85 360.88 283.27 360.78 283.97 L 359.57 284.06 C 357.55 284.02 355.78 285.04 354.09 286.01 C 352.92 286.14 352.17 286.75 351.84 287.86 C 351.28 288.25 350.16 289.04 349.59 289.43 L 349.49 289.50 L 349.40 289.56 C 347.63 290.75 345.84 291.93 343.89 292.81 C 337.80 295.42 332.03 298.91 325.46 300.22 C 323.71 296.51 321.60 292.80 321.38 288.61 C 320.62 279.71 326.23 270.50 334.86 267.78 Z" />
</g>
<g id="#32385bff">
<path fill="#32385b" opacity="1.00" d=" M 471.70 268.09 C 473.67 267.89 475.64 267.68 477.61 267.45 C 480.29 269.51 481.28 272.73 479.94 275.92 C 481.18 278.26 482.07 280.75 482.85 283.28 C 485.74 291.39 489.61 299.37 490.68 307.98 C 490.96 309.97 490.46 315.17 487.52 312.52 C 485.61 307.18 485.19 301.39 483.24 296.04 C 483.70 299.35 484.73 302.58 484.67 305.95 C 484.73 310.08 486.79 313.91 486.76 318.06 C 486.83 320.58 483.44 319.56 482.96 317.93 C 481.48 314.33 480.90 310.42 479.36 306.84 C 478.97 312.92 482.96 318.07 483.38 324.03 C 483.58 325.90 480.68 326.66 479.78 325.20 C 476.42 320.36 475.07 314.52 473.72 308.88 C 471.68 298.61 470.82 288.12 471.15 277.65 C 470.34 276.54 469.54 275.43 468.72 274.34 C 468.34 271.75 470.14 269.87 471.70 268.09 Z" />
</g>
<g id="#b3503fff">
<path fill="#b3503f" opacity="1.00" d=" M 279.27 269.34 C 287.78 268.30 296.38 268.95 304.93 268.77 C 308.45 268.94 312.12 268.21 315.52 269.42 C 317.49 274.06 315.74 279.17 313.05 283.11 C 310.66 286.09 307.29 288.07 303.97 289.86 C 297.78 291.85 290.99 291.22 285.07 288.61 C 277.93 286.15 272.80 278.37 273.67 270.84 C 275.20 269.44 277.35 269.64 279.27 269.34 Z" />
</g>
<g id="#b79d89bd">
<path fill="#b79d89" opacity="0.74" d=" M 379.20 283.09 C 382.43 281.63 379.46 286.17 379.20 283.09 Z" />
</g>
<g id="#c5a993cb">
<path fill="#c5a993" opacity="0.80" d=" M 371.32 284.41 C 372.94 283.69 375.11 283.53 376.73 284.34 C 375.91 285.82 372.20 285.58 371.32 284.41 Z" />
</g>
<g id="#5f453cc1">
<path fill="#5f453c" opacity="0.76" d=" M 351.84 287.86 C 352.17 286.75 352.92 286.14 354.09 286.01 C 354.20 287.65 353.45 288.27 351.84 287.86 Z" />
</g>
<g id="#8a6559cb">
<path fill="#8a6559" opacity="0.80" d=" M 349.49 289.50 L 349.59 289.43 L 349.51 289.49 L 349.40 289.56 L 349.49 289.50 Z" />
</g>
<g id="#b0a019b4">
<path fill="#b0a019" opacity="0.71" d=" M 125.76 303.88 C 125.82 303.77 125.96 303.56 126.03 303.45 L 125.76 303.88 Z" />
</g>
<g id="#788246ff">
<path fill="#788246" opacity="1.00" d=" M 78.32 329.34 C 80.88 322.17 89.04 318.85 96.12 318.43 C 104.61 317.99 111.90 322.83 118.85 327.01 C 119.57 327.81 121.40 328.50 120.72 329.87 C 116.48 341.06 115.98 353.31 117.22 365.10 C 109.88 365.02 102.72 367.00 96.21 370.29 C 91.44 372.86 87.21 377.74 87.92 383.51 C 82.36 383.50 76.83 384.36 71.42 385.60 C 69.17 386.09 68.36 388.53 67.17 390.22 C 60.48 401.61 54.97 414.18 54.23 427.54 C 54.21 430.74 50.26 431.77 47.94 430.16 C 45.76 426.86 47.28 422.66 46.87 418.98 C 46.10 411.53 45.23 403.79 47.53 396.51 C 52.06 390.62 54.91 383.68 58.18 377.06 C 62.55 367.61 67.68 358.44 70.73 348.42 C 73.02 341.97 75.78 335.70 78.32 329.34 Z" />
<path fill="#788246" opacity="1.00" d=" M 205.51 473.94 C 212.12 476.91 218.63 480.68 226.03 481.24 C 230.06 481.36 234.11 480.86 238.04 480.00 C 240.39 484.40 241.90 489.17 243.11 494.00 C 243.51 505.44 240.99 516.66 237.83 527.58 C 234.93 526.75 234.79 530.18 234.09 532.12 C 232.82 537.52 229.49 542.27 228.67 547.77 C 228.39 548.97 228.09 550.17 227.78 551.38 C 224.05 554.24 222.47 559.94 217.31 560.93 C 217.79 550.62 217.43 540.28 217.90 529.96 C 217.92 527.39 217.10 524.93 216.57 522.45 C 215.95 518.80 215.25 515.16 213.99 511.68 C 212.91 508.42 211.67 505.21 210.07 502.18 C 203.25 504.12 197.55 511.67 189.88 508.77 C 186.53 508.07 183.10 507.65 179.95 506.24 C 186.00 507.77 191.92 504.13 195.01 499.07 C 200.72 491.83 204.77 483.22 205.51 473.94 Z" />
<path fill="#788246" opacity="1.00" d=" M 286.27 490.82 C 290.96 492.02 295.82 492.45 300.65 492.24 C 298.44 498.36 297.71 505.38 300.38 511.48 C 303.46 518.80 313.26 521.87 320.19 518.29 C 324.75 516.14 328.20 512.39 331.86 509.04 C 332.46 510.42 333.05 511.81 333.72 513.17 C 331.85 516.39 332.09 520.60 329.37 523.36 C 327.20 525.32 324.74 526.94 322.46 528.77 C 322.05 529.08 321.21 529.69 320.80 529.99 C 320.77 530.43 320.71 531.31 320.68 531.74 C 317.80 533.04 314.51 533.88 312.23 536.17 C 310.94 538.18 310.00 540.41 308.54 542.33 L 308.70 541.23 C 302.55 548.19 296.64 556.97 298.44 566.74 C 298.18 569.20 297.54 571.64 296.06 573.67 C 291.47 571.19 288.40 566.72 285.04 562.85 C 281.80 558.76 280.24 553.72 277.70 549.22 C 274.83 542.91 272.26 536.21 272.21 529.19 C 271.54 520.03 275.60 511.64 278.22 503.11 C 278.92 500.82 280.18 498.77 281.49 496.79 C 282.95 494.69 284.60 492.75 286.27 490.82 Z" />
<path fill="#788246" opacity="1.00" d=" M 356.41 526.49 C 361.66 523.95 363.28 517.74 364.53 512.53 C 367.37 514.68 370.34 516.64 373.08 518.91 C 376.47 521.93 378.87 525.90 380.68 530.03 L 381.09 530.97 C 384.53 538.09 387.23 545.53 389.62 553.06 C 392.34 561.47 395.54 569.96 395.65 578.91 C 395.92 581.50 393.73 583.15 392.14 584.80 C 392.42 586.11 392.72 587.42 393.05 588.74 C 392.72 587.53 392.37 586.33 391.92 585.18 C 390.41 583.94 388.06 584.96 386.65 583.55 C 383.24 580.43 381.86 575.68 378.26 572.73 C 372.47 567.81 365.37 564.85 358.77 561.23 C 353.32 558.30 347.15 555.63 343.91 550.04 C 340.41 543.66 341.17 536.09 339.21 529.25 C 338.16 524.34 336.25 519.71 334.72 514.96 C 338.14 518.68 341.79 522.34 346.33 524.69 C 349.34 526.29 353.03 528.28 356.41 526.49 Z" />
</g>
<g id="#fef2f4ff">
<path fill="#fef2f4" opacity="1.00" d=" M 321.59 323.11 C 325.72 326.27 331.09 326.13 335.87 327.68 C 348.31 329.97 359.89 335.20 371.79 339.28 C 373.94 340.07 376.16 340.73 378.21 341.77 C 386.84 347.59 392.02 356.83 397.82 365.20 C 407.28 379.53 416.93 393.79 425.01 408.97 C 427.78 413.89 429.04 419.46 431.47 424.54 C 424.81 426.34 417.98 427.32 411.17 428.33 C 404.60 427.29 398.42 430.12 391.92 430.30 C 387.48 430.67 383.19 432.19 378.69 431.99 C 383.05 425.74 387.47 418.20 385.72 410.30 C 384.89 405.66 381.66 401.58 377.30 399.79 C 371.25 397.12 364.36 398.58 358.37 400.67 C 354.88 401.84 352.14 404.44 348.74 405.78 C 349.34 397.37 347.79 388.92 345.05 380.98 C 343.76 377.40 341.84 373.72 338.43 371.76 C 333.82 369.66 328.57 371.81 325.14 375.11 C 320.44 380.07 317.99 386.59 315.10 392.65 C 310.93 388.70 306.66 384.37 300.98 382.72 C 296.22 381.32 290.68 380.61 286.21 383.25 C 282.45 385.72 279.21 389.50 278.52 394.07 C 277.16 402.47 279.44 410.94 282.84 418.59 C 277.44 418.98 271.87 419.62 267.33 422.84 C 270.43 416.47 270.05 408.20 265.11 402.85 C 259.47 396.45 251.54 391.99 243.19 390.30 C 251.62 386.27 260.78 382.18 266.17 374.15 C 269.65 369.07 268.90 362.61 267.76 356.92 C 267.22 352.98 264.23 349.53 260.41 348.42 C 255.36 346.95 250.27 345.22 244.96 345.15 C 240.84 344.99 236.80 345.99 232.78 346.74 C 240.20 343.44 247.18 339.26 254.39 335.55 L 254.52 335.49 L 254.61 335.44 C 260.73 332.08 267.58 330.06 273.31 326.04 C 272.56 330.84 275.17 335.30 278.16 338.81 C 282.72 343.46 289.71 344.50 295.94 344.32 C 303.64 344.27 310.99 341.33 317.63 337.65 C 322.72 334.56 320.18 327.90 321.59 323.11 Z" />
<path fill="#fef2f4" opacity="1.00" d=" M 261.57 430.20 C 260.42 438.35 265.02 445.89 269.95 451.97 C 272.93 455.77 277.31 458.09 280.89 461.10 C 278.44 465.89 275.07 470.43 274.49 476.00 C 273.86 475.71 273.25 475.41 272.64 475.11 C 269.95 471.92 269.13 467.71 266.95 464.22 C 261.64 455.01 257.44 445.05 250.87 436.64 C 254.65 434.87 258.40 432.93 261.57 430.20 Z" />
<path fill="#fef2f4" opacity="1.00" d=" M 240.50 527.72 C 251.11 527.27 261.58 530.05 272.21 529.19 C 272.26 536.21 274.83 542.91 277.70 549.22 C 280.24 553.72 281.80 558.76 285.04 562.85 C 285.09 565.01 285.21 567.20 285.75 569.31 C 289.41 584.18 292.16 599.26 295.98 614.08 C 296.67 616.87 297.69 619.77 296.82 622.65 C 294.74 633.69 293.25 644.85 291.36 655.93 C 290.76 660.42 289.14 665.25 291.46 669.52 C 294.97 671.07 297.66 674.56 301.63 674.88 C 304.48 668.56 304.50 661.45 305.73 654.72 C 306.64 656.73 307.23 658.85 307.70 661.01 C 311.74 660.82 315.76 660.35 319.73 659.61 C 320.28 654.30 318.17 649.26 317.33 644.10 C 316.10 635.77 312.69 627.79 312.97 619.25 C 313.94 604.83 314.22 590.34 316.00 575.97 C 317.21 566.65 317.37 557.21 319.01 547.95 C 319.90 542.58 320.50 537.18 320.68 531.74 C 320.71 531.31 320.77 530.43 320.80 529.99 C 321.21 529.69 322.05 529.08 322.46 528.77 C 328.01 529.49 333.62 529.17 339.21 529.25 C 341.17 536.09 340.41 543.66 343.91 550.04 C 347.15 555.63 353.32 558.30 358.77 561.23 C 365.37 564.85 372.47 567.81 378.26 572.73 C 381.86 575.68 383.24 580.43 386.65 583.55 C 388.06 584.96 390.41 583.94 391.92 585.18 C 392.37 586.33 392.72 587.53 393.05 588.74 C 396.84 602.97 401.05 617.10 405.62 631.10 C 412.65 652.91 415.20 675.90 422.71 697.58 C 425.55 705.52 427.31 713.79 429.53 721.92 C 429.98 723.76 430.53 726.64 428.08 727.29 C 422.82 728.82 417.27 728.91 411.98 727.54 C 400.65 728.21 389.51 731.04 378.15 731.38 C 375.13 730.92 372.07 730.56 369.03 731.09 C 354.54 732.02 340.28 735.01 325.85 736.45 C 315.10 736.90 304.44 738.04 293.74 738.78 C 287.87 739.83 281.88 739.07 275.99 739.91 C 267.64 741.05 259.17 739.86 250.81 740.79 C 247.91 740.71 245.14 739.65 242.23 739.70 C 233.57 739.69 224.94 738.84 216.29 738.60 C 209.55 737.41 202.70 737.86 195.92 737.21 C 195.61 736.67 195.00 735.59 194.69 735.05 C 200.40 711.32 203.94 687.13 207.20 662.96 C 210.06 640.71 219.65 620.05 223.14 597.94 C 224.76 587.89 228.90 578.51 230.92 568.55 C 233.89 582.14 234.33 596.15 237.16 609.77 C 237.67 611.76 238.34 614.71 241.04 614.36 C 244.32 613.85 249.28 612.19 248.64 607.96 C 247.40 589.59 244.74 571.34 243.18 553.00 C 242.24 544.58 241.82 536.09 240.50 527.72 M 290.29 700.21 C 290.85 700.81 290.85 700.81 290.29 700.21 M 215.73 720.34 C 214.18 722.14 217.18 723.34 218.57 722.53 C 219.36 721.11 216.98 719.51 215.73 720.34 Z" />
<path fill="#fef2f4" opacity="1.00" d=" M 298.44 566.74 C 296.64 556.97 302.55 548.19 308.70 541.23 L 308.54 542.33 C 306.98 550.63 307.20 559.14 305.79 567.46 C 304.80 573.38 304.80 579.41 303.91 585.35 C 301.63 579.28 300.93 572.75 298.44 566.74 Z" />
</g>
<g id="#988f8ebf">
<path fill="#988f8e" opacity="0.75" d=" M 254.48 335.50 L 254.61 335.44 L 254.52 335.49 L 254.39 335.55 L 254.48 335.50 Z" />
</g>
<g id="#97a64cff">
<path fill="#97a64c" opacity="1.00" d=" M 240.82 440.05 C 244.15 438.86 247.58 437.93 250.87 436.64 C 257.44 445.05 261.64 455.01 266.95 464.22 C 269.13 467.71 269.95 471.92 272.64 475.11 C 271.08 477.11 268.65 475.60 266.61 475.52 C 261.88 474.65 256.81 476.44 252.32 474.26 C 251.71 472.54 250.92 470.90 249.97 469.36 C 251.27 464.18 252.02 458.51 249.65 453.51 C 247.80 448.34 243.71 444.58 240.82 440.05 Z" />
<path fill="#97a64c" opacity="1.00" d=" M 285.04 562.85 C 288.40 566.72 291.47 571.19 296.06 573.67 C 297.54 571.64 298.18 569.20 298.44 566.74 C 300.93 572.75 301.63 579.28 303.91 585.35 C 304.72 587.71 304.31 590.21 304.56 592.64 C 307.39 601.49 309.36 610.58 311.24 619.66 C 311.68 619.56 312.54 619.36 312.97 619.25 C 312.69 627.79 316.10 635.77 317.33 644.10 C 318.17 649.26 320.28 654.30 319.73 659.61 C 315.76 660.35 311.74 660.82 307.70 661.01 C 307.23 658.85 306.64 656.73 305.73 654.72 C 305.88 651.49 306.51 648.01 305.03 645.00 C 301.20 638.58 301.66 630.79 299.19 623.89 C 298.59 623.58 297.41 622.96 296.82 622.65 C 297.69 619.77 296.67 616.87 295.98 614.08 C 292.16 599.26 289.41 584.18 285.75 569.31 C 285.21 567.20 285.09 565.01 285.04 562.85 Z" />
</g>
<g id="#f4e7cfff">
<path fill="#f4e7cf" opacity="1.00" d=" M 247.49 473.26 C 248.35 471.98 249.19 470.69 249.97 469.36 C 250.92 470.90 251.71 472.54 252.32 474.26 C 250.65 474.19 248.77 474.62 247.49 473.26 Z" />
</g>
<g id="#8a7464cc">
<path fill="#8a7464" opacity="0.80" d=" M 405.07 506.02 C 404.51 504.77 404.77 503.75 405.84 502.95 C 406.57 504.27 406.31 505.30 405.07 506.02 Z" />
</g>
<g id="#806b5cca">
<path fill="#806b5c" opacity="0.79" d=" M 403.07 515.14 C 403.27 514.57 403.67 513.44 403.87 512.88 C 403.67 513.44 403.27 514.57 403.07 515.14 Z" />
</g>
<g id="#717a42ff">
<path fill="#717a42" opacity="1.00" d=" M 234.09 532.12 C 234.79 530.18 234.93 526.75 237.83 527.58 C 238.50 527.62 239.83 527.69 240.50 527.72 C 241.82 536.09 242.24 544.58 243.18 553.00 C 244.74 571.34 247.40 589.59 248.64 607.96 C 249.28 612.19 244.32 613.85 241.04 614.36 C 238.34 614.71 237.67 611.76 237.16 609.77 C 234.33 596.15 233.89 582.14 230.92 568.55 C 230.23 561.63 229.82 554.62 228.67 547.77 C 229.49 542.27 232.82 537.52 234.09 532.12 Z" />
<path fill="#717a42" opacity="1.00" d=" M 312.23 536.17 C 314.51 533.88 317.80 533.04 320.68 531.74 C 320.50 537.18 319.90 542.58 319.01 547.95 C 317.37 557.21 317.21 566.65 316.00 575.97 C 314.22 590.34 313.94 604.83 312.97 619.25 C 312.54 619.36 311.68 619.56 311.24 619.66 C 309.36 610.58 307.39 601.49 304.56 592.64 C 304.31 590.21 304.72 587.71 303.91 585.35 C 304.80 579.41 304.80 573.38 305.79 567.46 C 307.20 559.14 306.98 550.63 308.54 542.33 C 310.00 540.41 310.94 538.18 312.23 536.17 Z" />
</g>
<g id="#737b44ff">
<path fill="#737b44" opacity="1.00" d=" M 291.36 655.93 C 293.25 644.85 294.74 633.69 296.82 622.65 C 297.41 622.96 298.59 623.58 299.19 623.89 C 301.66 630.79 301.20 638.58 305.03 645.00 C 306.51 648.01 305.88 651.49 305.73 654.72 C 304.50 661.45 304.48 668.56 301.63 674.88 C 297.66 674.56 294.97 671.07 291.46 669.52 C 289.14 665.25 290.76 660.42 291.36 655.93 Z" />
</g>
<g id="#c2b9bac3">
<path fill="#c2b9ba" opacity="0.76" d=" M 290.29 700.21 C 290.85 700.81 290.85 700.81 290.29 700.21 Z" />
</g>
</svg>
