<svg viewBox="0 0 180 181" xmlns:xlink="http://www.w3.org/1999/xlink" xmlns="http://www.w3.org/2000/svg">
<defs><style>.cls-1{fill:none;}.cls-2{fill:#fff0f0;}.cls-3{fill:#1c1c23;}.cls-4{fill:#fffff8;}.cls-5{opacity:0.25;}.cls-6{fill:#ffb5b5;}.cls-7{fill:#070102;}.cls-8{fill:#fff1b0;}.cls-9{opacity:0.65;}.cls-10{fill:#e8d689;}.cls-11{fill:#c16753;}.cls-12{fill:#fff;}.cls-13{clip-path:url(#clip-path);}.cls-14{fill:#fefeff;}.cls-15{fill:#fdfefe;}.cls-16{fill:#fcfdfe;}.cls-17{fill:#fbfcfd;}.cls-18{fill:#fafcfd;}.cls-19{fill:#f9fbfc;}.cls-20{fill:#f8fafc;}.cls-21{fill:#f7fafb;}.cls-22{fill:#f6f9fb;}.cls-23{fill:#f5f9fa;}.cls-24{fill:#f4f8fa;}.cls-25{fill:#f3f7f9;}.cls-26{fill:#f2f7f9;}.cls-27{fill:#f1f6f8;}.cls-28{fill:#f0f5f8;}.cls-29{fill:#eff5f7;}.cls-30{fill:#eef4f7;}.cls-31{fill:#edf3f6;}.cls-32{fill:#ebf3f6;}.cls-33{fill:#eaf2f5;}.cls-34{fill:#e9f1f5;}.cls-35{fill:#e8f1f4;}.cls-36{fill:#e7f0f4;}.cls-37{fill:#e6eff3;}.cls-38{fill:#e5eff3;}.cls-39{fill:#e4eef2;}.cls-40{fill:#e3edf2;}.cls-41{fill:#e2edf1;}.cls-42{fill:#e1ecf1;}.cls-43{fill:#e0ecf0;}.cls-44{fill:#dfebf0;}.cls-45{fill:#deeaef;}.cls-46{fill:#ddeaef;}.cls-47{fill:#dce9ee;}.cls-48{fill:#dbe8ee;}.cls-49{fill:#dae8ed;}.cls-50{fill:#d9e7ed;}.cls-51{fill:#b3bece;}.cls-52{fill:#eaa9a9;}.cls-53{fill:#eab7b7;}.cls-54{fill:#a84a3b;}.cls-55{fill:#d87e6f;}</style>
<clipPath id="clip-path">
<path d="M139.56,63.53c0,1.91-4.17,3.47-9.48,3.47s-9.62-1.56-9.62-3.47,4.31-3.48,9.62-3.48S139.56,61.61,139.56,63.53Z" class="cls-1"></path>
</clipPath>
</defs>
<g id="图">
<polygon points="71.93 70.7 70.33 86.72 84.4 84.53 88.65 70.7 71.93 70.7" class="cls-2"></polygon>
<path d="M70.33,87.34a.63.63,0,0,1-.43-.17.61.61,0,0,1-.19-.51l1.6-16a.62.62,0,0,1,.62-.56H88.65a.63.63,0,0,1,.5.25.62.62,0,0,1,.09.56L85,84.72a.61.61,0,0,1-.5.43L70.42,87.34Zm2.17-16L71,86l12.89-2L87.8,71.33Z" class="cls-3"></path>
<path d="M92.83,110s6.67-3.73,9.75-1.63,5.11,14.24,8.3,18-12.81,8.87-12.81,8.87Z" class="cls-2"></path>
<path d="M98.07,135.81a.59.59,0,0,1-.31-.09.66.66,0,0,1-.3-.41L92.21,110.1a.63.63,0,0,1,.31-.67c.29-.16,7.06-3.91,10.41-1.6,1.8,1.22,3.14,5.14,4.56,9.28,1.19,3.5,2.43,7.12,3.86,8.8a2.16,2.16,0,0,1,.49,2.06c-1,3.69-12.3,7.4-13.57,7.81A.69.69,0,0,1,98.07,135.81Zm-4.54-25.5,5,24.06c4.61-1.55,11.47-4.55,12.09-6.74a.91.91,0,0,0-.23-.91c-1.59-1.86-2.86-5.59-4.1-9.2-1.29-3.77-2.62-7.67-4.07-8.66C100.12,107.42,95.57,109.25,93.53,110.31Z" class="cls-3"></path>
<path d="M87.54,79.67s36.26-30.78,40-34,4.6-1.76,6.47-2.94,8-8.71,10.49-7.35-4.52,10.12-7,12,4.32,2.38,4.69,4.51-.85,4-6.61,2.71c-7.75-1.67-36.76,33.2-36.76,33.2" class="cls-4"></path>
<path d="M98.89,88.38a.67.67,0,0,1-.4-.14.62.62,0,0,1-.08-.88c3-3.6,29.42-35.17,37.38-33.41,2.73.59,4.67.5,5.46-.27a1.82,1.82,0,0,0,.4-1.72c-.11-.63-1.56-1.26-2.61-1.72-1.35-.58-2.51-1.08-2.62-2a1.56,1.56,0,0,1,.77-1.39c2.2-1.66,7.4-8.28,7.24-10.52,0-.29-.14-.36-.2-.39-1.34-.73-5.16,3-7.2,5a22,22,0,0,1-2.66,2.37,4.51,4.51,0,0,1-2.09.68c-1,.14-2.07.29-4.31,2.21-3.76,3.22-40,34-40,34l-.81-1s36.25-30.77,40-34c2.52-2.15,3.87-2.34,5-2.49a3.61,3.61,0,0,0,1.6-.51A22.62,22.62,0,0,0,136.15,40c2.91-2.82,6.54-6.34,8.68-5.16a1.62,1.62,0,0,1,.84,1.4c.22,3-5.5,9.93-7.72,11.61-.25.18-.29.28-.29.29a8.31,8.31,0,0,0,1.87,1c1.54.66,3.12,1.35,3.35,2.65a3,3,0,0,1-.76,2.83c-1.14,1.09-3.36,1.29-6.6.6-6.1-1.26-28.15,23.36-36.15,33A.61.61,0,0,1,98.89,88.38Z" class="cls-3"></path>
<g class="cls-5"><polygon points="90.33 75.47 87.54 78.71 100.85 85.45 103.04 82.91 90.33 75.47" class="cls-6"></polygon></g>
<path d="M98.06,127.2c0,3.4,47.67-15.17,48.81,4.14.54,9.15-31.86,19.34-51.33,20.33s-43,2.7-38.86-25.21S67,109,67,109l29,4.63Z" class="cls-4"></path>
<path d="M83.33,152.73c-9.34,0-18.22-1.22-23.33-6.84-4-4.34-5.24-10.73-3.93-19.53,1.88-12.72,4.38-19.22,7.65-19.86,1.85-.34,3.19,1.26,3.65,1.91L96.14,113a.62.62,0,0,1,.52.52l2,13.46c1,.25,5.18-.68,9.25-1.57,11.5-2.51,28.87-6.3,36.19-.76a8.57,8.57,0,0,1,3.39,6.65,6.38,6.38,0,0,1-2,4.59c-7.21,8.05-33.22,15.56-50,16.41l-1,0C90.87,152.54,87.06,152.73,83.33,152.73Zm-19.09-45-.28,0c-1.49.29-4.34,3.13-6.66,18.82-1.24,8.4,0,14.45,3.63,18.5,6.74,7.42,21,6.69,33.54,6l1,0c16.39-.83,42.26-8.37,49.08-16a5.22,5.22,0,0,0,1.65-3.68,7.28,7.28,0,0,0-2.89-5.74c-6.87-5.19-24.59-1.32-35.17,1-7.14,1.56-9.52,2-10.39,1.3a.91.91,0,0,1-.35-.67l-2-13.1L66.9,109.6a.63.63,0,0,1-.44-.3S65.48,107.7,64.24,107.7Zm34.45,19.5h0Z" class="cls-3"></path>
<path d="M95.55,40.56s3.57,10.7,4.34,13,5.46,2.29,3.44,4.4-2.57,1-1.85,3.71,3.8,8.8-2,13.71-13.12,1.08-15.87-.25C81.2,74,64.06,64.89,70.93,52.14S92.08,35.06,95.55,40.56Z" class="cls-4"></path>
<path d="M92.77,78.49c-3.76,0-7.23-1.69-9.14-2.62l-.29-.14c-1.16-.56-11.41-5.71-14-13.82a12.47,12.47,0,0,1,1.08-10.07c4.89-9.07,13.55-14,19.58-14.24,2.81-.07,5,.84,6.12,2.63l.06.13s3.57,10.71,4.34,13c.26.79,1.23,1.29,2.08,1.73s1.74.9,1.88,1.72a1.83,1.83,0,0,1-.66,1.58,9.67,9.67,0,0,1-1.56,1.34c-.51.37-.51.37-.13,1.77.09.33.21.7.35,1.12,1,3,2.84,8.66-2.55,13.23A10.72,10.72,0,0,1,92.77,78.49ZM90.35,38.84H90c-5.67.19-13.85,4.92-18.52,13.59a11.25,11.25,0,0,0-1,9.08c2.51,7.76,13,12.87,13.4,13.08l.29.14c2.87,1.4,9.6,4.68,14.9.2,4.75-4,3.13-9,2.17-11.89-.15-.44-.28-.84-.37-1.18-.5-1.85-.5-2.32.61-3.11a9.67,9.67,0,0,0,1.39-1.19c.29-.3.33-.47.33-.51,0-.21-.78-.59-1.22-.82A4.8,4.8,0,0,1,99.3,53.8L95,40.83C94.13,39.54,92.5,38.84,90.35,38.84Z" class="cls-3"></path>
<path d="M99.59,62.24a5,5,0,0,0-3.83,0c-2,1,.06,5.42,3.37,9.23C99.13,71.47,101.24,68.81,99.59,62.24Z" class="cls-6"></path><path d="M99.14,72l-.25-.29c-2.21-2.54-4.63-6.29-4.2-8.46A1.72,1.72,0,0,1,95.63,62a5.36,5.36,0,0,1,4.09,0l.14.06,0,.15c1.66,6.64-.43,9.39-.52,9.5Zm-1.59-9.8a3.71,3.71,0,0,0-1.65.36,1.05,1.05,0,0,0-.59.81c-.3,1.51,1.24,4.6,3.78,7.61.46-.88,1.44-3.53.24-8.47A5.65,5.65,0,0,0,97.55,62.16Z" class="cls-3"></path>
<path d="M97.81,58.07c.24.76-1,2-2.91,3s-3.91.79-4.14-.28,1.14-2.24,3.1-3C96,56.92,97.48,57,97.81,58.07Z" class="cls-6"></path>
<g class="cls-5"><path d="M113.23,149l4.37-1.47s1.43-4.84,0-8.31,2.36-8,1.94-10.93a13.08,13.08,0,0,0-1.26-4.38l-5.58,1Z" class="cls-6"></path></g>
<ellipse transform="translate(-10.47 26.31) rotate(-14.79)" ry="3.2" rx="0.99" cy="53.5" cx="96.1" class="cls-7"></ellipse>
<path d="M101.62,124.67l-3.22-.1a18.24,18.24,0,0,1,0-8.57c1.47-5.34,2.27-19.48,0-25.52L88.65,77.84s-11.93,7.89-18.44,1.34C66.14,75.08,58,110.31,57.1,123.3c-.67,5-12,8.17-11.29,15.45.53,5.29,5.33,5.42,6.56,12,.74,3.94,8.73,10.41,19.86,6.24s9,9.7,21.88-1c5.75-4.75,9.51-.44,18-5.87s-1.63-9,3.73-17.93C117.61,129.3,117.42,116.77,101.62,124.67Z" class="cls-8"></path>
<path d="M86,160.77c-1.93,0-3.31-1-4.73-2-2.17-1.53-4.22-3-8.78-1.25-7.45,2.79-12.89.76-15.47-.69-2.79-1.57-4.84-3.93-5.23-6a11.33,11.33,0,0,0-3.49-6.26c-1.37-1.46-2.79-3-3.07-5.76-.44-4.48,3.26-7.45,6.53-10.07,2.32-1.85,4.51-3.61,4.76-5.52C57.27,112,64.05,80.15,69,78.33a1.52,1.52,0,0,1,1.69.41c6.06,6.09,17.54-1.34,17.65-1.42a.63.63,0,0,1,.84.14L98.91,90.1a.51.51,0,0,1,.09.16c2.39,6.34,1.43,20.79,0,25.9a17.33,17.33,0,0,0-.11,7.8l2.57.08c8.17-4,12.06-2.56,13.88-.59,2.55,2.74,2,7.44,1,9.08-2.39,4-1.54,6.86-.8,9.38.87,2.92,1.69,5.68-3.13,8.76a19.76,19.76,0,0,1-10.56,3.3c-2.55.18-4.76.34-7.41,2.52C90.61,159.71,88,160.77,86,160.77Zm-9.79-5.24A9.46,9.46,0,0,1,82,157.78c2.72,1.92,4.87,3.43,11.76-2.25,3-2.44,5.46-2.62,8.12-2.81a18.61,18.61,0,0,0,10-3.11c4-2.56,3.46-4.47,2.6-7.35-.78-2.63-1.75-5.9.93-10.37.85-1.42,1.16-5.38-.89-7.6-2.21-2.37-6.55-2.05-12.54.94a.53.53,0,0,1-.3.07l-3.22-.1a.63.63,0,0,1-.59-.49,18.91,18.91,0,0,1,0-8.88c1.54-5.58,2.18-19.25.06-25L88.5,78.67c-2.39,1.46-12.63,7.09-18.73,1-.19-.19-.29-.15-.37-.12-3.69,1.37-10.8,31.44-11.67,43.84-.33,2.46-2.71,4.36-5.22,6.38-3.17,2.54-6.45,5.16-6.08,9,.24,2.36,1.4,3.59,2.74,5A12.49,12.49,0,0,1,53,150.6c.27,1.43,1.8,3.58,4.61,5.17C60,157.12,65,159,72,156.38A11.78,11.78,0,0,1,76.17,155.53Z" class="cls-3"></path>
<g class="cls-9"><path d="M80.59,94.08s.25,14.87,17.33,21.71c0,0,1.74-8.51,1.32-11.22-.16-1-13.66-12-13.66-12Z" class="cls-10"></path></g><path d="M88.65,77.84s19.08,8.25,17.49,11.61c-.48,1-8.4,9.53-11.64,15.32L81.13,94.35" class="cls-8"></path>
<path d="M94.5,105.39a.6.6,0,0,1-.38-.13L80.74,94.84a.63.63,0,1,1,.77-1l12.81,10a103.71,103.71,0,0,1,9-11.8c1.12-1.33,2.17-2.58,2.3-2.85a.5.5,0,0,0,0-.43c-1.08-2.86-12.75-8.43-17.15-10.33a.62.62,0,0,1-.33-.82.63.63,0,0,1,.82-.33c1.68.72,16.37,7.16,17.83,11a1.75,1.75,0,0,1,0,1.41,27.42,27.42,0,0,1-2.47,3.11c-2.62,3.13-7,8.37-9.18,12.24a.63.63,0,0,1-.42.31Z" class="cls-3"></path>
<path d="M98.32,34.77c.64,8.56-4.91,17.92-13.41,17.37l0,5.06L82.75,71s-9.13,13-24.17,4.29c-20.09-11.57-15.21-36-6.7-43.5C63.94,21.11,81.93,26.1,81.93,26.1,90.46,22.38,98,30.89,98.32,34.77Z" class="cls-11"></path><path d="M68.67,78.83a20.67,20.67,0,0,1-10.4-3C47.67,69.68,44.67,60.69,44,54.22c-1-9.88,3-19,7.44-22.95,11.46-10.09,28.31-6.35,30.42-5.83a11.55,11.55,0,0,1,10.7,1c3.77,2.26,6.19,6,6.36,8.3a19,19,0,0,1-5,14.44,11.47,11.47,0,0,1-8.41,3.63l0,4.41L83.36,71a.63.63,0,0,1-.1.27C83.19,71.41,77.81,78.83,68.67,78.83ZM72,25.58c-6,0-13.67,1.29-19.73,6.64-4.21,3.71-8,12.41-7,21.87.62,6.18,3.49,14.77,13.62,20.61,13.78,7.92,22.28-2.68,23.26-4l2.1-13.6,0-5a.69.69,0,0,1,.2-.45.57.57,0,0,1,.47-.17,10.43,10.43,0,0,0,8.1-3.23A17.94,17.94,0,0,0,97.7,34.81h0c-.15-1.94-2.39-5.29-5.76-7.32a10.33,10.33,0,0,0-9.76-.81.67.67,0,0,1-.42,0A41.39,41.39,0,0,0,72,25.58Z" class="cls-3"></path>
<ellipse transform="translate(-18.86 42) rotate(-49.2)" ry="4.28" rx="5.09" cy="41.6" cx="36.44" class="cls-11"></ellipse><path d="M35.64,47a4.47,4.47,0,0,1-2.94-1.06h0c-2-1.76-2-5.14,0-7.53s5.39-2.89,7.44-1.12a4.54,4.54,0,0,1,1.53,3.59,6.17,6.17,0,0,1-1.55,3.94A6.09,6.09,0,0,1,35.64,47Zm-2.12-2c1.53,1.31,4.08.87,5.68-1a4.86,4.86,0,0,0,1.25-3.14,3.27,3.27,0,0,0-1.1-2.62c-1.52-1.32-4.07-.87-5.68,1S32,43.66,33.52,45Z" class="cls-3"></path>
<ellipse transform="translate(-22.88 36.8) rotate(-49.2)" ry="3.03" rx="3.61" cy="43.39" cx="28.75" class="cls-11"></ellipse><path d="M28.18,47.39a3.32,3.32,0,0,1-2.19-.8h0a3.36,3.36,0,0,1-1.15-2.68,4.71,4.71,0,0,1,3.86-4.48,3.32,3.32,0,0,1,4,3.09,4.53,4.53,0,0,1-1.13,3.26,4.6,4.6,0,0,1-2.72,1.56A4.46,4.46,0,0,1,28.18,47.39Zm1.14-6.75a3,3,0,0,0-.42,0,3.47,3.47,0,0,0-2.81,3.26,2.18,2.18,0,0,0,.71,1.72h0a2.16,2.16,0,0,0,1.8.45,3.44,3.44,0,0,0,2.8-3.48,2,2,0,0,0-2.09-2Z" class="cls-3"></path>
<ellipse transform="translate(-15.75 49.65) rotate(-49.2)" ry="5.99" rx="7.44" cy="42.02" cx="46.35" class="cls-11"></ellipse><path d="M44.93,49.5a5.84,5.84,0,0,1-3.85-1.37h0c-2.76-2.39-2.65-7.07.26-10.43s7.52-4.16,10.27-1.78,2.65,7.06-.25,10.42A8.7,8.7,0,0,1,44.93,49.5Zm-3-2.32c2.24,1.93,6.05,1.18,8.51-1.65s2.63-6.73.39-8.66-6.06-1.2-8.51,1.65-2.63,6.73-.39,8.66Z" class="cls-3"></path>
<path d="M130.12,75a11.22,11.22,0,0,1-1.18-.06,7.54,7.54,0,0,1-6.43-5.51l-1.39-5.17H139l-1.55,5.44a7.55,7.55,0,0,1-7.15,5.3Z" class="cls-12"></path><path d="M138.13,64.92l-1.32,4.62a6.94,6.94,0,0,1-6.69,4.87c-.39,0-.76,0-1.11,0a6.93,6.93,0,0,1-5.9-5l-1.18-4.39h16.2m1.66-1.25H120.3l1.61,6a8.11,8.11,0,0,0,7,6,12,12,0,0,0,1.24.07h.15A8.2,8.2,0,0,0,138,69.91l1.78-6.24Z" class="cls-3"></path>
<g class="cls-13"><rect height="6.95" width="19.1" y="60.05" x="120.46" class="cls-12"></rect><path d="M132.91,60a8,8,0,0,1,4.72,10.24v-.06H127.39V74.9a8,8,0,1,1,5.52-15Z" class="cls-12"></path><circle r="7.76" cy="67.42" cx="130.15" class="cls-14"></circle>
<circle r="7.55" cy="67.42" cx="130.15" class="cls-15"></circle><circle r="7.34" cy="67.42" cx="130.15" class="cls-16"></circle><circle r="7.13" cy="67.42" cx="130.15" class="cls-17"></circle>
<circle r="6.92" cy="67.42" cx="130.15" class="cls-18"></circle>
<circle r="6.71" cy="67.42" cx="130.15" class="cls-19"></circle>
<circle r="6.5" cy="67.42" cx="130.15" class="cls-20"></circle>
<circle r="6.29" cy="67.42" cx="130.15" class="cls-21"></circle>
<circle r="6.08" cy="67.42" cx="130.15" class="cls-22"></circle>
<circle r="5.87" cy="67.42" cx="130.15" class="cls-23"></circle>
<circle r="5.66" cy="67.42" cx="130.15" class="cls-24"></circle>
<circle r="5.45" cy="67.42" cx="130.15" class="cls-25"></circle>
<circle r="5.24" cy="67.42" cx="130.15" class="cls-26"></circle>
<circle r="5.03" cy="67.42" cx="130.15" class="cls-27"></circle>
<circle r="4.82" cy="67.42" cx="130.15" class="cls-28"></circle>
<circle r="4.61" cy="67.42" cx="130.15" class="cls-29"></circle>
<circle r="4.4" cy="67.42" cx="130.15" class="cls-30"></circle>
<circle r="4.19" cy="67.42" cx="130.15" class="cls-31"></circle>
<circle r="3.99" cy="67.42" cx="130.15" class="cls-32"></circle>
<circle r="3.78" cy="67.42" cx="130.15" class="cls-33"></circle>
<circle r="3.57" cy="67.42" cx="130.15" class="cls-34"></circle>
<circle r="3.36" cy="67.42" cx="130.15" class="cls-35"></circle>
<circle r="3.15" cy="67.42" cx="130.15" class="cls-36"></circle>
<circle r="2.94" cy="67.42" cx="130.15" class="cls-37"></circle>
<circle r="2.73" cy="67.42" cx="130.15" class="cls-38"></circle>
<circle r="2.52" cy="67.42" cx="130.15" class="cls-39"></circle>
<circle r="2.31" cy="67.42" cx="130.15" class="cls-40"></circle>
<circle r="2.1" cy="67.42" cx="130.15" class="cls-41"></circle>
<circle r="1.89" cy="67.42" cx="130.15" class="cls-42"></circle>
<circle r="1.68" cy="67.42" cx="130.15" class="cls-43"></circle>
<circle r="1.47" cy="67.42" cx="130.15" class="cls-44"></circle>
<circle r="1.26" cy="67.42" cx="130.15" class="cls-45"></circle>
<circle r="1.05" cy="67.42" cx="130.15" class="cls-46"></circle>
<circle r="0.84" cy="67.42" cx="130.15" class="cls-47"></circle><circle r="0.63" cy="67.42" cx="130.15" class="cls-48"></circle><circle r="0.42" cy="67.42" cx="130.15" class="cls-49"></circle><circle r="0.21" cy="67.42" cx="130.15" class="cls-50"></circle></g><path d="M130.08,67.63c-5,0-10.25-1.44-10.25-4.1s5.28-4.1,10.25-4.1,10.11,1.4,10.11,4.1S135.1,67.63,130.08,67.63Zm0-6.95c-5.57,0-9,1.66-9,2.85s3.43,2.84,9,2.84,8.85-1.65,8.85-2.84S135.57,60.68,130.08,60.68Z" class="cls-3"></path><path d="M129.44,75.3a8.4,8.4,0,0,0,4.87-5.18,5,5,0,0,1,3-3.12s-2,1.37-2.37,2.85a7.39,7.39,0,0,1-4.9,5.56C128.88,75.6,129.44,75.3,129.44,75.3Z" class="cls-51"></path><path d="M130,75.32a5,5,0,0,0,3.59-2.25,3,3,0,0,1,2.19-1.34A4,4,0,0,0,134,73a4.4,4.4,0,0,1-3.65,2.46C129.52,75.47,130,75.32,130,75.32Z" class="cls-51"></path><path d="M129.61,71s-.64-.67-.74-.17.8.82,1.17.65,1-.9.52-1.06-.5.33-.5.33S129.79,70.33,129.61,71Z" class="cls-52"></path><path d="M131.83,72.53c.16-.11.23-.27.09-.38s-.3,0-.35.17a.19.19,0,0,0-.25-.19c-.27.07-.08.65.13.73s.68,0,.69-.18S131.83,72.54,131.83,72.53Z" class="cls-53"></path><path d="M85.52,57.82S80,51.31,77.28,56.74c-1.92,3.87,1,16.07,9.49,12.2" class="cls-4"></path><path d="M83.66,70.33a6.15,6.15,0,0,1-4.46-2c-3-3.08-3.86-9.11-2.48-11.89a4,4,0,0,1,3-2.48c2.94-.39,6.12,3.28,6.25,3.44a.62.62,0,0,1-.06.88.63.63,0,0,1-.89-.07c-.78-.92-3.24-3.28-5.15-3a2.78,2.78,0,0,0-2,1.8c-1,2.12-.46,7.65,2.26,10.46,1.71,1.76,3.86,2.06,6.41.9a.61.61,0,0,1,.83.31.61.61,0,0,1-.31.82A8.22,8.22,0,0,1,83.66,70.33Z" class="cls-3"></path><path d="M138.26,69.29c-1.3-.77-1.63.78-1.8,1.36.2-.92.46-2.67-.5-3.05-1.27-.49-1.75,1.13-2,2,.17-1,.27-2.59-1.15-2.44-.8.08-1.18.9-1.35,1.75.06-.94,0-2.21-.89-2.22-1.51,0-2.61,3.44-2.47,6.19,0,0-3.51-3.67-4.92-1.44-2,3.18,4.63,6,4.35,6.91,0,0-6.33,21.81-8.16,22.13l-14.23-9.71L96.43,102s18.07,14.65,28,11.64c6-1.82,11.21-21,10.73-34.93C138.94,76.42,139.31,69.9,138.26,69.29Z" class="cls-4"></path><path d="M121.47,114.66c-10.28,0-24.75-11.64-25.43-12.19a.63.63,0,0,1-.1-.87l8.73-11.24a.61.61,0,0,1,.84-.13l13.9,9.48c1.18-1.42,4.68-11.74,7.48-21.39a11.9,11.9,0,0,0-1.1-.92C124,76,121,73.7,122.67,71.08a2,2,0,0,1,1.56-1,5.24,5.24,0,0,1,3.29,1.38,8.39,8.39,0,0,1,1.68-4.77,1.73,1.73,0,0,1,1.4-.65,1.29,1.29,0,0,1,1,.43,1.56,1.56,0,0,1,.28.41,1.82,1.82,0,0,1,.92-.38,1.62,1.62,0,0,1,1.42.48,2,2,0,0,1,.24.33,1.39,1.39,0,0,1,.38-.25,1.62,1.62,0,0,1,1.38,0,1.74,1.74,0,0,1,1,1.49,1.67,1.67,0,0,1,1.35.24h0c.53.31.81,1.12.81,2.41,0,2.63-1.09,6.15-3.57,7.88.38,14-4.76,33.23-11.19,35.18A10.87,10.87,0,0,1,121.47,114.66ZM97.31,101.88c2.91,2.26,18.32,13.78,27,11.15,5.3-1.61,10.79-19.88,10.3-34.31a.62.62,0,0,1,.3-.55c2.38-1.45,3-4.64,3.17-5.59a5.16,5.16,0,0,0-.11-2.77.61.61,0,0,0-.35-.1c-.22.09-.41.76-.47,1a.14.14,0,0,0,0,.06v0h0a.71.71,0,0,1-.74.4.56.56,0,0,1-.47-.67c.32-1.45.16-2.22-.12-2.33a.39.39,0,0,0-.36,0c-.42.21-.69,1.23-.79,1.56a.64.64,0,0,1-.74.45.63.63,0,0,1-.47-.72c.17-.95,0-1.47-.1-1.63s-.1-.12-.37-.08c-.5,0-.72.81-.81,1.26a.63.63,0,0,1-1.24-.17,2.51,2.51,0,0,0-.2-1.53.66.66,0,0,0-.55.25c-.85.87-1.46,3.23-1.36,5.26a.62.62,0,0,1-.38.6.63.63,0,0,1-.7-.14c-.77-.81-2.34-2-3.3-2a.81.81,0,0,0-.63.43c-1,1.53.78,3.08,2.82,4.66,1.14.88,1.82,1.4,1.59,2.11-2.93,10.09-6.81,22.23-8.64,22.55a.62.62,0,0,1-.46-.1l-13.75-9.38ZM127,78.15s0,0,0,0Z" class="cls-3"></path><g class="cls-5"><polygon points="98.72 103.03 107.15 92.75 105.27 91.46 97.16 101.9 98.72 103.03" class="cls-6"></polygon></g><path d="M85.23,63.5a.62.62,0,0,1-.57-.37c-.54-1.25-3.06-2.08-4-2.29a.63.63,0,0,1-.46-.75.62.62,0,0,1,.74-.47c.41.09,4,1,4.86,3a.62.62,0,0,1-.33.82A.53.53,0,0,1,85.23,63.5Z" class="cls-3"></path><path d="M82.27,64.34a.63.63,0,0,1-.62-.52A4.44,4.44,0,0,1,82.22,61a.63.63,0,1,1,1.07.65,3.19,3.19,0,0,0-.4,2,.64.64,0,0,1-.51.72Z" class="cls-3"></path><path d="M81.93,26.82a17.15,17.15,0,0,1,6.13,11.62,19.12,19.12,0,0,1-.64,6.7,25.19,25.19,0,0,1-1.14,3.15c-.51,1-1.07,2-1.64,2.89a38.81,38.81,0,0,0,1.84-6.26,20.32,20.32,0,0,0,.33-6.36,19.25,19.25,0,0,0-1.55-6.17A23.3,23.3,0,0,0,81.93,26.82Z" class="cls-54"></path><path d="M52.3,57.2a52.44,52.44,0,0,0,4.78,6.06A22.86,22.86,0,0,0,62.92,68,10.66,10.66,0,0,0,70,69.43c2.5-.29,4.6-1.91,6.73-3.37-1.78,1.83-3.81,3.76-6.54,4.31a11.12,11.12,0,0,1-7.86-1.26,21.07,21.07,0,0,1-6-5.22A29,29,0,0,1,52.3,57.2Z" class="cls-54"></path><path d="M54.17,52.09a33.19,33.19,0,0,0,4.42,4.22,19.74,19.74,0,0,0,5.17,3,11.91,11.91,0,0,0,5.82.69,15.33,15.33,0,0,0,5.63-2.14,12.39,12.39,0,0,1-5.51,2.85,11.76,11.76,0,0,1-6.27-.53A19.94,19.94,0,0,1,54.17,52.09Z" class="cls-55"></path><path d="M56.21,37.07a37.14,37.14,0,0,1,12.58-3.74,34.16,34.16,0,0,1,6.63,0,20.38,20.38,0,0,1,6.33,1.87,36.23,36.23,0,0,0-12.82-.65A84.1,84.1,0,0,0,56.21,37.07Z" class="cls-54"></path><path d="M57.55,32.08A32.45,32.45,0,0,1,68.8,27.75a27,27,0,0,1,6.09-.3,16.44,16.44,0,0,1,5.81,1.69A24.45,24.45,0,0,0,69,28.67a43.28,43.28,0,0,0-5.77,1.4C61.3,30.66,59.4,31.3,57.55,32.08Z" class="cls-55"></path><path d="M47.92,39.12s1.58,5.3-2.43,6.92" class="cls-11"></path><path d="M47.92,39.12a5.79,5.79,0,0,1,.56,4.1,4.51,4.51,0,0,1-1.08,1.9,3.53,3.53,0,0,1-1.91.92,6.6,6.6,0,0,0,1.36-1.39A4.82,4.82,0,0,0,47.57,43a8.79,8.79,0,0,0,.29-1.87C47.89,40.48,47.93,39.81,47.92,39.12Z" class="cls-3"></path><path d="M44.71,38.39c-.32.61-.58,1.22-.84,1.82A8.65,8.65,0,0,0,43.3,42a4.81,4.81,0,0,0-.09,1.81,6.24,6.24,0,0,0,.6,1.85A3.4,3.4,0,0,1,42.51,44a4.48,4.48,0,0,1-.13-2.18A5.77,5.77,0,0,1,44.71,38.39Z" class="cls-55"></path><path d="M49.25,144.73s10.47-10,11.46-13.06" class="cls-10"></path><path d="M48.82,144.28c2.15-1.94,4.27-3.93,6.33-6,1-1,2-2.06,3-3.15a15.92,15.92,0,0,0,2.56-3.49,15.92,15.92,0,0,1-2.32,3.69c-.89,1.16-1.84,2.27-2.79,3.37-1.91,2.2-3.89,4.34-5.91,6.45a.63.63,0,1,1-.9-.87Z" class="cls-3"></path><path d="M72.23,157s6.59-18.32,5.91-22.4" class="cls-10"></path><path d="M71.64,156.75c1.39-3.6,2.71-7.25,3.92-10.93.59-1.84,1.18-3.68,1.67-5.56a20.15,20.15,0,0,0,.91-5.7,20.53,20.53,0,0,1-.61,5.78c-.39,1.9-.88,3.78-1.37,5.66q-1.53,5.63-3.34,11.17a.64.64,0,0,1-.79.41.62.62,0,0,1-.4-.79Z" class="cls-3"></path><path d="M100.38,152.48s-8.84-14.78-9-19" class="cls-10"></path><path d="M99.84,152.8c-1.7-3.09-3.33-6.22-4.86-9.4-.76-1.59-1.51-3.19-2.17-4.82a19.18,19.18,0,0,1-1.47-5.06,19,19,0,0,0,1.76,4.93c.75,1.59,1.59,3.13,2.43,4.67,1.71,3.06,3.52,6.08,5.39,9a.63.63,0,0,1-1,.68Z" class="cls-3"></path><g class="cls-5"><path d="M145.28,134c-1.42,1.07-4.22-.84-5.57-2.78-1.71-2.47-1.65-5.19-.24-6.26s3.86.17,5.67,2.57S146.7,132.92,145.28,134Z" class="cls-6"></path></g><g class="cls-5"><path d="M117.29,111.66c-.44-1.72,1.77-4.54,4.08-5,2.94-.62,5.53,0,6,1.68s-.55,4-3.47,4.74S117.72,113.38,117.29,111.66Z" class="cls-6"></path></g><path d="M85.43,26.78A17.46,17.46,0,0,1,90.53,28a8.61,8.61,0,0,1,2.33,1.34,5.08,5.08,0,0,1,1.47,2.27l-.08.05a27.37,27.37,0,0,0-4-3,20.73,20.73,0,0,0-4.78-1.83Z" class="cls-12"></path></g></svg>