<?xml version="1.0" encoding="UTF-8" ?>
<!DOCTYPE svg PUBLIC "-//W3C//DTD SVG 1.1//EN" "http://www.w3.org/Graphics/SVG/1.1/DTD/svg11.dtd">
<svg width="920pt" height="1272pt" viewBox="0 0 920 1272" version="1.1" xmlns="http://www.w3.org/2000/svg">
<g id="#3f2f26ff">
<path fill="#3f2f26" opacity="1.00" d=" M 485.42 150.43 C 492.21 149.18 499.13 148.64 506.04 148.80 C 514.55 148.55 523.13 149.10 531.44 151.05 C 539.86 152.95 548.52 153.06 557.10 153.49 C 566.88 154.15 576.72 152.89 586.46 154.28 C 597.63 155.07 608.15 159.15 618.86 162.08 C 625.25 163.65 631.30 166.28 637.51 168.44 C 648.40 172.09 658.24 178.55 666.34 186.66 C 675.09 196.23 685.64 204.16 693.28 214.76 C 698.47 221.99 704.25 228.95 707.66 237.26 C 714.05 251.06 719.59 265.29 723.73 279.92 C 726.17 286.53 728.47 293.19 731.24 299.67 C 733.91 306.06 734.58 313.02 736.60 319.61 C 739.24 328.44 737.20 338.30 731.91 345.76 C 726.08 354.12 718.85 361.64 710.31 367.25 C 703.53 371.97 696.79 376.98 688.81 379.50 C 692.56 364.59 691.61 349.08 689.52 334.01 C 680.24 336.48 670.63 338.01 660.99 337.72 C 659.08 337.66 657.18 337.74 655.31 338.06 C 659.32 339.38 664.45 339.04 667.31 342.69 C 670.82 345.97 670.90 351.11 670.56 355.56 C 668.99 355.51 667.44 355.46 665.90 355.41 C 665.03 352.45 664.87 349.25 663.56 346.45 C 660.54 343.29 655.66 343.72 651.66 343.25 C 651.56 342.00 651.46 340.76 651.39 339.52 C 652.27 339.03 654.03 338.05 654.91 337.56 C 641.50 337.46 628.21 335.40 615.08 332.79 C 603.50 329.83 592.54 324.28 583.66 316.24 C 582.83 315.54 582.12 314.69 581.12 314.24 C 576.96 318.62 573.38 323.55 569.72 328.36 C 561.33 339.01 554.53 350.81 548.49 362.92 C 546.34 366.41 546.59 372.06 541.76 373.07 C 540.19 372.16 537.94 371.82 537.36 369.85 C 536.24 363.27 538.13 356.67 538.55 350.09 C 539.20 334.57 543.13 319.43 543.79 303.90 C 543.39 303.51 542.59 302.72 542.19 302.32 C 536.57 296.14 527.75 295.61 519.98 294.92 C 510.81 295.64 500.49 293.70 492.54 299.46 C 480.25 306.36 471.28 319.82 471.71 334.16 C 471.60 344.34 470.69 355.58 476.66 364.45 C 479.32 367.15 481.33 370.38 483.80 373.24 C 487.05 375.69 491.04 376.91 494.80 378.38 C 492.14 382.42 491.12 387.19 490.18 391.85 C 486.48 406.94 480.43 421.31 476.55 436.34 C 473.47 446.59 469.58 456.58 466.65 466.88 C 465.68 470.31 464.27 473.60 462.69 476.79 C 460.28 481.92 457.91 487.07 455.18 492.03 C 450.69 500.19 448.31 509.24 445.69 518.10 C 439.76 539.16 438.05 561.19 438.94 582.99 C 439.00 592.16 441.67 601.03 444.13 609.79 C 452.33 630.02 459.67 650.62 466.25 671.45 C 467.35 675.47 470.29 678.62 471.53 682.60 C 473.70 689.06 476.68 695.28 478.14 701.97 C 479.68 710.33 484.45 718.19 483.40 726.92 C 482.81 730.03 481.00 732.81 480.86 736.04 C 480.49 736.53 480.12 737.02 479.77 737.54 C 475.45 738.27 471.46 740.41 467.04 740.64 C 462.49 740.96 457.77 740.40 453.65 738.35 C 450.07 736.79 447.05 733.94 443.10 733.28 C 437.15 732.13 431.16 731.09 425.08 730.95 C 417.08 730.12 410.52 735.94 405.21 741.17 C 397.48 748.27 395.84 759.11 393.29 768.77 C 391.90 776.04 386.15 781.29 380.58 785.65 C 375.71 789.49 368.77 793.08 362.69 790.17 C 364.55 788.33 366.90 787.16 369.22 786.02 C 371.18 781.04 373.29 775.21 370.91 770.03 C 368.10 765.89 364.01 762.05 359.04 760.89 C 349.97 760.96 340.99 763.90 331.89 762.44 C 326.11 761.48 320.10 761.75 314.58 759.52 C 311.70 758.39 307.93 757.32 306.95 754.00 C 306.04 750.72 308.76 747.99 310.64 745.66 C 314.21 741.24 321.74 742.57 324.09 736.84 C 322.87 735.93 321.78 734.37 320.06 734.61 C 311.31 734.86 302.14 733.99 294.40 729.55 C 290.06 727.23 284.58 725.23 282.94 720.08 C 280.83 712.12 284.80 704.38 288.77 697.73 C 293.36 690.88 297.93 683.47 305.34 679.35 C 315.29 672.91 325.90 667.61 336.49 662.31 C 339.05 660.62 340.28 657.63 341.54 654.95 C 338.25 647.41 330.51 642.88 323.16 639.95 C 316.36 636.52 309.09 634.18 302.34 630.66 C 294.82 628.23 287.42 624.77 281.78 619.12 C 276.66 611.58 274.81 601.87 277.04 593.02 C 278.72 588.96 280.75 585.02 283.20 581.37 C 287.72 573.62 292.51 566.01 297.60 558.62 C 304.22 549.98 311.61 541.97 318.98 533.98 C 326.46 526.99 334.46 520.59 342.98 514.90 C 351.97 506.82 358.98 496.86 366.62 487.56 C 374.61 478.30 379.28 466.75 382.83 455.19 C 384.32 447.46 383.94 439.25 380.95 431.90 C 379.19 424.69 376.25 417.84 372.59 411.40 C 369.21 403.54 364.05 396.68 359.58 389.44 C 357.93 386.78 356.19 384.18 354.24 381.74 C 351.23 378.42 350.72 373.70 347.92 370.24 C 344.01 364.99 342.76 358.43 339.87 352.66 C 337.63 348.43 337.09 343.62 335.68 339.11 C 333.80 333.25 333.92 326.98 334.62 320.94 C 336.81 309.33 340.89 298.04 347.16 288.00 C 348.74 285.49 349.51 282.56 351.13 280.07 C 354.57 275.14 357.23 269.70 360.62 264.75 C 363.84 261.47 366.21 257.53 369.15 254.02 C 374.11 248.64 378.53 242.80 383.56 237.48 C 391.17 229.28 395.33 218.75 401.45 209.53 C 409.11 196.98 418.04 184.82 430.02 176.06 C 434.27 173.04 437.76 168.93 442.59 166.77 C 452.35 162.45 461.52 156.59 472.00 154.09 C 476.53 153.07 480.94 151.62 485.42 150.43 M 404.09 657.89 C 406.91 663.16 408.36 669.02 408.32 674.99 C 407.88 678.64 406.15 682.03 404.24 685.12 C 398.56 692.30 389.80 696.32 380.85 697.53 C 387.43 699.72 394.43 698.19 401.08 697.22 C 406.70 696.02 412.72 694.93 417.33 691.27 C 420.39 688.33 423.09 684.43 423.34 680.08 C 422.20 674.71 420.17 668.92 415.42 665.68 C 411.76 662.93 408.33 659.73 404.09 657.89 Z" />
<path fill="#3f2f26" opacity="1.00" d=" M 631.16 377.01 C 635.03 372.71 639.57 367.27 645.93 367.60 C 649.94 368.86 650.19 374.38 648.39 377.55 C 645.08 383.54 641.60 389.75 636.12 394.04 C 632.95 396.34 628.29 397.42 624.83 395.14 C 621.76 388.38 627.14 381.99 631.16 377.01 Z" />
<path fill="#3f2f26" opacity="1.00" d=" M 677.10 408.17 C 678.67 405.42 680.40 402.76 681.79 399.92 C 678.06 415.31 674.79 430.85 670.08 445.99 C 659.83 471.40 654.35 498.69 653.27 526.04 C 652.59 541.78 655.33 557.50 659.61 572.60 C 661.35 579.11 664.81 585.13 665.51 591.91 C 666.09 598.56 667.68 605.54 664.96 611.95 C 655.57 618.64 646.63 625.95 637.72 633.28 C 636.64 629.88 633.26 628.08 631.95 624.85 C 629.17 618.87 626.30 612.90 622.54 607.48 C 621.02 605.62 619.18 603.99 618.15 601.79 C 614.86 595.29 611.10 589.05 607.03 583.02 C 599.72 571.99 593.14 560.48 585.47 549.69 C 583.98 547.56 582.56 545.38 581.13 543.22 C 578.52 539.12 575.62 535.22 572.79 531.28 C 571.27 528.72 570.25 525.88 568.42 523.51 C 562.52 515.49 556.60 507.43 549.74 500.20 C 548.33 491.03 548.23 481.68 547.55 472.42 C 553.37 474.05 559.44 474.30 565.38 475.36 C 570.95 475.82 576.43 474.10 582.02 474.48 C 590.00 474.64 596.98 469.41 605.01 470.31 C 614.33 468.53 622.10 462.73 630.03 457.87 C 633.69 455.36 637.83 453.62 641.50 451.10 C 644.18 448.86 646.36 446.08 649.16 443.96 C 651.60 441.76 654.84 439.96 655.70 436.54 C 663.59 427.72 671.84 418.89 677.10 408.17 Z" />
</g>
<g id="#f2b18eff">
<path fill="#f2b18e" opacity="1.00" d=" M 492.54 299.46 C 500.49 293.70 510.81 295.64 519.98 294.92 C 527.75 295.61 536.57 296.14 542.19 302.32 C 536.80 305.92 530.30 303.94 524.50 302.72 C 513.90 301.16 502.19 303.70 494.35 311.33 C 488.09 317.10 485.05 325.67 484.46 334.00 C 484.95 340.45 486.01 347.48 490.56 352.44 C 495.01 357.62 500.96 361.10 507.05 364.00 C 512.27 366.63 511.78 375.30 506.41 377.48 C 502.67 378.59 498.66 378.50 494.80 378.38 C 491.04 376.91 487.05 375.69 483.80 373.24 C 481.33 370.38 479.32 367.15 476.66 364.45 C 470.69 355.58 471.60 344.34 471.71 334.16 C 471.28 319.82 480.25 306.36 492.54 299.46 Z" />
<path fill="#f2b18e" opacity="1.00" d=" M 569.72 328.36 C 573.38 323.55 576.96 318.62 581.12 314.24 C 582.12 314.69 582.83 315.54 583.66 316.24 C 592.54 324.28 603.50 329.83 615.08 332.79 C 628.21 335.40 641.50 337.46 654.91 337.56 C 654.03 338.05 652.27 339.03 651.39 339.52 C 645.89 339.14 640.50 340.64 635.00 340.37 C 620.36 340.68 605.68 339.50 591.32 336.60 C 583.70 335.11 576.63 331.77 569.72 328.36 Z" />
<path fill="#f2b18e" opacity="1.00" d=" M 507.27 323.33 C 512.32 322.34 516.36 326.13 520.17 328.81 C 523.56 331.16 526.47 334.78 526.69 339.06 C 527.02 343.76 522.73 348.14 518.02 347.93 C 514.30 348.14 511.47 345.35 508.57 343.47 C 504.86 340.65 499.93 338.08 499.20 332.98 C 498.46 328.10 502.56 323.82 507.27 323.33 Z" />
<path fill="#f2b18e" opacity="1.00" d=" M 541.76 373.07 C 546.59 372.06 546.34 366.41 548.49 362.92 C 548.60 363.44 548.82 364.47 548.92 364.99 C 558.65 364.34 568.79 364.91 577.70 369.25 C 587.86 374.09 595.30 383.71 598.52 394.38 C 601.27 403.84 599.30 414.46 593.32 422.30 C 588.63 429.01 581.19 433.48 573.29 435.34 C 563.36 437.82 552.87 436.08 543.36 432.75 C 534.70 429.69 527.00 423.35 523.26 414.86 C 518.79 405.57 518.98 394.01 524.15 385.04 C 527.40 379.13 531.19 373.07 537.36 369.85 C 537.94 371.82 540.19 372.16 541.76 373.07 Z" />
<path fill="#f2b18e" opacity="1.00" d=" M 476.55 436.34 C 479.91 436.76 481.64 439.99 484.34 441.64 C 495.66 448.67 506.28 456.93 518.37 462.66 C 522.95 464.78 527.85 466.03 532.68 467.43 C 537.71 468.86 542.51 471.00 547.55 472.42 C 548.23 481.68 548.33 491.03 549.74 500.20 C 556.60 507.43 562.52 515.49 568.42 523.51 C 570.25 525.88 571.27 528.72 572.79 531.28 C 569.68 533.86 565.27 534.36 561.70 532.42 C 550.80 526.78 543.62 516.33 533.84 509.18 C 524.74 501.50 515.69 493.64 505.38 487.58 C 500.56 484.55 495.85 480.85 490.03 480.08 C 481.01 478.18 471.70 478.54 462.69 476.79 C 464.27 473.60 465.68 470.31 466.65 466.88 C 469.58 456.58 473.47 446.59 476.55 436.34 Z" />
<path fill="#f2b18e" opacity="1.00" d=" M 593.37 601.27 C 594.88 601.23 596.48 601.41 597.84 602.15 C 606.98 610.97 615.35 620.58 623.60 630.25 C 616.56 638.63 608.13 645.73 600.04 653.07 C 584.04 666.15 567.51 678.57 550.71 690.60 C 543.91 684.65 537.67 678.09 531.30 671.70 C 527.66 668.34 524.18 664.81 521.15 660.90 C 523.59 658.12 527.22 657.11 530.36 655.41 C 536.51 652.06 542.57 648.46 547.97 643.97 C 555.86 637.76 564.78 632.92 572.40 626.37 C 577.80 620.46 583.70 614.95 588.28 608.34 C 590.01 606.01 591.33 603.36 593.37 601.27 Z" />
<path fill="#f2b18e" opacity="1.00" d=" M 626.04 692.92 C 635.89 691.25 646.30 692.47 655.31 696.90 C 662.36 700.44 669.40 704.34 675.05 709.94 C 677.68 712.67 679.79 715.85 682.24 718.75 C 677.90 721.83 673.87 725.37 669.41 728.27 C 665.35 730.49 661.20 732.53 657.14 734.76 C 650.28 737.11 643.43 740.40 636.00 740.06 C 630.58 739.75 625.03 740.01 619.84 738.20 C 608.98 734.76 598.83 729.27 589.66 722.54 C 595.47 707.23 609.78 695.32 626.04 692.92 Z" />
<path fill="#f2b18e" opacity="1.00" d=" M 182.00 1021.08 C 193.78 1008.81 205.44 996.26 219.22 986.16 C 221.36 990.36 225.07 993.44 227.37 997.54 C 232.25 1005.70 236.53 1014.50 238.00 1023.98 C 239.14 1034.08 238.33 1044.48 235.14 1054.16 C 231.85 1062.79 225.51 1070.06 217.99 1075.31 C 217.52 1075.10 216.59 1074.67 216.13 1074.45 C 207.59 1070.07 198.72 1066.30 189.46 1063.76 C 189.19 1063.24 188.64 1062.20 188.36 1061.69 C 182.99 1060.03 177.34 1059.15 172.26 1056.66 C 170.79 1056.23 170.65 1054.68 170.32 1053.47 C 167.36 1052.79 165.10 1050.18 165.33 1047.08 C 165.64 1042.20 167.35 1037.21 170.83 1033.68 C 174.68 1029.58 177.89 1024.93 182.00 1021.08 Z" />
<path fill="#f2b18e" opacity="1.00" d=" M 513.62 1205.86 C 522.31 1201.62 531.47 1206.37 539.63 1209.51 C 556.04 1216.71 572.08 1224.75 588.03 1232.92 C 593.46 1235.94 599.79 1236.70 605.22 1239.73 C 613.49 1244.13 621.46 1249.09 630.00 1252.99 C 634.49 1255.05 638.41 1258.11 642.76 1260.42 C 645.15 1261.51 647.59 1262.49 649.97 1263.64 C 649.11 1264.84 648.28 1266.09 647.47 1267.35 C 646.18 1268.92 644.90 1270.51 643.49 1272.00 L 588.47 1272.00 C 580.32 1265.96 571.46 1260.88 563.73 1254.26 C 548.43 1242.37 534.67 1228.66 521.22 1214.75 C 518.55 1211.90 515.31 1209.47 513.62 1205.86 Z" />
</g>
<g id="#f8d5baff">
<path fill="#f8d5ba" opacity="1.00" d=" M 494.35 311.33 C 502.19 303.70 513.90 301.16 524.50 302.72 C 530.30 303.94 536.80 305.92 542.19 302.32 C 542.59 302.72 543.39 303.51 543.79 303.90 C 543.13 319.43 539.20 334.57 538.55 350.09 C 538.13 356.67 536.24 363.27 537.36 369.85 C 531.19 373.07 527.40 379.13 524.15 385.04 C 518.98 394.01 518.79 405.57 523.26 414.86 C 527.00 423.35 534.70 429.69 543.36 432.75 C 552.87 436.08 563.36 437.82 573.29 435.34 C 581.19 433.48 588.63 429.01 593.32 422.30 C 599.30 414.46 601.27 403.84 598.52 394.38 C 595.30 383.71 587.86 374.09 577.70 369.25 C 568.79 364.91 558.65 364.34 548.92 364.99 C 548.82 364.47 548.60 363.44 548.49 362.92 C 554.53 350.81 561.33 339.01 569.72 328.36 C 576.63 331.77 583.70 335.11 591.32 336.60 C 605.68 339.50 620.36 340.68 635.00 340.37 C 640.50 340.64 645.89 339.14 651.39 339.52 C 651.46 340.76 651.56 342.00 651.66 343.25 C 655.66 343.72 660.54 343.29 663.56 346.45 C 664.87 349.25 665.03 352.45 665.90 355.41 C 667.44 355.46 668.99 355.51 670.56 355.56 C 670.90 351.11 670.82 345.97 667.31 342.69 C 664.45 339.04 659.32 339.38 655.31 338.06 C 657.18 337.74 659.08 337.66 660.99 337.72 C 670.63 338.01 680.24 336.48 689.52 334.01 C 691.61 349.08 692.56 364.59 688.81 379.50 C 687.16 386.52 684.73 393.34 681.79 399.92 C 680.40 402.76 678.67 405.42 677.10 408.17 C 671.84 418.89 663.59 427.72 655.70 436.54 C 651.24 440.88 646.53 444.94 641.92 449.12 C 638.52 444.53 634.52 440.43 630.72 436.19 C 628.42 433.83 626.33 431.17 623.54 429.37 C 622.03 428.35 620.63 430.03 619.54 430.87 C 619.61 432.47 619.66 434.09 619.71 435.70 C 619.02 434.78 618.32 433.84 617.66 432.93 C 610.42 438.67 605.40 447.12 603.35 456.10 C 602.34 460.37 600.20 464.58 600.87 469.08 C 601.51 470.64 603.67 469.95 605.01 470.31 C 596.98 469.41 590.00 474.64 582.02 474.48 C 576.43 474.10 570.95 475.82 565.38 475.36 C 559.44 474.30 553.37 474.05 547.55 472.42 C 542.51 471.00 537.71 468.86 532.68 467.43 C 527.85 466.03 522.95 464.78 518.37 462.66 C 506.28 456.93 495.66 448.67 484.34 441.64 C 481.64 439.99 479.91 436.76 476.55 436.34 C 480.43 421.31 486.48 406.94 490.18 391.85 C 491.12 387.19 492.14 382.42 494.80 378.38 C 498.66 378.50 502.67 378.59 506.41 377.48 C 511.78 375.30 512.27 366.63 507.05 364.00 C 500.96 361.10 495.01 357.62 490.56 352.44 C 486.01 347.48 484.95 340.45 484.46 334.00 C 485.05 325.67 488.09 317.10 494.35 311.33 M 507.27 323.33 C 502.56 323.82 498.46 328.10 499.20 332.98 C 499.93 338.08 504.86 340.65 508.57 343.47 C 511.47 345.35 514.30 348.14 518.02 347.93 C 522.73 348.14 527.02 343.76 526.69 339.06 C 526.47 334.78 523.56 331.16 520.17 328.81 C 516.36 326.13 512.32 322.34 507.27 323.33 M 631.16 377.01 C 627.14 381.99 621.76 388.38 624.83 395.14 C 628.29 397.42 632.95 396.34 636.12 394.04 C 641.60 389.75 645.08 383.54 648.39 377.55 C 650.19 374.38 649.94 368.86 645.93 367.60 C 639.57 367.27 635.03 372.71 631.16 377.01 Z" />
<path fill="#f8d5ba" opacity="1.00" d=" M 765.56 498.51 C 777.11 495.00 789.53 499.11 799.50 505.13 C 804.44 509.68 810.57 512.53 816.49 515.56 C 821.41 519.23 826.39 523.01 830.31 527.79 C 832.44 530.92 834.02 534.45 834.88 538.14 C 835.47 539.70 836.35 541.20 836.47 542.91 C 836.81 552.67 838.39 562.90 834.06 572.09 C 828.52 582.46 818.84 589.64 811.99 599.03 C 806.68 605.67 800.11 611.08 794.36 617.31 C 784.31 626.29 775.49 636.56 765.54 645.66 C 756.41 654.16 748.14 663.53 738.83 671.83 C 725.67 682.19 713.37 693.62 700.47 704.31 C 693.92 708.50 688.26 713.86 682.24 718.75 C 679.79 715.85 677.68 712.67 675.05 709.94 C 669.40 704.34 662.36 700.44 655.31 696.90 C 646.30 692.47 635.89 691.25 626.04 692.92 C 609.78 695.32 595.47 707.23 589.66 722.54 C 585.73 719.75 582.04 716.65 578.02 714.00 C 567.99 707.35 559.53 698.71 550.71 690.60 C 567.51 678.57 584.04 666.15 600.04 653.07 C 608.13 645.73 616.56 638.63 623.60 630.25 C 625.81 633.14 628.26 635.84 630.90 638.35 C 633.21 636.71 635.51 635.05 637.72 633.28 C 646.63 625.95 655.57 618.64 664.96 611.95 C 680.75 600.19 697.40 589.68 713.37 578.19 C 720.90 572.42 729.11 567.55 736.11 561.11 C 739.52 557.79 741.77 553.52 744.77 549.84 C 751.04 541.98 756.98 533.49 759.62 523.66 C 760.78 519.29 763.33 515.37 764.11 510.90 C 763.34 506.75 764.19 502.44 765.56 498.51 Z" />
<path fill="#f8d5ba" opacity="1.00" d=" M 261.22 959.85 C 267.40 956.93 274.31 956.26 281.02 955.59 C 290.47 955.29 299.90 960.15 305.31 967.87 C 311.27 975.05 315.80 983.26 320.70 991.16 C 323.83 999.17 328.76 1006.26 333.69 1013.25 C 338.39 1019.12 341.84 1025.84 346.16 1031.97 C 350.68 1037.80 354.54 1044.11 359.21 1049.84 C 362.30 1054.94 365.66 1059.97 370.13 1063.98 C 372.05 1065.65 374.14 1067.17 375.73 1069.20 C 378.87 1074.26 383.65 1077.97 387.41 1082.55 C 393.61 1089.04 399.53 1095.77 405.75 1102.23 C 414.53 1111.16 422.15 1121.17 431.26 1129.78 C 449.64 1149.36 468.25 1168.81 488.52 1186.48 C 494.43 1191.63 501.02 1195.93 506.98 1201.05 C 509.04 1202.84 511.30 1204.40 513.62 1205.86 C 515.31 1209.47 518.55 1211.90 521.22 1214.75 C 534.67 1228.66 548.43 1242.37 563.73 1254.26 C 571.46 1260.88 580.32 1265.96 588.47 1272.00 L 425.73 1272.00 C 411.79 1258.69 398.14 1245.05 385.42 1230.56 C 371.10 1216.82 358.79 1201.12 343.70 1188.15 C 338.39 1182.34 332.66 1176.83 326.20 1172.31 C 323.97 1169.39 321.28 1166.89 318.36 1164.68 C 308.94 1156.44 299.85 1147.84 291.18 1138.83 C 287.02 1133.95 281.58 1130.41 277.29 1125.66 C 269.57 1117.32 259.88 1111.04 252.54 1102.36 C 244.37 1094.72 235.96 1087.34 227.09 1080.51 C 224.35 1078.30 221.24 1076.62 217.99 1075.31 C 225.51 1070.06 231.85 1062.79 235.14 1054.16 C 238.33 1044.48 239.14 1034.08 238.00 1023.98 C 236.53 1014.50 232.25 1005.70 227.37 997.54 C 225.07 993.44 221.36 990.36 219.22 986.16 C 222.28 983.96 225.23 981.62 228.10 979.19 C 230.87 976.66 234.60 975.70 237.62 973.54 C 245.21 968.50 253.23 964.19 261.22 959.85 Z" />
</g>
<g id="#fef5f7ff">
<path fill="#fef5f7" opacity="1.00" d=" M 619.54 430.87 C 620.63 430.03 622.03 428.35 623.54 429.37 C 626.33 431.17 628.42 433.83 630.72 436.19 C 634.52 440.43 638.52 444.53 641.92 449.12 C 639.49 451.37 636.72 453.21 633.86 454.86 C 628.90 448.64 623.94 442.43 619.71 435.70 C 619.66 434.09 619.61 432.47 619.54 430.87 Z" />
<path fill="#fef5f7" opacity="1.00" d=" M 455.18 492.03 C 457.91 487.07 460.28 481.92 462.69 476.79 C 471.70 478.54 481.01 478.18 490.03 480.08 C 495.85 480.85 500.56 484.55 505.38 487.58 C 515.69 493.64 524.74 501.50 533.84 509.18 C 543.62 516.33 550.80 526.78 561.70 532.42 C 565.27 534.36 569.68 533.86 572.79 531.28 C 575.62 535.22 578.52 539.12 581.13 543.22 C 580.83 544.18 580.55 545.14 580.28 546.12 C 581.69 546.86 583.17 547.75 583.78 549.33 C 584.20 549.42 585.05 549.60 585.47 549.69 C 593.14 560.48 599.72 571.99 607.03 583.02 C 611.10 589.05 614.86 595.29 618.15 601.79 C 619.18 603.99 621.02 605.62 622.54 607.48 C 626.30 612.90 629.17 618.87 631.95 624.85 C 633.26 628.08 636.64 629.88 637.72 633.28 C 635.51 635.05 633.21 636.71 630.90 638.35 C 628.26 635.84 625.81 633.14 623.60 630.25 C 615.35 620.58 606.98 610.97 597.84 602.15 C 596.48 601.41 594.88 601.23 593.37 601.27 C 591.33 603.36 590.01 606.01 588.28 608.34 C 583.70 614.95 577.80 620.46 572.40 626.37 C 564.78 632.92 555.86 637.76 547.97 643.97 C 542.57 648.46 536.51 652.06 530.36 655.41 C 527.22 657.11 523.59 658.12 521.15 660.90 C 518.17 663.56 514.73 665.80 510.98 667.22 C 508.12 668.55 505.69 666.06 503.58 664.49 C 497.23 659.14 490.32 654.45 484.36 648.64 C 482.75 646.81 479.92 646.92 477.86 647.80 C 474.51 650.31 474.85 655.01 475.63 658.65 C 477.98 666.06 484.16 671.28 489.94 676.06 C 496.74 681.65 503.77 686.96 511.04 691.92 C 518.52 696.67 523.52 704.17 529.35 710.66 C 532.40 714.46 535.98 717.80 538.94 721.69 C 531.00 729.00 522.16 735.19 513.29 741.31 C 510.31 743.42 506.63 745.88 506.58 749.96 C 506.65 754.52 510.41 757.71 513.32 760.76 C 526.21 773.19 544.67 777.54 562.05 778.39 C 579.30 778.48 596.73 776.02 612.91 769.85 C 624.84 765.56 636.16 759.15 645.28 750.26 C 649.94 745.71 654.79 740.98 657.14 734.76 C 661.20 732.53 665.35 730.49 669.41 728.27 C 669.69 730.67 670.73 732.87 671.77 735.04 C 672.14 736.02 672.50 737.01 672.87 738.01 C 673.28 739.03 673.69 740.06 674.12 741.09 C 675.36 745.09 676.40 749.15 677.60 753.16 C 679.47 756.34 680.24 759.98 681.47 763.43 C 682.55 767.31 685.78 770.04 687.24 773.76 C 688.83 777.50 690.68 781.13 692.21 784.90 C 700.99 799.52 708.73 814.75 717.33 829.50 C 719.31 833.40 721.87 837.15 722.77 841.50 L 723.78 841.62 C 723.63 842.13 723.33 843.14 723.18 843.64 L 724.55 843.24 C 724.53 844.06 724.47 845.69 724.45 846.51 L 725.59 846.45 L 725.40 847.65 L 726.66 847.55 C 726.56 848.04 726.36 849.02 726.26 849.51 L 727.82 849.48 C 727.71 849.95 727.48 850.90 727.37 851.37 L 728.42 851.37 C 728.44 852.17 728.47 853.77 728.49 854.57 L 729.57 854.28 C 729.45 856.60 731.71 858.03 732.64 859.97 C 732.60 860.26 732.51 860.84 732.47 861.12 C 733.81 865.53 736.93 869.06 738.39 873.45 C 739.92 877.56 742.70 881.07 744.15 885.22 C 745.88 889.91 748.48 894.21 750.00 898.98 C 754.83 907.54 759.37 916.28 763.60 925.16 C 766.58 934.01 771.08 942.23 774.67 950.84 C 778.18 959.00 782.65 966.84 784.41 975.62 C 786.06 979.80 782.13 983.93 784.09 988.07 C 788.55 998.89 794.36 1009.11 799.53 1019.61 C 810.71 1041.78 822.52 1063.66 832.37 1086.48 C 840.62 1104.78 846.91 1123.86 853.42 1142.82 C 859.54 1160.93 864.55 1179.41 868.60 1198.09 C 874.04 1222.46 878.77 1247.06 880.47 1272.00 L 646.03 1272.00 C 646.61 1270.46 647.10 1268.92 647.47 1267.35 C 648.28 1266.09 649.11 1264.84 649.97 1263.64 C 647.59 1262.49 645.15 1261.51 642.76 1260.42 C 646.27 1260.86 649.72 1259.87 652.72 1258.09 C 627.81 1245.16 604.02 1230.13 581.15 1213.87 C 573.54 1208.76 568.89 1200.67 562.92 1193.95 C 551.26 1180.39 540.59 1165.60 526.01 1154.93 C 518.06 1147.87 512.22 1138.79 504.41 1131.56 C 492.26 1118.91 478.82 1107.49 464.05 1097.99 C 446.80 1087.48 428.21 1079.17 408.87 1073.33 C 402.66 1071.72 396.48 1069.48 389.98 1069.51 C 385.22 1069.52 380.45 1069.94 375.73 1069.20 C 374.14 1067.17 372.05 1065.65 370.13 1063.98 C 365.66 1059.97 362.30 1054.94 359.21 1049.84 C 354.54 1044.11 350.68 1037.80 346.16 1031.97 C 341.84 1025.84 338.39 1019.12 333.69 1013.25 C 328.76 1006.26 323.83 999.17 320.70 991.16 C 315.80 983.26 311.27 975.05 305.31 967.87 C 313.01 958.96 322.09 951.45 330.38 943.12 C 336.29 938.42 339.61 931.16 346.12 927.10 C 347.76 924.31 350.73 922.86 352.91 920.58 C 357.18 916.07 362.79 913.26 367.47 909.25 C 371.88 904.71 376.79 900.70 381.23 896.18 C 386.80 889.77 393.88 884.85 399.15 878.16 C 413.03 865.04 424.54 849.62 438.17 836.29 C 439.27 835.53 440.70 835.00 440.62 833.41 L 441.71 833.81 L 441.29 832.50 L 442.63 832.56 L 442.53 831.57 C 444.40 831.49 445.12 829.73 445.69 828.25 L 446.76 828.58 C 446.63 828.05 446.38 826.98 446.26 826.44 L 448.01 826.49 C 447.77 825.97 447.30 824.93 447.06 824.40 L 448.71 824.86 L 448.26 823.27 L 449.77 823.64 C 449.66 823.13 449.44 822.10 449.33 821.58 L 450.40 821.60 C 450.47 820.17 451.21 819.38 452.63 819.21 C 452.55 818.81 452.37 818.01 452.29 817.61 L 453.37 817.52 C 453.48 816.31 454.09 815.51 455.20 815.12 C 455.55 813.91 455.61 812.37 457.18 812.26 C 458.33 809.21 460.63 806.77 462.48 804.13 C 462.49 803.81 462.53 803.19 462.55 802.87 C 464.81 802.05 465.27 799.30 466.69 797.56 L 467.63 797.46 C 467.57 797.09 467.46 796.36 467.40 796.00 C 468.38 794.91 469.36 793.79 469.62 792.31 L 470.33 792.57 C 470.73 790.87 471.21 789.19 471.65 787.52 L 472.30 787.49 C 472.52 786.35 472.80 785.22 473.12 784.12 C 473.65 782.89 474.22 781.67 474.51 780.37 C 474.89 780.36 475.65 780.33 476.04 780.32 C 475.74 776.11 479.31 773.14 479.58 769.07 C 480.53 761.98 481.72 754.80 480.92 747.63 C 480.51 744.26 480.55 740.87 480.76 737.50 C 485.52 737.95 490.09 740.12 494.93 739.49 C 501.55 738.84 507.59 733.65 508.93 727.09 C 510.27 721.62 508.34 715.52 504.09 711.83 C 500.63 708.81 496.58 706.42 492.27 704.89 C 487.58 703.82 482.89 702.74 478.14 701.97 C 476.68 695.28 473.70 689.06 471.53 682.60 C 470.29 678.62 467.35 675.47 466.25 671.45 C 459.67 650.62 452.33 630.02 444.13 609.79 C 441.67 601.03 439.00 592.16 438.94 582.99 C 438.05 561.19 439.76 539.16 445.69 518.10 C 448.31 509.24 450.69 500.19 455.18 492.03 M 807.21 1152.84 C 807.05 1156.85 809.89 1160.09 810.79 1163.89 C 809.51 1160.23 808.96 1156.28 807.21 1152.84 Z" />
<path fill="#fef5f7" opacity="1.00" d=" M 216.13 1074.45 C 216.59 1074.67 217.52 1075.10 217.99 1075.31 C 221.24 1076.62 224.35 1078.30 227.09 1080.51 C 220.28 1083.33 215.01 1088.55 209.46 1093.22 C 211.60 1086.93 212.96 1080.34 216.13 1074.45 Z" />
</g>
<g id="#b25140ff">
<path fill="#b25140" opacity="1.00" d=" M 603.35 456.10 C 605.40 447.12 610.42 438.67 617.66 432.93 C 618.32 433.84 619.02 434.78 619.71 435.70 C 623.94 442.43 628.90 448.64 633.86 454.86 C 636.72 453.21 639.49 451.37 641.92 449.12 C 646.53 444.94 651.24 440.88 655.70 436.54 C 654.84 439.96 651.60 441.76 649.16 443.96 C 646.36 446.08 644.18 448.86 641.50 451.10 C 637.83 453.62 633.69 455.36 630.03 457.87 C 622.10 462.73 614.33 468.53 605.01 470.31 C 603.67 469.95 601.51 470.64 600.87 469.08 C 600.20 464.58 602.34 460.37 603.35 456.10 Z" />
</g>
<g id="#d6d0b2ff">
<path fill="#d6d0b2" opacity="1.00" d=" M 477.86 647.80 C 479.92 646.92 482.75 646.81 484.36 648.64 C 490.32 654.45 497.23 659.14 503.58 664.49 C 505.69 666.06 508.12 668.55 510.98 667.22 C 514.73 665.80 518.17 663.56 521.15 660.90 C 524.18 664.81 527.66 668.34 531.30 671.70 C 537.67 678.09 543.91 684.65 550.71 690.60 C 559.53 698.71 567.99 707.35 578.02 714.00 C 582.04 716.65 585.73 719.75 589.66 722.54 C 598.83 729.27 608.98 734.76 619.84 738.20 C 625.03 740.01 630.58 739.75 636.00 740.06 C 643.43 740.40 650.28 737.11 657.14 734.76 C 654.79 740.98 649.94 745.71 645.28 750.26 C 636.16 759.15 624.84 765.56 612.91 769.85 C 596.73 776.02 579.30 778.48 562.05 778.39 C 544.67 777.54 526.21 773.19 513.32 760.76 C 510.41 757.71 506.65 754.52 506.58 749.96 C 506.63 745.88 510.31 743.42 513.29 741.31 C 522.16 735.19 531.00 729.00 538.94 721.69 C 535.98 717.80 532.40 714.46 529.35 710.66 C 523.52 704.17 518.52 696.67 511.04 691.92 C 503.77 686.96 496.74 681.65 489.94 676.06 C 484.16 671.28 477.98 666.06 475.63 658.65 C 474.85 655.01 474.51 650.31 477.86 647.80 Z" />
<path fill="#d6d0b2" opacity="1.00" d=" M 478.14 701.97 C 482.89 702.74 487.58 703.82 492.27 704.89 C 496.58 706.42 500.63 708.81 504.09 711.83 C 508.34 715.52 510.27 721.62 508.93 727.09 C 507.59 733.65 501.55 738.84 494.93 739.49 C 490.09 740.12 485.52 737.95 480.76 737.50 C 480.79 737.13 480.84 736.41 480.86 736.04 C 481.00 732.81 482.81 730.03 483.40 726.92 C 484.45 718.19 479.68 710.33 478.14 701.97 Z" />
<path fill="#d6d0b2" opacity="1.00" d=" M 375.73 1069.20 C 380.45 1069.94 385.22 1069.52 389.98 1069.51 C 396.48 1069.48 402.66 1071.72 408.87 1073.33 C 428.21 1079.17 446.80 1087.48 464.05 1097.99 C 478.82 1107.49 492.26 1118.91 504.41 1131.56 C 512.22 1138.79 518.06 1147.87 526.01 1154.93 C 540.59 1165.60 551.26 1180.39 562.92 1193.95 C 568.89 1200.67 573.54 1208.76 581.15 1213.87 C 604.02 1230.13 627.81 1245.16 652.72 1258.09 C 649.72 1259.87 646.27 1260.86 642.76 1260.42 C 638.41 1258.11 634.49 1255.05 630.00 1252.99 C 621.46 1249.09 613.49 1244.13 605.22 1239.73 C 599.79 1236.70 593.46 1235.94 588.03 1232.92 C 572.08 1224.75 556.04 1216.71 539.63 1209.51 C 531.47 1206.37 522.31 1201.62 513.62 1205.86 C 511.30 1204.40 509.04 1202.84 506.98 1201.05 C 501.02 1195.93 494.43 1191.63 488.52 1186.48 C 468.25 1168.81 449.64 1149.36 431.26 1129.78 C 422.15 1121.17 414.53 1111.16 405.75 1102.23 C 399.53 1095.77 393.61 1089.04 387.41 1082.55 C 383.65 1077.97 378.87 1074.26 375.73 1069.20 Z" />
<path fill="#d6d0b2" opacity="1.00" d=" M 209.46 1093.22 C 215.01 1088.55 220.28 1083.33 227.09 1080.51 C 235.96 1087.34 244.37 1094.72 252.54 1102.36 C 259.88 1111.04 269.57 1117.32 277.29 1125.66 C 281.58 1130.41 287.02 1133.95 291.18 1138.83 C 299.85 1147.84 308.94 1156.44 318.36 1164.68 C 321.28 1166.89 323.97 1169.39 326.20 1172.31 C 321.27 1170.82 316.24 1169.08 311.03 1169.30 C 305.92 1169.46 301.10 1167.00 295.97 1167.38 C 291.30 1167.74 286.61 1167.99 281.94 1167.56 C 271.19 1166.74 260.71 1169.78 250.05 1170.34 C 240.00 1172.34 230.43 1176.19 220.47 1178.58 C 212.11 1181.13 204.40 1186.71 195.40 1186.46 C 194.62 1181.53 192.83 1176.46 194.32 1171.51 C 195.77 1166.43 196.25 1161.16 197.15 1155.98 C 200.78 1135.00 202.10 1113.38 209.46 1093.22 Z" />
</g>
<g id="#a1928837">
<path fill="#a19288" opacity="0.22" d=" M 479.77 737.54 C 480.12 737.02 480.49 736.53 480.86 736.04 C 480.84 736.41 480.79 737.13 480.76 737.50 C 480.55 740.87 480.51 744.26 480.92 747.63 C 481.72 754.80 480.53 761.98 479.58 769.07 C 479.31 773.14 475.74 776.11 476.04 780.32 C 475.65 780.33 474.89 780.36 474.51 780.37 C 474.99 776.36 476.82 772.70 477.88 768.84 C 479.87 764.85 479.55 760.31 480.06 756.00 C 480.54 752.30 478.56 748.40 480.37 744.90 C 479.98 742.46 479.34 740.01 479.77 737.54 Z" />
</g>
</svg>
