<svg id="panda" fill="none" width="50" height="50" viewBox="0 0 100 100" xmlns="http://www.w3.org/2000/svg">
  <path fill-rule="evenodd" clip-rule="evenodd" d="M23.776 13.295c-1.282 4.352-5.837 6.836-10.175 5.55-4.337-1.287-6.813-5.857-5.531-10.208 1.282-4.352 5.838-6.836 10.174-5.55 4.338 1.287 6.814 5.857 5.532 10.208zM50.412 21.197c-1.283 4.351-5.838 6.836-10.175 5.55-4.337-1.287-6.813-5.857-5.531-10.209 1.282-4.35 5.837-6.836 10.174-5.55 4.337 1.287 6.814 5.858 5.532 10.209z" fill="#0D1C40"></path>
  <path fill-rule="evenodd" clip-rule="evenodd" d="M44.724 34.846c-2.652 9-12.563 10.19-23.41 6.972C10.468 38.6 2.794 32.195 5.446 23.196c2.652-9 14.626-17.186 25.471-13.969 10.847 3.217 16.459 16.62 13.807 25.62z" fill="#FFFCFA"></path>
  <path fill-rule="evenodd" clip-rule="evenodd" d="M7.435 28.413c1.354 2.115 4.326 2.62 7.963.276 3.636-2.346 4.41-5.268 3.056-7.383-1.355-2.115-4.327-2.622-7.963-.276-3.637 2.345-4.412 5.268-3.056 7.383z" fill="#0D1C40"></path>
  <path fill-rule="evenodd" clip-rule="evenodd" d="M31.182 9.314l-9.6 32.579c10.742 3.12 20.515 1.88 23.145-7.047 2.63-8.926-2.872-22.178-13.545-25.532z" fill="#E9DED6"></path>
  <path fill-rule="evenodd" clip-rule="evenodd" d="M39.623 37.96c-2.284 1.036-5.051-.16-6.832-4.112-1.781-3.952-.847-6.828 1.436-7.863 2.283-1.036 5.051.16 6.833 4.113 1.78 3.952.846 6.827-1.437 7.863z" fill="#0D1C40"></path>
  <path fill-rule="evenodd" clip-rule="evenodd" d="M16.524 24.542a1.85 1.85 0 11-3.549-1.052 1.85 1.85 0 012.3-1.255c.98.291 1.539 1.324 1.25 2.307zM38.241 30.984a1.85 1.85 0 11-3.548-1.052 1.85 1.85 0 012.298-1.255c.98.291 1.54 1.324 1.25 2.307z" fill="#fff"></path>
  <path d="M25.067 29.075c.247.073.396.32.353.569l-.013.057-1.062 3.602a3.156 3.156 0 01-3.924 2.14 3.17 3.17 0 01-2.164-3.824l.031-.112.245-.832a.502.502 0 01.977.229l-.014.057-.244.832a2.162 2.162 0 001.454 2.684 2.152 2.152 0 002.644-1.36l.032-.1 1.061-3.601a.502.502 0 01.624-.34z" fill="#0D1C40"></path>
  <path d="M25.068 29.075c.247.073.396.32.353.57l-.014.056-1.061 3.602a2.162 2.162 0 001.455 2.685 2.152 2.152 0 002.643-1.36l.032-.1.245-.83a.502.502 0 01.977.228l-.013.057-.245.831a3.156 3.156 0 01-3.924 2.14 3.17 3.17 0 01-2.164-3.824l.03-.112 1.062-3.602a.502.502 0 01.624-.34z" fill="#0D1C40"></path>
  <path fill-rule="evenodd" clip-rule="evenodd" d="M21.41 28.49l2.473 4.236 4.37-2.206c.723-.363.628-1.425-.146-1.655l-5.676-1.683c-.774-.23-1.43.61-1.021 1.308z" fill="#0D1C40"></path>
</svg>