<?xml version="1.0" encoding="UTF-8" ?>
<!DOCTYPE svg PUBLIC "-//W3C//DTD SVG 1.1//EN" "http://www.w3.org/Graphics/SVG/1.1/DTD/svg11.dtd">
<svg width="750pt" height="639pt" viewBox="0 0 750 639" version="1.1" xmlns="http://www.w3.org/2000/svg">
<g id="#ffe751ff">
<path fill="#ffe751" opacity="1.00" d=" M 396.51 105.71 C 399.43 103.66 403.86 104.08 406.11 106.93 C 408.06 109.79 408.97 113.53 407.90 116.91 C 406.53 121.41 405.64 126.66 401.52 129.56 C 398.87 131.99 394.22 132.23 391.70 129.53 C 389.58 125.91 388.83 121.39 390.50 117.44 C 392.11 113.39 393.02 108.63 396.51 105.71 Z" />
<path fill="#ffe751" opacity="1.00" d=" M 371.20 134.93 C 371.16 130.60 374.59 126.54 379.04 126.44 C 386.00 126.21 391.40 131.63 394.76 137.19 C 399.25 133.30 404.47 128.55 410.90 129.56 C 416.64 130.37 419.91 136.74 418.81 142.11 C 417.03 152.02 408.94 159.34 400.89 164.61 C 403.65 164.32 406.65 164.12 409.14 165.60 C 413.51 168.01 415.29 173.79 413.69 178.40 C 410.65 188.64 401.62 195.33 393.44 201.42 C 388.38 204.69 383.16 209.68 376.62 208.28 C 372.82 206.81 369.94 203.88 367.15 201.04 C 363.01 196.67 361.40 190.72 359.66 185.13 C 358.41 179.54 356.75 173.80 357.56 168.03 C 358.34 162.78 363.67 158.79 368.94 159.51 C 373.14 159.68 376.34 162.64 379.55 164.98 C 378.60 160.07 375.74 155.80 374.49 150.97 C 373.14 145.70 371.20 140.43 371.20 134.93 M 380.04 164.01 C 379.88 164.39 379.56 165.13 379.41 165.50 C 382.02 168.33 383.39 171.95 385.32 175.22 C 385.63 174.60 385.91 173.97 386.16 173.33 C 388.06 171.58 390.04 169.91 392.20 168.48 C 391.20 168.33 389.20 168.01 388.20 167.85 L 388.44 167.40 C 385.57 166.43 382.79 165.25 380.04 164.01 Z" />
<path fill="#ffe751" opacity="1.00" d=" M 344.53 207.99 C 344.27 203.03 348.09 198.17 353.08 197.59 C 358.54 196.84 363.56 200.08 367.15 203.89 C 370.10 208.19 372.09 213.02 373.49 218.02 C 374.05 217.47 374.62 216.92 375.19 216.37 C 380.82 211.02 386.90 204.98 394.95 203.85 C 402.70 203.17 408.84 212.14 406.24 219.22 C 402.79 229.94 394.01 237.85 384.80 243.76 C 378.90 247.52 374.11 254.37 366.50 254.33 C 362.26 252.78 358.98 249.61 355.69 246.67 C 351.96 241.76 351.56 235.43 349.34 229.86 C 346.56 222.90 344.70 215.50 344.53 207.99 Z" />
<path fill="#ffe751" opacity="1.00" d=" M 335.47 243.46 C 337.43 239.15 342.95 236.45 347.42 238.45 C 352.00 240.27 354.15 245.07 355.94 249.32 C 357.82 254.58 359.60 259.88 361.37 265.18 C 362.63 263.81 363.89 262.44 365.09 261.01 C 369.12 256.28 374.05 252.27 379.65 249.55 C 383.73 247.67 388.63 246.35 392.91 248.37 C 396.86 250.16 399.07 254.72 398.42 258.95 C 397.41 266.07 392.51 271.71 388.23 277.17 C 383.46 283.01 379.09 289.26 373.44 294.31 C 368.89 298.60 363.44 301.71 358.62 305.65 C 353.56 308.43 347.27 306.67 343.97 302.08 C 341.04 296.47 340.38 290.07 338.79 284.03 C 337.03 275.45 335.44 266.82 334.20 258.15 C 333.46 253.27 333.44 248.05 335.47 243.46 Z" />
<path fill="#ffe751" opacity="1.00" d=" M 492.80 243.87 C 498.37 242.01 503.94 245.16 509.06 247.09 C 516.41 250.75 525.32 253.23 529.53 260.93 C 529.60 265.32 527.53 269.27 523.63 271.39 C 520.59 271.43 517.36 271.22 515.02 269.04 C 509.81 264.71 503.38 262.37 497.13 260.01 C 492.84 258.54 491.60 253.85 489.81 250.21 C 488.43 247.83 490.20 244.46 492.80 243.87 Z" />
<path fill="#ffe751" opacity="1.00" d=" M 533.26 248.50 C 535.54 244.06 541.77 242.15 546.00 245.01 C 550.47 248.00 552.05 253.52 553.22 258.48 C 554.68 265.89 556.13 273.97 553.33 281.23 C 552.42 283.69 551.78 286.24 550.68 288.63 C 549.32 291.46 546.38 292.97 543.76 294.42 C 532.75 297.43 520.96 296.41 510.21 292.85 C 505.76 291.24 501.04 288.87 498.82 284.47 C 496.64 279.67 499.81 273.45 505.05 272.62 C 512.04 271.59 519.21 272.33 526.10 273.73 C 527.56 274.06 529.02 274.37 530.50 274.68 C 530.58 270.40 530.62 266.11 530.14 261.85 C 530.01 257.23 531.20 252.62 533.26 248.50 Z" />
<path fill="#ffe751" opacity="1.00" d=" M 567.95 273.90 C 570.66 268.51 576.80 264.49 582.95 265.86 C 589.17 267.23 593.61 272.75 595.51 278.59 C 599.23 290.25 599.35 302.85 597.25 314.84 C 596.85 317.35 595.38 319.53 593.45 321.14 C 587.11 322.64 581.75 326.87 575.11 327.34 C 565.52 328.37 555.91 326.91 546.60 324.69 C 541.48 323.32 537.50 319.68 533.03 317.06 C 529.59 314.99 527.46 310.98 527.56 306.99 C 527.73 303.01 530.66 299.80 533.85 297.74 C 537.18 295.58 541.26 295.41 545.10 295.08 C 552.90 295.53 560.95 296.45 567.82 300.50 C 567.37 298.04 566.96 295.58 566.63 293.10 C 565.75 286.72 564.74 279.83 567.95 273.90 Z" />
<path fill="#ffe751" opacity="1.00" d=" M 313.52 276.40 C 315.60 270.87 322.13 266.91 327.91 269.18 C 333.41 271.34 336.11 277.12 337.61 282.47 C 340.12 291.60 341.75 300.97 342.83 310.37 C 342.99 314.73 343.57 319.05 344.03 323.38 C 348.44 318.06 353.02 312.88 358.16 308.25 C 363.70 303.62 369.38 298.87 376.17 296.20 C 379.87 294.88 384.09 293.73 387.89 295.34 C 393.19 297.37 395.89 303.51 395.46 308.91 C 394.50 316.06 389.79 321.92 384.90 326.92 C 375.86 336.46 363.83 342.25 353.64 350.33 C 350.15 351.62 346.69 353.23 342.95 353.56 C 338.87 353.80 335.16 351.78 331.96 349.48 C 328.63 346.52 326.29 342.67 324.28 338.74 C 318.94 328.76 316.21 317.68 313.29 306.82 C 311.50 296.85 309.88 286.15 313.52 276.40 Z" />
<path fill="#ffe751" opacity="1.00" d=" M 621.87 307.58 C 625.96 305.78 630.95 306.68 634.24 309.68 C 638.39 313.17 639.08 318.97 639.53 324.03 C 640.17 339.39 637.16 354.70 632.29 369.21 C 630.70 371.90 628.43 374.46 625.28 375.22 C 622.36 375.88 619.36 375.97 616.41 376.29 C 611.28 374.69 605.91 374.03 600.83 372.25 C 587.39 368.68 574.83 360.56 567.40 348.64 C 564.30 343.38 564.39 335.27 569.88 331.61 C 572.68 329.44 576.35 329.48 579.72 329.64 C 589.39 331.70 597.79 337.27 606.24 342.14 C 606.36 340.08 606.46 338.01 606.61 335.96 C 607.09 330.10 608.13 324.16 610.87 318.90 C 613.36 314.22 616.74 309.56 621.87 307.58 Z" />
<path fill="#ffe751" opacity="1.00" d=" M 171.39 336.61 C 174.37 335.24 178.24 337.70 178.31 340.97 C 177.88 343.61 176.25 345.81 174.93 348.06 C 172.88 351.20 171.06 354.98 167.29 356.35 C 163.96 356.89 161.42 354.65 159.06 352.69 C 159.44 350.08 159.21 347.13 161.17 345.07 C 163.99 341.67 167.22 338.29 171.39 336.61 Z" />
<path fill="#ffe751" opacity="1.00" d=" M 143.91 353.96 C 145.20 350.46 149.51 348.45 152.99 349.88 C 155.69 350.74 157.23 353.29 158.31 355.73 C 158.89 357.15 159.51 358.55 160.14 359.96 C 162.33 358.80 164.52 357.61 166.78 356.59 C 169.45 356.19 172.55 356.27 174.63 358.26 C 177.92 361.25 177.11 367.12 173.44 369.46 C 170.31 371.62 166.78 373.31 164.41 376.41 C 167.44 375.60 170.98 375.12 173.56 377.34 C 177.51 380.08 177.91 386.20 174.84 389.74 C 171.01 394.07 165.91 397.00 161.65 400.86 C 164.73 399.45 168.27 397.64 171.60 399.43 C 176.28 401.39 177.78 407.78 174.85 411.82 C 170.58 417.46 164.82 421.73 159.95 426.83 C 162.46 425.48 165.03 423.67 168.05 424.10 C 171.84 424.20 175.06 427.41 175.54 431.11 C 176.33 435.07 174.02 438.67 171.81 441.72 C 167.44 447.35 161.87 451.84 156.81 456.80 C 160.37 454.45 163.73 451.22 168.19 450.83 C 171.21 450.87 174.27 452.59 175.61 455.37 C 177.34 458.81 176.54 463.14 174.13 466.07 C 169.32 472.26 163.22 477.33 156.72 481.66 C 151.84 483.74 147.18 487.36 141.55 486.13 C 143.09 488.69 144.64 491.25 146.23 493.78 C 149.33 490.39 152.71 487.30 156.06 484.18 C 159.63 481.30 163.20 478.34 167.30 476.25 C 171.22 474.22 176.67 475.03 179.24 478.82 C 181.82 482.65 180.96 487.84 178.65 491.60 C 173.09 500.72 164.41 507.22 156.21 513.79 C 152.01 518.21 145.79 516.64 140.41 516.80 C 137.69 516.23 135.33 514.63 133.64 512.46 C 129.19 506.99 125.33 501.02 122.25 494.68 C 119.98 489.87 117.72 483.80 120.78 478.85 C 124.84 474.11 133.36 474.76 136.79 480.00 C 133.98 475.17 131.48 470.18 128.84 465.25 C 127.02 461.62 125.22 456.82 128.07 453.22 C 130.40 449.52 135.38 448.70 139.13 450.64 C 135.76 445.79 132.95 440.52 130.88 435.00 C 129.15 430.32 132.96 424.64 137.97 424.61 C 140.82 424.47 143.07 426.41 145.27 427.92 C 141.36 422.57 137.36 417.14 135.05 410.86 C 133.62 407.87 134.41 404.60 135.70 401.73 C 138.58 400.20 142.01 399.50 144.80 401.66 C 141.47 397.28 140.15 391.81 137.93 386.86 C 135.85 381.82 140.63 375.76 146.01 376.53 C 148.95 376.68 151.04 378.96 152.77 381.10 C 153.56 382.04 154.34 383.01 155.12 383.98 C 158.11 381.92 160.89 379.58 163.41 376.97 C 159.94 377.74 156.38 378.66 152.81 378.00 C 147.46 375.42 146.79 369.06 145.15 364.03 C 144.36 360.78 142.54 357.30 143.91 353.96 M 146.42 403.21 C 145.88 404.54 147.95 406.21 149.18 405.46 C 149.89 406.90 150.97 408.11 151.96 409.36 C 154.67 407.67 156.97 405.44 159.11 403.09 C 155.82 403.97 152.50 404.81 149.08 404.94 C 149.00 403.75 147.56 402.56 146.42 403.21 M 150.41 432.22 C 149.49 434.29 153.31 434.68 153.64 432.74 C 153.41 431.37 151.23 431.47 150.41 432.22 M 145.17 456.19 C 147.04 458.13 148.99 459.99 151.01 461.77 C 153.09 460.46 154.97 458.87 156.55 456.99 C 152.72 457.71 148.85 457.44 145.17 456.19 Z" />
<path fill="#ffe751" opacity="1.00" d=" M 649.04 364.05 C 651.94 361.16 655.74 358.29 660.07 358.80 C 665.26 360.00 669.00 364.67 670.58 369.57 C 674.02 381.73 671.78 394.53 668.66 406.51 C 667.81 411.42 667.73 416.46 666.32 421.27 C 664.33 424.82 662.64 428.81 659.20 431.24 C 656.86 433.03 653.83 433.34 650.99 433.46 C 644.83 432.89 639.80 429.08 634.09 427.15 C 626.10 424.41 618.73 420.02 612.02 414.93 C 605.48 408.75 598.83 401.41 597.79 392.07 C 596.93 386.27 600.94 379.81 607.09 379.39 C 611.28 379.38 615.42 380.39 619.55 381.07 C 626.50 384.25 632.98 388.47 638.55 393.72 C 638.98 389.29 639.46 384.85 640.48 380.52 C 642.08 374.51 644.78 368.64 649.04 364.05 Z" />
<path fill="#ffe751" opacity="1.00" d=" M 488.79 387.69 C 489.95 385.38 492.14 383.35 494.82 383.19 C 497.50 383.73 499.35 386.29 499.36 388.97 C 499.55 393.58 499.07 398.18 498.43 402.75 C 500.85 402.02 503.38 400.88 505.96 401.63 C 510.99 402.56 514.23 408.24 512.88 413.10 C 511.65 418.37 507.92 422.49 504.29 426.29 C 500.49 430.17 496.94 434.78 491.50 436.38 C 487.61 435.34 484.00 433.51 480.67 431.29 C 476.43 426.82 473.97 421.07 471.60 415.48 C 470.10 411.87 469.42 407.34 471.93 404.03 C 473.34 402.00 475.82 401.41 477.99 400.59 C 480.05 401.33 482.08 402.16 484.06 403.12 C 484.96 397.80 486.32 392.51 488.79 387.69 Z" />
<path fill="#ffe751" opacity="1.00" d=" M 678.63 407.47 C 684.20 405.13 691.21 406.01 695.47 410.49 C 700.10 415.04 700.81 421.89 701.28 428.03 C 702.72 443.58 698.65 459.07 692.80 473.34 C 690.67 477.29 688.02 480.92 685.83 484.84 C 683.68 488.58 679.80 491.05 675.62 491.87 C 673.37 491.96 671.10 492.05 668.89 491.60 C 656.68 487.90 644.88 482.21 635.31 473.64 C 629.18 467.74 623.18 461.62 618.31 454.62 C 615.37 449.78 613.01 443.69 615.19 438.10 C 617.13 433.01 622.73 430.21 627.99 430.43 C 633.35 430.59 638.30 433.21 642.57 436.27 C 649.68 441.76 656.01 448.24 661.59 455.28 C 662.19 456.07 662.81 456.87 663.45 457.66 C 663.68 451.44 662.45 445.25 662.82 439.03 C 663.53 432.63 665.70 426.52 667.54 420.39 C 669.63 415.06 673.01 409.55 678.63 407.47 Z" />
<path fill="#ffe751" opacity="1.00" d=" M 469.84 433.90 C 473.24 432.51 476.98 433.72 479.94 435.58 C 483.03 438.75 484.74 442.89 486.32 446.96 C 487.62 445.66 488.92 444.35 490.18 443.01 C 493.36 439.90 497.05 436.03 501.93 436.59 C 507.25 436.79 510.55 443.17 508.67 447.87 C 506.71 455.32 500.43 460.27 496.80 466.80 C 494.51 470.83 490.41 473.28 486.35 475.24 C 481.75 477.09 477.29 474.73 473.69 471.96 C 470.46 469.63 469.24 465.72 467.83 462.20 C 465.86 456.93 464.28 451.47 463.51 445.88 C 463.06 441.20 465.14 435.64 469.84 433.90 Z" />
<path fill="#ffe751" opacity="1.00" d=" M 706.57 462.63 C 710.82 459.62 716.22 460.35 721.12 460.34 C 726.11 460.46 729.81 465.14 730.40 469.83 C 731.90 481.98 730.43 495.08 723.61 505.52 C 718.88 512.31 716.72 520.52 711.77 527.19 C 708.39 531.71 704.51 537.67 698.11 537.39 C 693.70 537.47 689.34 539.00 684.94 538.08 C 677.32 536.73 670.69 532.52 663.99 528.89 C 655.50 523.98 646.82 519.18 639.34 512.76 C 633.79 508.38 628.18 503.51 625.35 496.86 C 623.51 492.57 624.15 486.80 628.20 483.99 C 631.99 481.26 636.98 481.73 641.24 482.92 C 648.01 484.91 654.59 487.67 660.54 491.48 C 666.57 495.39 672.96 498.73 678.83 502.89 C 680.83 504.42 682.89 505.88 684.96 507.32 C 688.11 497.55 690.11 487.31 694.94 478.16 C 698.13 472.56 701.16 466.44 706.57 462.63 Z" />
<path fill="#ffe751" opacity="1.00" d=" M 458.58 483.96 C 458.08 479.75 460.76 475.23 464.91 474.04 C 467.94 472.93 471.13 474.48 473.46 476.39 C 477.23 480.25 479.06 485.38 481.45 490.10 C 483.29 487.57 485.04 484.97 486.83 482.40 C 490.34 478.41 494.48 474.12 500.04 473.43 C 505.35 472.84 509.96 477.79 509.63 483.00 C 509.24 489.68 506.75 496.24 502.72 501.59 C 497.81 508.67 491.77 515.88 483.43 518.87 C 480.68 519.41 477.88 520.06 475.05 519.83 C 472.52 519.12 470.52 517.27 468.41 515.81 C 466.70 512.95 465.15 509.99 464.22 506.79 C 461.94 499.29 459.45 491.78 458.58 483.96 Z" />
<path fill="#ffe751" opacity="1.00" d=" M 445.48 513.10 C 446.46 507.59 452.80 504.02 458.02 506.03 C 463.15 507.92 465.92 512.93 469.00 517.10 C 471.47 521.81 473.68 526.66 476.43 531.22 C 478.47 528.29 480.67 525.48 483.20 522.97 C 488.13 517.99 493.84 513.02 500.97 511.78 C 505.29 510.91 510.04 512.97 512.21 516.84 C 514.75 521.60 515.19 527.47 513.41 532.57 C 511.33 538.82 506.13 543.20 501.61 547.71 C 495.85 552.95 490.06 558.32 483.19 562.09 C 477.47 565.84 470.34 563.74 464.72 560.89 C 455.71 555.79 452.35 545.34 448.78 536.29 C 446.89 528.74 444.25 520.97 445.48 513.10 Z" />
</g>
<g id="#cfa527ff">
<path fill="#cfa527" opacity="1.00" d=" M 380.04 164.01 C 382.79 165.25 385.57 166.43 388.44 167.40 L 388.20 167.85 C 387.25 169.56 386.69 171.45 386.16 173.33 C 385.91 173.97 385.63 174.60 385.32 175.22 C 383.39 171.95 382.02 168.33 379.41 165.50 C 379.56 165.13 379.88 164.39 380.04 164.01 Z" />
<path fill="#cfa527" opacity="1.00" d=" M 367.15 201.04 C 369.94 203.88 372.82 206.81 376.62 208.28 C 375.99 210.95 375.46 213.64 375.19 216.37 C 374.62 216.92 374.05 217.47 373.49 218.02 C 372.09 213.02 370.10 208.19 367.15 203.89 C 367.15 203.18 367.15 201.75 367.15 201.04 Z" />
<path fill="#cfa527" opacity="1.00" d=" M 355.69 246.67 C 358.98 249.61 362.26 252.78 366.50 254.33 C 366.11 256.57 365.67 258.81 365.09 261.01 C 363.89 262.44 362.63 263.81 361.37 265.18 C 359.60 259.88 357.82 254.58 355.94 249.32 C 355.87 248.66 355.75 247.34 355.69 246.67 Z" />
<path fill="#cfa527" opacity="1.00" d=" M 343.97 302.08 C 347.27 306.67 353.56 308.43 358.62 305.65 C 358.51 306.30 358.28 307.60 358.16 308.25 C 353.02 312.88 348.44 318.06 344.03 323.38 C 343.57 319.05 342.99 314.73 342.83 310.37 C 343.31 307.62 343.75 304.86 343.97 302.08 Z" />
<path fill="#cfa527" opacity="1.00" d=" M 331.96 349.48 C 335.16 351.78 338.87 353.80 342.95 353.56 C 346.69 353.23 350.15 351.62 353.64 350.33 C 348.74 408.09 343.90 465.97 344.51 524.01 C 345.55 543.73 345.85 563.61 349.76 583.04 C 353.12 601.96 357.89 620.60 363.40 639.00 L 337.96 639.00 C 337.01 628.99 335.80 619.01 334.77 609.01 C 334.04 597.86 331.35 586.97 329.79 575.94 C 327.98 561.70 325.94 547.45 325.50 533.09 C 324.21 521.10 324.80 509.02 323.83 497.01 C 323.68 483.69 323.62 470.36 323.89 457.05 C 324.94 446.80 324.18 436.46 325.25 426.22 C 326.67 400.79 328.36 375.30 332.61 350.15 L 331.96 349.48 Z" />
<path fill="#cfa527" opacity="1.00" d=" M 159.06 352.69 C 161.42 354.65 163.96 356.89 167.29 356.35 L 166.78 356.59 C 164.52 357.61 162.33 358.80 160.14 359.96 C 159.51 358.55 158.89 357.15 158.31 355.73 C 158.50 354.97 158.87 353.45 159.06 352.69 Z" />
<path fill="#cfa527" opacity="1.00" d=" M 152.81 378.00 C 156.38 378.66 159.94 377.74 163.41 376.97 C 160.89 379.58 158.11 381.92 155.12 383.98 C 154.34 383.01 153.56 382.04 152.77 381.10 C 152.78 380.32 152.80 378.77 152.81 378.00 Z" />
<path fill="#cfa527" opacity="1.00" d=" M 149.08 404.94 C 152.50 404.81 155.82 403.97 159.11 403.09 C 156.97 405.44 154.67 407.67 151.96 409.36 C 150.97 408.11 149.89 406.90 149.18 405.46 L 149.08 404.94 Z" />
<path fill="#cfa527" opacity="1.00" d=" M 480.67 431.29 C 484.00 433.51 487.61 435.34 491.50 436.38 C 491.14 438.60 490.77 440.83 490.18 443.01 C 488.92 444.35 487.62 445.66 486.32 446.96 C 484.74 442.89 483.03 438.75 479.94 435.58 C 480.18 434.15 480.40 432.70 480.67 431.29 Z" />
<path fill="#cfa527" opacity="1.00" d=" M 473.69 471.96 C 477.29 474.73 481.75 477.09 486.35 475.24 C 486.00 477.87 485.66 480.49 485.42 483.14 L 486.83 482.40 C 485.04 484.97 483.29 487.57 481.45 490.10 C 479.06 485.38 477.23 480.25 473.46 476.39 C 473.53 474.91 473.61 473.43 473.69 471.96 Z" />
<path fill="#cfa527" opacity="1.00" d=" M 141.55 486.13 C 147.18 487.36 151.84 483.74 156.72 481.66 C 156.56 482.29 156.23 483.55 156.06 484.18 C 152.71 487.30 149.33 490.39 146.23 493.78 C 144.64 491.25 143.09 488.69 141.55 486.13 Z" />
<path fill="#cfa527" opacity="1.00" d=" M 140.41 516.80 C 145.79 516.64 152.01 518.21 156.21 513.79 C 156.26 517.85 156.26 521.92 156.33 525.98 C 157.55 552.33 159.05 578.66 160.51 605.00 C 161.52 616.32 161.64 627.74 163.31 639.00 L 144.86 639.00 C 144.84 628.99 143.51 619.03 143.68 609.01 C 143.82 602.31 142.59 595.68 142.76 588.99 C 142.73 576.28 141.56 563.62 141.38 550.93 C 140.36 539.58 140.67 528.18 140.41 516.80 Z" />
<path fill="#cfa527" opacity="1.00" d=" M 468.41 515.81 C 470.52 517.27 472.52 519.12 475.05 519.83 C 477.88 520.06 480.68 519.41 483.43 518.87 C 483.35 520.23 483.27 521.60 483.20 522.97 C 480.67 525.48 478.47 528.29 476.43 531.22 C 473.68 526.66 471.47 521.81 469.00 517.10 L 468.41 515.81 Z" />
<path fill="#cfa527" opacity="1.00" d=" M 464.72 560.89 C 470.34 563.74 477.47 565.84 483.19 562.09 C 482.79 587.79 484.47 613.47 487.32 639.00 L 462.47 639.00 C 461.29 621.67 462.68 604.34 462.85 587.00 C 463.83 578.32 463.44 569.55 464.72 560.89 Z" />
</g>
<g id="#a88620ff">
<path fill="#a88620" opacity="1.00" d=" M 529.53 260.93 L 530.14 261.85 C 530.62 266.11 530.58 270.40 530.50 274.68 C 529.02 274.37 527.56 274.06 526.10 273.73 C 525.24 272.97 524.43 272.18 523.63 271.39 C 527.53 269.27 529.60 265.32 529.53 260.93 Z" />
<path fill="#a88620" opacity="1.00" d=" M 550.68 288.63 C 551.78 286.24 552.42 283.69 553.33 281.23 C 557.71 285.25 562.32 289.01 566.63 293.10 C 566.96 295.58 567.37 298.04 567.82 300.50 C 560.95 296.45 552.90 295.53 545.10 295.08 L 543.76 294.42 C 546.38 292.97 549.32 291.46 550.68 288.63 Z" />
<path fill="#a88620" opacity="1.00" d=" M 575.11 327.34 C 581.75 326.87 587.11 322.64 593.45 321.14 C 597.99 325.94 602.12 331.11 606.61 335.96 C 606.46 338.01 606.36 340.08 606.24 342.14 C 597.79 337.27 589.39 331.70 579.72 329.64 C 578.02 329.21 576.47 328.41 575.11 327.34 Z" />
<path fill="#a88620" opacity="1.00" d=" M 625.28 375.22 C 628.43 374.46 630.70 371.90 632.29 369.21 C 635.30 372.77 637.74 376.76 640.48 380.52 C 639.46 384.85 638.98 389.29 638.55 393.72 C 632.98 388.47 626.50 384.25 619.55 381.07 C 618.43 379.52 617.43 377.89 616.41 376.29 C 619.36 375.97 622.36 375.88 625.28 375.22 Z" />
<path fill="#a88620" opacity="1.00" d=" M 666.32 421.27 C 666.63 421.05 667.24 420.61 667.54 420.39 C 665.70 426.52 663.53 432.63 662.82 439.03 C 662.45 445.25 663.68 451.44 663.45 457.66 C 662.81 456.87 662.19 456.07 661.59 455.28 C 658.67 447.72 654.65 440.66 650.99 433.46 C 653.83 433.34 656.86 433.03 659.20 431.24 C 662.64 428.81 664.33 424.82 666.32 421.27 Z" />
<path fill="#a88620" opacity="1.00" d=" M 685.83 484.84 C 688.02 480.92 690.67 477.29 692.80 473.34 C 693.51 474.93 694.23 476.55 694.94 478.16 C 690.11 487.31 688.11 497.55 684.96 507.32 C 682.89 505.88 680.83 504.42 678.83 502.89 C 677.29 499.37 676.55 495.58 675.62 491.87 C 679.80 491.05 683.68 488.58 685.83 484.84 Z" />
<path fill="#a88620" opacity="1.00" d=" M 698.11 537.39 C 704.51 537.67 708.39 531.71 711.77 527.19 C 711.34 530.51 712.74 533.71 713.26 536.96 C 719.90 570.53 723.32 604.77 723.19 639.00 L 699.24 639.00 C 698.38 605.32 695.86 571.44 687.78 538.63 C 686.82 538.45 685.88 538.26 684.94 538.08 C 689.34 539.00 693.70 537.47 698.11 537.39 Z" />
</g>
<g id="#d7c13fdb">
<path fill="#d7c13f" opacity="0.86" d=" M 146.42 403.21 C 147.56 402.56 149.00 403.75 149.08 404.94 L 149.18 405.46 C 147.95 406.21 145.88 404.54 146.42 403.21 Z" />
</g>
<g id="#d5ad2cff">
<path fill="#d5ad2c" opacity="1.00" d=" M 150.41 432.22 C 151.23 431.47 153.41 431.37 153.64 432.74 C 153.31 434.68 149.49 434.29 150.41 432.22 Z" />
</g>
<g id="#d8b22fff">
<path fill="#d8b22f" opacity="1.00" d=" M 145.17 456.19 C 148.85 457.44 152.72 457.71 156.55 456.99 C 154.97 458.87 153.09 460.46 151.01 461.77 C 148.99 459.99 147.04 458.13 145.17 456.19 Z" />
</g>
</svg>
