<?xml version="1.0" encoding="UTF-8"?>
<svg width="154px" height="145px" viewBox="0 0 154 145" version="1.1" xmlns="http://www.w3.org/2000/svg" xmlns:xlink="http://www.w3.org/1999/xlink">
    <title>编组 6</title>
    <g id="Page-1" stroke="none" stroke-width="1" fill="none" fill-rule="evenodd">
        <g id="画板" transform="translate(-407.000000, -649.000000)">
            <g id="编组-6" transform="translate(407.966411, 649.573761)">
                <path d="M49.074881,55.8186762 C45.3972987,32.2172718 48.2612744,20.4165696 57.666808,20.4165696 C67.0723417,20.4165696 79.5522538,26.3169207 95.1065443,38.1176229 C121.66431,30.9926832 134.943193,33.3305645 134.943193,45.1312667 C134.943193,56.9319689 133.315287,69.1528208 130.059477,81.7938224 C143.661947,98.5251526 145.289853,110.436242 134.943193,117.527092 C124.596533,124.617941 111.144219,124.617941 94.5862514,117.527092 C80.380169,141.043074 68.0736879,148.694782 57.666808,140.482216 C47.2599281,132.269649 44.3959525,120.56605 49.074881,105.371419 C31.0189143,105.542342 21.990931,100.561244 21.990931,90.428126 C21.990931,80.2950081 31.0189143,68.7585248 49.074881,55.8186762 Z" id="路径-149备份-2" fill="#D5B403"></path>
                <path d="M45.413864,44.8356254 C41.7362817,21.234221 44.6002574,9.43351875 54.0057911,9.43351875 C63.4113247,9.43351875 75.8912368,15.3338699 91.4455273,27.1345721 C118.003293,20.0096324 131.282176,22.3475136 131.282176,34.1482158 C131.282176,45.9489181 129.65427,58.16977 126.39846,70.8107716 C140.00093,87.5421017 141.628836,99.4531914 131.282176,106.544041 C120.935516,113.63489 107.483202,113.63489 90.9252345,106.544041 C76.7191521,130.060023 64.4126709,137.711731 54.0057911,129.499165 C43.5989112,121.286598 40.7349355,109.582999 45.413864,94.3883683 C27.3578974,94.5592908 18.3299141,89.578193 18.3299141,79.4450751 C18.3299141,69.3119572 27.3578974,57.775474 45.413864,44.8356254 Z" id="路径-149备份" fill="#F1D124"></path>
                <path d="M129.726073,1.22033898 C122.418425,7.24388614 120.72705,11.2459633 124.651947,13.2265703 C128.576844,15.2071774 130.26822,11.2051003 129.726073,1.22033898 Z" id="路径-171" fill="#F1D124" transform="translate(126.209775, 7.469340) rotate(-174.000000) translate(-126.209775, -7.469340) "></path>
                <path d="M146.798354,13.8812094 C136.095274,22.7035435 133.618017,28.5651497 139.366582,31.466028 C145.115147,34.3669063 147.592405,28.5053001 146.798354,13.8812094 Z" id="路径-171备份" fill="#F1D124" transform="translate(141.648240, 23.033752) rotate(-118.000000) translate(-141.648240, -23.033752) "></path>
                <path d="M16.5741327,94.1733576 C5.87105284,102.995692 3.39379555,108.857298 9.14236085,111.758176 C14.8909261,114.659054 17.3681834,108.797448 16.5741327,94.1733576 Z" id="路径-171备份-2" fill="#F1D124" transform="translate(11.424019, 103.325900) rotate(44.000000) translate(-11.424019, -103.325900) "></path>
                <path d="M13.9335019,76.4880387 C4.6574994,84.1340616 2.51054309,89.2141203 7.49263301,91.7282148 C12.4747229,94.2423094 14.6216792,89.1622507 13.9335019,76.4880387 Z" id="路径-171备份-3" fill="#F1D124" transform="translate(9.470070, 84.420242) rotate(98.000000) translate(-9.470070, -84.420242) "></path>
                <path d="M92.5770458,65.9108219 C90.3901827,60.5739545 91.0251122,57.0799377 94.4818342,55.4287715 C97.9385563,53.7776053 100.752853,55.726976 102.924724,61.2768836" id="路径-172备份" stroke="#D5B403" stroke-width="2" stroke-linecap="round" stroke-linejoin="round"></path>
                <path d="M84.7322577,93.0641252 C86.2445298,94.1008748 88.4987411,94.1008748 91.4948915,93.0641252 C94.491042,92.0273755 96.6192901,90.5109252 97.879636,88.5147742" id="路径-173" stroke="#D5B403" stroke-width="2" stroke-linecap="round" stroke-linejoin="round"></path>
                <path d="M57.9840519,69.7592515 C65.5180801,66.2252222 69.6431704,65.1251785 70.359323,66.4591203 C71.0754755,67.7930621 70.2368203,69.9223709 67.8433574,72.8470467" id="路径-172" stroke="#D5B403" stroke-width="2" stroke-linecap="round" stroke-linejoin="round"></path>
                <path d="M49.074881,55.8186762 C45.3972987,32.2172718 48.2612744,20.4165696 57.666808,20.4165696 C67.0723417,20.4165696 79.5522538,26.3169207 95.1065443,38.1176229 C121.66431,30.9926832 134.943193,33.3305645 134.943193,45.1312667 C134.943193,56.9319689 133.315287,69.1528208 130.059477,81.7938224 C143.661947,98.5251526 145.289853,110.436242 134.943193,117.527092 C124.596533,124.617941 111.144219,124.617941 94.5862514,117.527092 C80.380169,141.043074 68.0736879,148.694782 57.666808,140.482216 C47.2599281,132.269649 44.3959525,120.56605 49.074881,105.371419 C31.0189143,105.542342 21.990931,100.561244 21.990931,90.428126 C21.990931,80.2950081 31.0189143,68.7585248 49.074881,55.8186762 Z" id="路径-149备份-4" fill="#D5B403"></path>
                <path d="M45.413864,44.8356254 C41.7362817,21.234221 44.6002574,9.43351875 54.0057911,9.43351875 C63.4113247,9.43351875 75.8912368,15.3338699 91.4455273,27.1345721 C118.003293,20.0096324 131.282176,22.3475136 131.282176,34.1482158 C131.282176,45.9489181 129.65427,58.16977 126.39846,70.8107716 C140.00093,87.5421017 141.628836,99.4531914 131.282176,106.544041 C120.935516,113.63489 107.483202,113.63489 90.9252345,106.544041 C76.7191521,130.060023 64.4126709,137.711731 54.0057911,129.499165 C43.5989112,121.286598 40.7349355,109.582999 45.413864,94.3883683 C27.3578974,94.5592908 18.3299141,89.578193 18.3299141,79.4450751 C18.3299141,69.3119572 27.3578974,57.775474 45.413864,44.8356254 Z" id="路径-149备份-3" fill="#FFEA1F"></path>
                <path d="M129.726073,1.22033898 C122.418425,7.24388614 120.72705,11.2459633 124.651947,13.2265703 C128.576844,15.2071774 130.26822,11.2051003 129.726073,1.22033898 Z" id="路径-171备份-7" fill="#F1D124" transform="translate(126.209775, 7.469340) rotate(-174.000000) translate(-126.209775, -7.469340) "></path>
                <path d="M146.798354,13.8812094 C136.095274,22.7035435 133.618017,28.5651497 139.366582,31.466028 C145.115147,34.3669063 147.592405,28.5053001 146.798354,13.8812094 Z" id="路径-171备份-6" fill="#F1D124" transform="translate(141.648240, 23.033752) rotate(-118.000000) translate(-141.648240, -23.033752) "></path>
                <path d="M16.5741327,94.1733576 C5.87105284,102.995692 3.39379555,108.857298 9.14236085,111.758176 C14.8909261,114.659054 17.3681834,108.797448 16.5741327,94.1733576 Z" id="路径-171备份-5" fill="#F1D124" transform="translate(11.424019, 103.325900) rotate(44.000000) translate(-11.424019, -103.325900) "></path>
                <path d="M13.9335019,76.4880387 C4.6574994,84.1340616 2.51054309,89.2141203 7.49263301,91.7282148 C12.4747229,94.2423094 14.6216792,89.1622507 13.9335019,76.4880387 Z" id="路径-171备份-4" fill="#F1D124" transform="translate(9.470070, 84.420242) rotate(98.000000) translate(-9.470070, -84.420242) "></path>
                <path d="M92.5770458,65.9108219 C90.3901827,60.5739545 91.0251122,57.0799377 94.4818342,55.4287715 C97.9385563,53.7776053 100.752853,55.726976 102.924724,61.2768836" id="路径-172备份-3" stroke="#D5B403" stroke-width="2" stroke-linecap="round" stroke-linejoin="round"></path>
                <path d="M84.7322577,93.0641252 C86.2445298,94.1008748 88.4987411,94.1008748 91.4948915,93.0641252 C94.491042,92.0273755 96.6192901,90.5109252 97.879636,88.5147742" id="路径-173备份" stroke="#D5B403" stroke-width="2" stroke-linecap="round" stroke-linejoin="round"></path>
                <path d="M57.9840519,69.7592515 C65.5180801,66.2252222 69.6431704,65.1251785 70.359323,66.4591203 C71.0754755,67.7930621 70.2368203,69.9223709 67.8433574,72.8470467" id="路径-172备份-2" stroke="#D5B403" stroke-width="2" stroke-linecap="round" stroke-linejoin="round"></path>
            </g>
        </g>
    </g>
</svg>